<?xml version="1.0" encoding="UTF-8"?>
<svg id="Layer_2" data-name="Layer 2" xmlns="http://www.w3.org/2000/svg" viewBox="0 0 1000 1000">
  <defs>
    <style>
      .cls-1 {
        fill: #fff;
      }
    </style>
  </defs>
  <g>
    <path class="cls-1" d="M382.19,730.17l-49.27-.83-52.57.83c-1.05,0-1.58-.52-1.58-1.5v-50.32c0-22.12,6.9-38.7,26.7-38.7,12.15,0,18.6,5.7,22.8,16.65,3-13.5,12.3-20.7,25.65-20.7,20.7,0,29.85,21.45,29.85,41.55v51.52c0,.98-.53,1.5-1.58,1.5ZM318.97,680.74c0-6.15-3.15-9.6-8.7-9.6s-8.7,3.45-8.7,9.6v15.98l17.4.52v-16.5ZM360.97,680.74c0-8.4-3-11.7-10.5-11.7-7.05,0-9.9,3.3-9.9,11.7v16.5l20.4-.52v-15.98Z"/>
    <path class="cls-1" d="M345.52,628.32h-23.85l-41.32.38c-1.05,0-1.58-.6-1.58-1.58v-31.2c0-1.05.53-1.58,1.58-1.58l40.42.53h24.45c11.85,0,16.05-4.8,16.05-13.65,0-10.5-4.2-15.75-16.05-15.75h-23.7l-41.17.38c-1.05,0-1.58-.6-1.58-1.58v-27.75c0-1.05.53-1.57,1.58-1.57l41.32.38h23.85c27,0,40.95,15.45,40.95,45.9s-13.95,47.1-40.95,47.1Z"/>
    <path class="cls-1" d="M382.19,525.94l-50.02-.6-51.82.6c-1.05,0-1.58-.6-1.58-1.57v-33.3c0-.83.3-1.5,1.05-1.88l56.25-31.5-7.35.6h-48.37c-1.05,0-1.58-.6-1.58-1.58v-26.4c0-1.05.53-1.57,1.58-1.57l51.82.6,50.02-.75c1.05,0,1.58.53,1.58,1.57v34.35c0,.82-.38,1.42-1.12,1.88l-55.57,30.45,8.7-.6h46.42c1.05,0,1.58.53,1.58,1.58v26.55c0,.97-.53,1.57-1.58,1.57Z"/>
    <path class="cls-1" d="M382.19,419.52l-49.42-.67-52.42.67c-1.05,0-1.58-.52-1.58-1.5v-40.57c0-30.9,13.95-59.7,54-59.7s51,27.75,51,59.4v40.87c0,.98-.53,1.5-1.58,1.5ZM360.37,375.95c0-15.3-7.65-24-27.9-24-21.6,0-30.45,10.05-30.45,24.6v9.3l30.15.6,28.2-.6v-9.9Z"/>
    <path class="cls-1" d="M494.69,730.17l-49.42-.68-52.42.68c-1.05,0-1.58-.52-1.58-1.5v-40.57c0-30.9,13.95-59.7,54-59.7s51,27.75,51,59.4v40.87c0,.98-.53,1.5-1.58,1.5ZM472.87,686.59c0-15.3-7.65-24-27.9-24-21.6,0-30.45,10.05-30.45,24.6v9.3l30.15.6,28.2-.6v-9.9Z"/>
    <path class="cls-1" d="M494.69,620.67l-49.12-.82-52.72.82c-1.05,0-1.58-.52-1.58-1.5v-77.7c0-1.05.6-1.58,1.58-1.58h20.1c.97,0,1.57.6,1.57,1.58v45.82l15.3.38v-41.1c0-.98.6-1.58,1.58-1.58h20.1c.98,0,1.58.6,1.58,1.58v41.1l19.8-.38v-47.02c0-.97.6-1.57,1.58-1.57h20.25c.98,0,1.58.6,1.58,1.57v78.9c0,.98-.53,1.5-1.58,1.5Z"/>
    <path class="cls-1" d="M494.69,531.49l-49.27-.6-52.57.6c-1.05,0-1.58-.6-1.58-1.58v-48.22c0-29.55,11.85-45.75,35.25-45.75,14.25,0,25.12,7.5,30.67,21.45l37.2-24.37c1.05-.67,1.88-.3,1.88.98v34.72c0,.83-.38,1.5-1.12,1.88l-28.12,16.95-5.55,3.83v6.97l33.22-.45c1.05,0,1.58.53,1.58,1.58v30.45c0,.98-.53,1.58-1.58,1.58ZM438.67,480.2c0-5.4-3.15-12.3-11.4-12.3-9.3,0-13.2,4.65-13.2,13.2v17.02l24.6.23v-18.15Z"/>
    <path class="cls-1" d="M607.19,730.17l-50.47-.75-51.37.6c-1.05,0-1.58-.53-1.58-1.5v-28.8c0-1.05.53-1.58,1.58-1.58l33.37.3-33.97-22.57c-.67-.52-.98-1.05-.98-1.88v-33.67c0-1.35.9-1.8,1.95-.97l41.47,33.15,59.62-42.6c1.05-.75,1.95-.3,1.95.98v35.62c0,.82-.38,1.35-1.05,1.88l-20.7,14.02-14.77,10.05,7.57,5.92,27.37-.23c1.05,0,1.58.52,1.58,1.58v28.95c0,.98-.53,1.5-1.58,1.5Z"/>
    <path class="cls-1" d="M606.97,628.24l-101.92-34.42c-.9-.3-1.28-.83-1.28-1.72v-42c0-.9.38-1.5,1.28-1.8l101.92-33c1.05-.38,1.8.15,1.8,1.27v30.75c0,.9-.45,1.5-1.35,1.8l-20.25,6v33.9l20.25,5.55c.9.23,1.35.83,1.35,1.73v30.67c0,1.12-.67,1.65-1.8,1.27ZM561.97,562.47l-34.35,10.12,34.35,9.45v-19.57Z"/>
    <path class="cls-1" d="M607.19,499.69l-51.52-.9-28.65.45v27.37c0,.98-.6,1.58-1.57,1.58h-20.1c-.97,0-1.58-.6-1.58-1.58v-88.2c0-1.05.6-1.57,1.58-1.57h20.1c.97,0,1.57.6,1.57,1.57v27.37l28.65.45,51.52-.9c1.05,0,1.58.53,1.58,1.58v31.2c0,.97-.53,1.58-1.58,1.58Z"/>
    <path class="cls-1" d="M607.19,434.74h-23.02c-.75,0-1.35-.22-1.88-.75l-55.27-50.25v45.37c0,.98-.6,1.58-1.57,1.58h-20.1c-.97,0-1.58-.6-1.58-1.58v-83.7c0-.98.6-1.58,1.58-1.58h23.85c.82,0,1.35.23,1.95.75l54.22,48.75v-47.32c0-.97.6-1.58,1.58-1.58h20.25c.98,0,1.58.6,1.58,1.58v87.15c0,.97-.6,1.57-1.58,1.57Z"/>
    <path class="cls-1" d="M607.19,335.82l-49.12-.83-52.72.83c-1.05,0-1.58-.52-1.58-1.5v-77.7c0-1.05.6-1.58,1.58-1.58h20.1c.97,0,1.57.6,1.57,1.58v45.82l15.3.38v-41.1c0-.98.6-1.58,1.58-1.58h20.1c.98,0,1.58.6,1.58,1.58v41.1l19.8-.38v-47.02c0-.97.6-1.57,1.58-1.57h20.25c.98,0,1.58.6,1.58,1.57v78.9c0,.98-.53,1.5-1.58,1.5Z"/>
    <path class="cls-1" d="M607.19,246.65l-50.02-.6-51.82.6c-1.05,0-1.58-.6-1.58-1.58v-33.3c0-.83.3-1.5,1.05-1.88l56.25-31.5-7.35.6h-48.37c-1.05,0-1.58-.6-1.58-1.58v-26.4c0-1.05.53-1.58,1.58-1.58l51.82.6,50.02-.75c1.05,0,1.58.52,1.58,1.57v34.35c0,.83-.38,1.42-1.12,1.88l-55.57,30.45,8.7-.6h46.42c1.05,0,1.58.53,1.58,1.58v26.55c0,.98-.53,1.58-1.58,1.58Z"/>
    <path class="cls-1" d="M719.69,730.17l-51.07-.83-50.77.83c-1.05,0-1.58-.52-1.58-1.5v-75.15c0-1.05.6-1.58,1.58-1.58h20.1c.97,0,1.57.6,1.57,1.58v43.2l19.95.45v-41.85c0-1.05.6-1.57,1.58-1.57h20.1c.97,0,1.57.6,1.57,1.57v41.85l36.97-.45c1.05,0,1.58.52,1.58,1.57v30.37c0,.98-.53,1.5-1.58,1.5Z"/>
    <path class="cls-1" d="M719.69,644.89l-49.27-.6-52.57.6c-1.05,0-1.58-.6-1.58-1.57v-48.22c0-29.55,11.85-45.75,35.25-45.75,14.25,0,25.12,7.5,30.67,21.45l37.2-24.38c1.05-.67,1.88-.3,1.88.97v34.72c0,.82-.38,1.5-1.12,1.88l-28.12,16.95-5.55,3.82v6.97l33.22-.45c1.05,0,1.58.53,1.58,1.57v30.45c0,.97-.53,1.57-1.58,1.57ZM663.67,593.6c0-5.4-3.15-12.3-11.4-12.3-9.3,0-13.2,4.65-13.2,13.2v17.02l24.6.22v-18.15Z"/>
    <path class="cls-1" d="M719.69,540.87l-49.12-.83-52.72.83c-1.05,0-1.58-.53-1.58-1.5v-77.7c0-1.05.6-1.57,1.58-1.57h20.1c.97,0,1.57.6,1.57,1.57v45.82l15.3.38v-41.1c0-.97.6-1.57,1.58-1.57h20.1c.98,0,1.58.6,1.58,1.57v41.1l19.8-.38v-47.02c0-.97.6-1.58,1.58-1.58h20.25c.98,0,1.58.6,1.58,1.58v78.9c0,.97-.53,1.5-1.58,1.5Z"/>
    <path class="cls-1" d="M683.02,451.32h-23.85l-41.32.38c-1.05,0-1.58-.6-1.58-1.57v-31.2c0-1.05.53-1.57,1.58-1.57l40.42.53h24.45c11.85,0,16.05-4.8,16.05-13.65,0-10.5-4.2-15.75-16.05-15.75h-23.7l-41.17.38c-1.05,0-1.58-.6-1.58-1.58v-27.75c0-1.05.53-1.58,1.58-1.58l41.32.38h23.85c27,0,40.95,15.45,40.95,45.9s-13.95,47.1-40.95,47.1Z"/>
    <path class="cls-1" d="M719.69,348.95l-50.02-.6-51.82.6c-1.05,0-1.58-.6-1.58-1.58v-33.3c0-.82.3-1.5,1.05-1.88l56.25-31.5-7.35.6h-48.37c-1.05,0-1.58-.6-1.58-1.57v-26.4c0-1.05.53-1.58,1.58-1.58l51.82.6,50.02-.75c1.05,0,1.58.52,1.58,1.58v34.35c0,.83-.38,1.43-1.12,1.88l-55.57,30.45,8.7-.6h46.42c1.05,0,1.58.52,1.58,1.57v26.55c0,.98-.53,1.58-1.58,1.58Z"/>
    <path class="cls-1" d="M719.69,242.52l-49.42-.68-52.42.68c-1.05,0-1.58-.53-1.58-1.5v-40.57c0-30.9,13.95-59.7,54-59.7s51,27.75,51,59.4v40.87c0,.97-.53,1.5-1.58,1.5ZM697.87,198.95c0-15.3-7.65-24-27.9-24-21.6,0-30.45,10.05-30.45,24.6v9.3l30.15.6,28.2-.6v-9.9Z"/>
    <path class="cls-1" d="M719.69,133.02l-49.12-.82-52.72.82c-1.05,0-1.58-.52-1.58-1.5V53.83c0-1.05.6-1.58,1.58-1.58h20.1c.97,0,1.57.6,1.57,1.58v45.82l15.3.38v-41.1c0-.98.6-1.58,1.58-1.58h20.1c.98,0,1.58.6,1.58,1.58v41.1l19.8-.38v-47.02c0-.97.6-1.57,1.58-1.57h20.25c.98,0,1.58.6,1.58,1.57v78.9c0,.98-.53,1.5-1.58,1.5Z"/>
  </g>
  <path class="cls-1" d="M309.92,944.62c45.3-19.27,84.29-50.48,113.02-89.68,24.71,6.04,50.52,9.24,77.08,9.24,26.55,0,52.36-3.2,77.06-9.24,28.72,39.2,67.72,70.41,113.02,89.68,10.36,4.41,22.3-.68,26.42-11.17,10.34-26.33,16.02-54.99,16.02-84.99,0-24.53-3.79-48.17-10.84-70.37-.26-.83-1.04-1.4-1.91-1.4h-439.52c-.87,0-1.65.56-1.91,1.4-7.05,22.2-10.84,45.84-10.84,70.37,0,30,5.68,58.66,16.02,84.99,4.12,10.48,16.06,15.58,26.42,11.17ZM635.11,851.54c18.05-3.85,35.1-10.37,50.74-19.13,2.29-1.27,5.14.13,5.52,2.72.66,4.56,1,9.22,1,13.96,0,14-3.01,27.31-8.41,39.31-.82,1.79-2.89,2.64-4.73,1.95-18.11-6.82-33.99-18.21-46.21-32.76-1.81-2.17-.68-5.48,2.09-6.06ZM313.89,835.14c.38-2.6,3.23-3.99,5.52-2.72,15.64,8.75,32.7,15.27,50.74,19.13,2.77.58,3.9,3.88,2.09,6.06-12.22,14.55-28.1,25.94-46.21,32.76-1.83.69-3.91-.16-4.71-1.95-5.42-12-8.43-25.31-8.43-39.31,0-4.74.34-9.4,1-13.96Z"/>
</svg>