<?xml version="1.0" encoding="UTF-8"?>
<svg id="Layer_2" data-name="Layer 2" xmlns="http://www.w3.org/2000/svg" viewBox="0 0 1000 1000">
  <g>
    <path d="M278.69,653.79l.93-55.54-.93-59.26c0-1.18.59-1.77,1.69-1.77h56.72c24.94,0,43.62,7.78,43.62,30.09,0,13.69-6.42,20.97-18.77,25.7,15.22,3.38,23.33,13.86,23.33,28.91,0,23.33-24.18,33.64-46.83,33.64h-58.07c-1.1,0-1.69-.59-1.69-1.78ZM334.4,582.53c6.93,0,10.82-3.55,10.82-9.81s-3.89-9.81-10.82-9.81h-18.01l-.59,19.61h18.6ZM334.4,629.86c9.47,0,13.19-3.38,13.19-11.83,0-7.95-3.72-11.16-13.19-11.16h-18.6l.59,22.99h18.01Z"/>
    <path d="M393.15,653.79l.76-55.71-.76-59.09c0-1.18.59-1.77,1.69-1.77h45.73c34.83,0,67.29,15.72,67.29,60.86s-31.28,57.48-66.95,57.48h-46.07c-1.1,0-1.69-.59-1.69-1.78ZM442.26,629.19c17.24,0,27.05-8.62,27.05-31.45,0-24.35-11.33-34.32-27.73-34.32h-10.48l-.68,33.98.68,31.79h11.16Z"/>
    <path d="M516.57,653.79l.85-56.89-.68-57.91c0-1.18.59-1.77,1.69-1.77h32.46c1.18,0,1.78.59,1.78,1.77l-.34,37.62,25.44-38.29c.59-.76,1.18-1.1,2.11-1.1h37.95c1.52,0,2.03,1.01,1.1,2.2l-37.36,46.75,48.01,67.2c.85,1.18.34,2.2-1.1,2.2h-40.15c-.93,0-1.52-.42-2.11-1.18l-15.81-23.33-11.33-16.65-6.68,8.54.25,30.85c0,1.18-.59,1.78-1.78,1.78h-32.63c-1.1,0-1.69-.59-1.69-1.78Z"/>
    <path d="M633.06,653.79l.93-57.57-.93-57.23c0-1.18.59-1.77,1.69-1.77h84.7c1.18,0,1.78.68,1.78,1.77v22.65c0,1.1-.68,1.78-1.78,1.78h-48.69l-.51,22.49h47.17c1.18,0,1.78.68,1.78,1.77v22.65c0,1.1-.68,1.78-1.78,1.78h-47.17l.51,41.67c0,1.18-.59,1.78-1.77,1.78h-34.24c-1.1,0-1.69-.59-1.69-1.78Z"/>
  </g>
  <path d="M690.09,346.03c-45.3,19.27-84.29,50.48-113.02,89.68-24.71-6.04-50.52-9.24-77.08-9.24-26.55,0-52.36,3.2-77.06,9.24-28.72-39.2-67.72-70.41-113.02-89.68-10.36-4.41-22.3.68-26.42,11.17-10.34,26.33-16.02,54.99-16.02,84.99,0,24.53,3.79,48.17,10.84,70.37.26.83,1.04,1.4,1.91,1.4h439.52c.87,0,1.65-.56,1.91-1.4,7.05-22.2,10.84-45.84,10.84-70.37,0-30-5.68-58.66-16.02-84.99-4.12-10.48-16.06-15.58-26.42-11.17ZM364.89,439.11c-18.05,3.85-35.1,10.37-50.74,19.13-2.29,1.27-5.14-.13-5.52-2.72-.66-4.56-1-9.22-1-13.96,0-14,3.01-27.31,8.41-39.31.82-1.79,2.89-2.64,4.73-1.95,18.11,6.82,33.99,18.21,46.21,32.76,1.81,2.17.68,5.48-2.09,6.06ZM686.11,455.51c-.38,2.6-3.23,3.99-5.52,2.72-15.64-8.75-32.7-15.27-50.74-19.13-2.77-.58-3.9-3.88-2.09-6.06,12.22-14.55,28.1-25.94,46.21-32.76,1.83-.69,3.91.16,4.71,1.95,5.42,12,8.43,25.31,8.43,39.31,0,4.74-.34,9.4-1,13.96Z"/>
</svg>