<?xml version="1.0" encoding="UTF-8"?>
<svg id="Layer_2" data-name="Layer 2" xmlns="http://www.w3.org/2000/svg" viewBox="0 0 644.05 533.81">
  <defs>
    <style>
      .cls-1 {
        fill: #fff;
      }
    </style>
  </defs>
  <g id="Layer_1-2" data-name="Layer 1">
    <g>
      <path class="cls-1" d="M155.81,381.2c-3.67-5.28,1.51-10.68,5.66-13.2,6.03-3.65,12.47-6.02,19.29-7.75l4.84-1.22,6.16-1.39,7.08-1.44,7.61-1.39,10.91-1.54c6.02-.85,8.41-1.32,14.25.01,2.08.48,5.08,1.02,5.28,3.82.12,1.75-2.33,2.58-3.82,2.45-3.58-.31-6.49.24-9.84,1.15-1.26.34-3.14.37-4.51.6l-9.11,1.51-9.38,1.5-2.75.55-7.52,1.37-6.67,1.41-5.6,1.4-5.08,1.42c-2.33.66-16.12,5.48-11.53,8.94,4.09,3.08,8.8,4.35,13.61,5.7l4.59,1.3,5.61,1.46c2.05.53,3.92.81,6.07,1.35l4.1,1.02,5.04,1.01,7.26,1.44,7.3,1.53c2.41.5,5.34.27,6.95,2.67.49.74.48,2.56.08,3.4-1.48,3.08-6.35,1.02-8.76.39l-5.1-1.33-5.61-1.45-5.49-1.42-6.05-1.54-4.86-1.21-5.45-1.4-5.14-1.44-4.96-1.47-4.27-1.38c-4.06-1.31-7.81-3.4-10.19-6.83Z"/>
      <path class="cls-1" d="M238.57,449.86c.95.43,1.98,2.02,1.9,2.84-.12,1.14-1.33,2.15-2.53,2.77l-31.44,16.3c-2.15,1.11-5.16-.52-5.77-2.18-.75-2.04-.31-4.84,1.95-6.06,9.05-4.89,18.29-9.34,28.05-12.86,2.64-.95,5.36-1.95,7.84-.81Z"/>
      <path class="cls-1" d="M245.15,463.32c.37.46.88,1.31.85,1.79-.03.47-.67,1.52-1.14,1.83l-10.9,7.24-16.88,10.77c-1.68,1.07-3.55,1.41-4.65-.11-1.18-1.64-1.21-3.49.62-4.88l9.91-7.49c5.15-3.9,10.58-7.22,16.58-9.56,1.77-1.36,4.06-1.49,5.61.41Z"/>
      <path class="cls-1" d="M362.4,453.82c-.57-2.08-2.27-4.17-3.14-6.16-3.06-6.99-7.84-12.2-13.93-16.66-3.68-2.7-7.2-5.99-11.93-6.84-5.71-1.03-12.51-.52-18.11,1.03-12.28,3.39-22.17,12.42-26.2,24.53-2.48,7.47-2.89,15.89.18,23.45,4.35,10.72,13.58,18.98,24.39,23.09,14.23,5.43,32.73,3.52,43.32-8.79,7.56-8.79,8.44-22.73,5.42-33.65ZM356.62,472.71c-.11,1.05-1.07,3-1.47,3.99-2.89,7.2-9.52,11.65-16.92,13.84-1.69.5-3.24,1.05-4.77.96-4.17-.24-8.44.47-12.22-.43-8.8-2.07-17.13-6.9-22.31-14.12-4.06-5.65-4.59-10.08-4.13-17.01.42-6.41,3.74-11.99,7.81-16.78,3.61-4.26,8.38-6.62,13.65-8.57,1.35-.5,2.51.08,3.8-.05l6.88-.67c3.26-.31,11.93,3.2,15.07,5.98l6.2,5.46c4.31,3.81,6.85,9.22,8.28,15.07.9,3.69.51,8.51.13,12.33Z"/>
      <path class="cls-1" d="M535.6,445.2c-2.03-3.23-3.85-6.31-6.17-9.37-1.15-1.52-3.93-2.36-5.53-3.33-4.38-2.67-8.96-3.97-14.09-4.15-4.1-.15-8.42-1-12.43.2-3.64,1.08-7,2.5-10.49,3.98-2.93,1.24-5.47,3.04-8.23,4.75-10.2,6.34-15.43,20.72-11.6,32.02,2.94,8.67,8.96,15.4,16.73,20.15,6.16,3.77,17.38,7.88,24.47,7.72,8.95-.2,17.28-3.47,23.62-9.71,3.74-3.69,6.3-8.54,7.99-13.41.82-2.38.95-4.72,1.2-7.1.85-8.02-1.29-15.05-5.47-21.75ZM528.57,465.25c-.41,2.05-.57,3.6-1.15,5.25-3.37,9.65-8.72,14.82-19.47,15.47-7.93.49-14.98-1.6-21.19-6.41-8.2-6.35-15.18-14.06-10.42-25.28,4.03-9.52,12.95-16.4,23.27-18.54,2.9-.61,6.17-.23,9.33-.27.73,0,2.19.59,2.96.83,14.24,4.38,16.21,11.32,17.43,25.11l-.76,3.84Z"/>
      <path class="cls-1" d="M569.31,450.9c-.93-.01-2.19-2.49-1.69-3.28.67-1.06,2.9-2.56,4.2-2.57l17.02-.1c2.93,0,5.74.69,8.63,1.33,1.29.29,3.41.12,4.54.49,7.71,2.54,6.53-.33,9.38,4.34-3.01,4.42-7.4,1.63-10.57,1.49-5.19-.24-10.04-.16-15.02-1.62l-16.49-.08Z"/>
      <path class="cls-1" d="M608.65,464.57c2.34.64,5,1.62,5.55,4.57.27,1.43-1.42,3.44-2.6,4.04-1.48.75-3.81-.09-5.44-.67l-4.71-1.66-9.94-3.29-4.93-1.49c-5.32-1.62-7.52-.8-8.15-3.46-.24-1,1-2.98,2.31-3.27,3.6-.8,7.25-.04,10.82.8l6.83,1.6,10.26,2.83Z"/>
      <g>
        <path d="M643.55,387.58c-1.4-3.5-4.79-5.66-8.03-7.45-13.33-7.36-27.12-13.3-41.7-17.62-1.56-.46-3.17-.93-4.64-1.25l-6.5-1.41-7.09-1.44-7.5-1.52-6.41-1.16-8.38-1.45-9.97-1.6-4.91-.56c-.71-2.42-1.19-4.76-2.42-6.65l-4.76-7.27c-4.03-6.16-7.03-12.73-11.34-18.73-3.8-5.29-8.82-9-13.31-13.66-9.65-10-20.34-18.18-33.01-23.98-3.77-1.73-7.27-3.5-11.22-4.84l-24.16-8.23-22.87-8.6c-9.46-3.56-18.52-6.66-27.93-10.58-19.92-8.3-40.07-14.64-60.43-21.56l-15.33-5.21c-10.14-3.45-19-8.97-27.7-15.25-6.36-4.59-11.79-10.06-16.51-16.32-3.76-4.98-7.23-9.87-9.97-15.47-7.42-15.17-4.56-36.97-.16-52.84,2.19-7.88,6.08-14.6,10.69-21.25,4.15-5.98,7.98-11.77,12.58-17.4,9.26-11.34,21.54-16.78,35.39-20.61l15.63-4.33c17.06-4.72,34.05-12.02,44-27.47,2.71-4.2,3.48-9.59,1.14-13.99-2.54-4.77-6.77-7.98-11.44-10.59-27.65-15.41-70.26-3.46-97.42,8.81-9.77,4.41-18.56,9.82-26.53,16.95-7.65,6.84-14.71,13.87-20.54,22.34-7.78,11.29-14.15,25.54-15.94,39.22-.45,3.42-1.19,6.79-1.19,10.34l.06,55.39c0,6.2.57,12.04.07,18.17-1.03,12.73-8.37,23.96-16.44,33.45-2.83,3.34-5.7,6.59-9.29,9.22-8.4,6.16-16.75,12-26.08,16.75l-26.54,13.54c-9.8,5-19.27,9.86-28.34,16.06l-19.69,13.43c-12.83,8.75-24.22,18.69-35.39,29.56-12.5,12.16-23.52,25.36-32.55,40.28-6.99,11.55-10.74,22.98-9.07,36.34.98,7.83,4.5,14.06,10.29,19.33,10.44,9.51,22.48,16.73,35.47,22.32l13,5.59,16,7.12c14.1,6.27,35.47,13.22,50.92,15.07,9.56,1.14,18.8,1.5,28.45,1.57,6.73.05,9.75-.39,16.31-.02-4.6,8.4-4.45,16.92-.44,24.81,2.63,5.19,5.28,10.06,9.07,14.55,9.93,11.78,25.68,16.27,40.38,18.6l7.02,1.11,9.63,1.39c5.67.82,11.17,1.19,16.82,1.62l9.67.73,16.48,1.52,12.97,1.54,10.53,1.44,11.02,1.54,13.33,1.73,8.93.97,10.2,1.06,9.42.57,7.09.49,7.9.48,11.99.57,5.61.42c2.81.21,5.61.56,8.49.55l66.63-.12,17.77-.53,10.24-.46c17.08-.77,34.38-3.25,51.04-7.49,6.34-1.61,12.13-3.86,18.16-6.42l24.82-10.55c11.97-5.09,23.29-10.92,33.27-19.18,8.72-7.21,11.8-19.81,10.72-30.31l-1.11-10.81-.9-6.28c-1.3-9.02-4.42-18.23-9.5-25.82-.31-.46-.26-1.84.06-2.2,6.81-1.98,13.71-6.16,19.15-11.1,3.74-3.4,8.27-9.9,6.26-14.97ZM190.69,394.93l-4.86-1.2-5.45-1.41-5.14-1.44-4.96-1.47-4.27-1.38c-4.06-1.31-7.81-3.4-10.2-6.83-3.66-5.28,1.52-10.68,5.67-13.2,6.03-3.65,12.47-6.02,19.29-7.75l4.84-1.23,6.15-1.39,7.09-1.44,7.61-1.4,10.9-1.54c6.02-.85,8.42-1.32,14.25.01,2.09.48,5.09,1.02,5.28,3.82.12,1.76-2.33,2.58-3.82,2.45-3.58-.31-6.48.24-9.84,1.15-1.26.34-3.14.37-4.5.6l-9.11,1.51-9.38,1.5-2.75.54-7.52,1.37-6.67,1.41-5.6,1.4-5.08,1.43c-2.33.65-16.12,5.48-11.53,8.94,4.09,3.08,8.8,4.35,13.6,5.7l4.6,1.29,5.6,1.46c2.06.54,3.92.81,6.07,1.35l4.1,1.03,5.04,1,7.26,1.45,7.3,1.53c2.41.5,5.34.28,6.95,2.67.5.74.49,2.56.08,3.4-1.48,3.08-6.35,1.03-8.76.4l-5.1-1.33-5.61-1.46-5.49-1.42-6.05-1.54ZM200.73,469.59c-.75-2.04-.31-4.84,1.95-6.06,9.05-4.88,18.29-9.34,28.05-12.86,2.63-.95,5.36-1.95,7.84-.81.95.43,1.98,2.02,1.9,2.85-.12,1.14-1.33,2.15-2.52,2.77l-31.44,16.29c-2.15,1.12-5.16-.51-5.77-2.17ZM244.86,466.94l-10.9,7.24-16.88,10.77c-1.68,1.07-3.55,1.42-4.65-.11-1.18-1.64-1.21-3.49.62-4.88l9.9-7.49c5.16-3.9,10.58-7.21,16.58-9.56,1.77-1.36,4.06-1.49,5.61.41.37.46.88,1.31.85,1.78-.03.48-.67,1.52-1.14,1.83ZM356.99,487.47c-10.6,12.32-29.09,14.22-43.32,8.8-10.81-4.12-20.04-12.38-24.39-23.1-3.07-7.56-2.66-15.98-.18-23.45,4.03-12.11,13.91-21.15,26.2-24.54,5.6-1.55,12.4-2.05,18.11-1.02,4.73.85,8.25,4.14,11.93,6.83,6.09,4.47,10.87,9.67,13.93,16.67.87,1.99,2.57,4.07,3.14,6.16,3.02,10.93,2.14,24.86-5.42,33.65ZM541.07,466.95c-.25,2.38-.37,4.72-1.2,7.09-1.69,4.87-4.25,9.73-7.99,13.41-6.34,6.24-14.67,9.52-23.63,9.72-7.08.16-18.3-3.95-24.47-7.72-7.76-4.75-13.79-11.48-16.73-20.15-3.83-11.3,1.4-25.69,11.6-32.02,2.76-1.71,5.31-3.51,8.24-4.75,3.49-1.48,6.84-2.9,10.49-3.98,4.01-1.2,8.33-.34,12.43-.2,5.13.18,9.71,1.48,14.09,4.15,1.6.97,4.38,1.81,5.53,3.33,2.31,3.06,4.14,6.14,6.17,9.38,4.18,6.69,6.33,13.73,5.47,21.75ZM567.63,447.62c.67-1.06,2.9-2.56,4.2-2.57l17.03-.1c2.93-.02,5.74.68,8.62,1.33,1.3.29,3.41.12,4.54.49,7.71,2.54,6.53-.33,9.38,4.33-3.01,4.42-7.4,1.64-10.57,1.49-5.18-.24-10.04-.16-15.02-1.62l-16.48-.08c-.93,0-2.19-2.49-1.69-3.28ZM611.61,473.17c-1.48.75-3.82-.09-5.45-.66l-4.71-1.66-9.93-3.29-4.93-1.5c-5.32-1.62-7.52-.79-8.15-3.46-.24-.99,1-2.98,2.31-3.27,3.61-.8,7.25-.04,10.82.8l6.83,1.6,10.27,2.83c2.34.64,5,1.62,5.55,4.57.27,1.43-1.42,3.44-2.6,4.03Z"/>
        <path d="M511.9,436.3c-.77-.24-2.23-.84-2.96-.83-3.15.04-6.42-.34-9.33.26-10.32,2.15-19.24,9.03-23.27,18.55-4.76,11.22,2.22,18.93,10.42,25.28,6.21,4.81,13.26,6.9,21.19,6.41,10.75-.66,16.1-5.83,19.48-15.48.58-1.65.74-3.2,1.15-5.24l.76-3.84c-1.22-13.79-3.19-20.73-17.43-25.11Z"/>
        <path d="M348.21,445.31l-6.2-5.47c-3.14-2.77-11.81-6.29-15.08-5.97l-6.88.67c-1.29.13-2.45-.46-3.8.04-5.27,1.95-10.04,4.31-13.65,8.57-4.06,4.79-7.38,10.37-7.81,16.77-.46,6.94.07,11.36,4.13,17.01,5.19,7.23,13.51,12.05,22.32,14.13,3.78.89,8.05.18,12.22.42,1.52.09,3.08-.46,4.76-.96,7.41-2.19,14.03-6.65,16.92-13.84.4-.99,1.36-2.94,1.47-3.99.38-3.82.78-8.64-.13-12.33-1.43-5.84-3.97-11.26-8.28-15.06Z"/>
      </g>
    </g>
  </g>
</svg>