<?xml version="1.0" encoding="UTF-8"?>
<svg id="Layer_2" data-name="Layer 2" xmlns="http://www.w3.org/2000/svg" viewBox="0 0 513.77 459.16">
  <defs>
    <style>
      .cls-1 {
        fill: #fff;
      }
    </style>
  </defs>
  <g id="Layer_1-2" data-name="Layer 1">
    <g>
      <path class="cls-1" d="M112.38,192.04c-5.03,2.67-9.54,5.06-13.45,8.8l-10.46,10.01c-.21.2-.88.55-1.14.68-.33.16-.79-1.22-.43-1.68,4.83-6.16,11.54-12.81,18.51-16.82,2.34-1.34,4.63-2.82,6.97-.99Z"/>
      <path class="cls-1" d="M113.31,179.86c-16.18,2.33-31.35,8.89-43.91,19.42-4.76,4-8.46,8.32-12.78,13-.45.48-1.45.89-1.81.63-.36-.25-.36-1.54-.04-1.9l4.61-5.2c5.79-6.53,12.1-11.87,19.67-16.33,9.85-5.81,20.61-9.92,31.89-12.11.5-.1,1.74.15,2.1.37.46.27.44,1.34.27,2.12Z"/>
      <path class="cls-1" d="M115.77,61.93c-25.96,0-47,21.04-47,46.99s21.04,46.99,47,46.99,47-21.04,47-46.99-21.04-46.99-47-46.99ZM116.51,143.8c-18.83,0-34.1-15.26-34.1-34.09s15.27-34.09,34.1-34.09,34.09,15.26,34.09,34.09-15.26,34.09-34.09,34.09Z"/>
      <path class="cls-1" d="M297.5,66.83c-25.97,0-47.02,21.05-47.02,47.01s21.05,47.01,47.02,47.01,47.02-21.04,47.02-47.01-21.05-47.01-47.02-47.01ZM297.98,148.96c-19.56,0-35.43-15.86-35.43-35.42s15.87-35.43,35.43-35.43,35.44,15.86,35.44,35.43-15.87,35.42-35.44,35.42Z"/>
      <path class="cls-1" d="M354.89,216.13c.29.23.71,1.31.54,1.49-.22.25-.87.44-1.31.45-11.5-6.94-21.47-12.31-34.03-14.03-2.23-.31-.99-5.23,14.69.54,7.01,2.57,14.41,7.11,20.11,11.55Z"/>
      <path class="cls-1" d="M326.26,191.17c-4.28.59-8.99,2.08-12.72,3.68-.32.14-1.47.08-1.4-.15.98-3.44,12.96-5.92,16.59-6.36,20.08-2.41,40.18,1.02,58.64,9.13.45.2.96.91.99,1.28.03.36-1.18.86-1.64.7-20.98-7.05-37.62-11.46-60.46-8.28Z"/>
      <g>
        <path d="M513.75,190.44c-.31-5.4-4.05-9.74-8.64-12.39-15.28-8.83-35.7-2.41-50.18,5.67-25.56,14.26-46.81,35.43-61.34,60.81-7.28,12.72-11.12,26.16-12.56,40.59-.93,9.31-1.56,18.12-3.18,27.38-3.01,17.17-10.02,33.08-21.73,46.63-.72-15.04-5.04-32.09-15.13-43.33-4.9-6.44-10.5-11.73-17.01-16.52-4.83-3.56-19.67-15.05-21.26-20.03-1.4-4.39.23-9.5,3.13-13,2.74-3.31,6.68-5.57,10.61-7.34l18.63-8.42c23.89-10.8,50.77-38.73,65.33-61,11.65-17.83,20.99-40.89,20.21-62.34-.75-20.7-8.94-37.34-21.59-53.28,3.03-22.85,4.92-38.48-1.97-60.98-1.18-3.86-3.41-7.1-5.38-10.51-1.13-1.96-2.76-3.05-4.97-1.87-4.23.55-7.89,2.06-11.61,4.29-12.37,7.41-24.04,15.67-34.58,25.68-37.1-17.33-77.19-25.1-117.67-27.69l-11.15-.47c-8.11-.34-15.89-.25-24.12,0-41.24,1.28-83.78,10.64-120.11,31.17l-12.82-8.66c-9.96-6.73-21.28-10.93-33.23-12.58l-13-1.79c-.74.45-1.05,2.12-1.39,3.13C3.32,24.46,1.67,35.44,2.11,47.04c.59,13.58,2.91,28.24,9.77,40.71-15.76,29.45-15.86,64.84-.16,94.54,9.29,17.58,22.6,32.54,38.6,44.35,13.91,10.41,28.38,19.06,44.02,26.48,11.13,5.28,20.92,10.46,24.29,23.09,1.45,5.43,2.5,10.77,3.13,16.37.86,7.66-.38,15.07-.67,22.75-.7,18.48.2,30.77,5.46,48.52,3,10.12,6.4,19.73,10.66,29.32,1.55,3.5,3.64,6.61,5.48,9.97,3.26,5.94,6.98,11.4,11.63,16.33,9.29,9.85,19.57,18.29,31.64,24.4,6.03,3.05,11.48,6.41,17.89,8.52,11.8,3.9,25.52,6.53,38.08,6.75,11.51.2,27.92-2.75,39.1-5.8,12.66-3.46,23.71-9.71,34.71-16.63,12.4-7.8,23.25-16.64,33.57-26.97,8.17-8.17,14.66-16.84,21.36-26.46,5.84-8.37,10.99-16.19,14.83-25.47l3.98-9.61c8.42-20.32,11.1-34.35,14.39-56,1.29-8.5,2.76-16.56,4.81-24.9,3.36-13.71,10.13-27.82,21.37-36.69,17.93-14.16,37.41-17.66,59.35-21.08,4.84-.76,9.42-1.77,13.79-3.77,6.18-2.82,10.95-8.31,10.55-15.35ZM98.93,200.84l-10.46,10.01c-.21.21-.88.56-1.14.68-.33.16-.79-1.22-.43-1.68,4.83-6.16,11.54-12.81,18.51-16.82,2.34-1.34,4.62-2.82,6.96-.99-5.03,2.67-9.53,5.06-13.44,8.8ZM113.31,179.86c-16.18,2.33-31.36,8.9-43.91,19.42-4.76,3.99-8.46,8.31-12.79,13-.44.48-1.45.89-1.81.63-.36-.25-.36-1.55-.04-1.91l4.61-5.2c5.79-6.53,12.1-11.87,19.67-16.33,9.85-5.81,20.62-9.92,31.89-12.11.5-.1,1.74.16,2.11.37.46.27.43,1.34.27,2.12ZM115.77,155.92c-25.96,0-47-21.04-47-46.99s21.04-46.99,47-46.99,47,21.04,47,46.99-21.04,46.99-47,46.99ZM355.43,217.62c-.23.25-.87.44-1.31.45-11.5-6.94-21.48-12.31-34.04-14.03-2.23-.31-.98-5.22,14.7.54,7.01,2.58,14.4,7.11,20.1,11.55.29.23.71,1.3.55,1.49ZM387.37,197.48c.45.2.95.91.99,1.27.03.36-1.17.86-1.64.71-20.98-7.06-37.63-11.47-60.46-8.29-4.28.6-9,2.08-12.72,3.69-.32.14-1.47.08-1.4-.15.98-3.44,12.96-5.92,16.59-6.35,20.08-2.41,40.18,1.02,58.64,9.13ZM250.48,113.85c0-25.96,21.05-47.01,47.02-47.01s47.02,21.05,47.02,47.01-21.05,47.01-47.02,47.01-47.02-21.05-47.02-47.01Z"/>
        <ellipse cx="116.51" cy="109.71" rx="34.1" ry="34.09"/>
        <ellipse cx="297.98" cy="113.54" rx="35.43" ry="35.43" transform="translate(180.99 410.18) rotate(-89.33)"/>
      </g>
    </g>
  </g>
</svg>