<?xml version="1.0" encoding="UTF-8"?>
<svg id="Layer_2" data-name="Layer 2" xmlns="http://www.w3.org/2000/svg" viewBox="0 0 1000 1000">
  <defs>
    <style>
      .cls-1 {
        fill: #fff;
      }
    </style>
  </defs>
  <g id="Layer_1-2" data-name="Layer 1-2">
    <g>
      <path class="cls-1" d="M99.9,574.25c-.41-1.3.41-3.57,1.75-4.11l22.45-9.11c11.69-4.75,23.15-8.65,35.6-10.87,1.4-.25,3.73,2.06,3.87,3.3.16,1.43-1.13,3.64-2.73,4.11l-19.34,5.64-37.3,12.73c-1.7.58-3.98-.63-4.31-1.7h0Z"/>
      <path class="cls-1" d="M175.42,576.56c.61,1.17-.31,3.19-1.62,4.3-9.37,7.83-17.95,15.87-26.73,24.34l-14.7,14.16c-1.99,1.9-5.1,2.02-7.16.63-1.7-1.14-2.94-5-.98-6.99,12.69-12.86,25.72-24.67,39.9-35.84,2-1.56,5.63-3.08,7.73-3.41,1.07-.18,3.08,1.89,3.57,2.81h0Z"/>
      <path class="cls-1" d="M273.48,497.39c-31.89,0-57.75,25.84-57.75,57.73s25.86,57.75,57.75,57.75,57.75-25.86,57.75-57.75-25.86-57.73-57.75-57.73h0ZM272.97,601.29c-25.24,0-45.72-20.46-45.72-45.7s20.48-45.7,45.72-45.7,45.72,20.46,45.72,45.7-20.48,45.7-45.72,45.7Z"/>
      <path class="cls-1" d="M508.56,494.83c-34.23,0-61.99,27.74-61.99,61.97s27.76,61.97,61.99,61.97,61.99-27.74,61.99-61.97-27.76-61.97-61.99-61.97h0ZM508.7,603.85c-26.4,0-47.78-21.4-47.78-47.78s21.38-47.78,47.78-47.78,47.79,21.38,47.79,47.78-21.4,47.78-47.79,47.78Z"/>
      <path class="cls-1" d="M704.67,568.73c-.06.77-1.11,2.21-1.86,2.67-2.78,1.72-5.7-.22-8.45-.57l-10.57-1.32-13.46-1.7-16.25-.64c-2.67-.1-6.09-3.1-4.38-5.95,5.39-9.05,44.04,1.96,52.97,4.72.76.23,2.08,2,2,2.78h0Z"/>
      <path class="cls-1" d="M721.93,532.77c.48.54.22,2.62-.32,3.11-2.1,1.9-14.72.45-21.59,2.4-8.83,0-16.84.89-25.24,1.53l-11.63.89c-3.76.29-15,2.54-16.18-3.46-.31-1.59,1.37-4,3.45-4.3,5.83-.82,11.8-2.32,17.79-2.34l48.99-.16c1.33-.01,3.92,1.36,4.74,2.32Z"/>
      <g>
        <path d="M916.25,492.48l-1.49-12.42c-.29-2.41-.95-5.38-1.53-7.79-6.91-28.66-24.01-52.05-41.16-75.58-11.99-16.44-23.59-32.42-33.87-50-8.48-14.48-14-29.57-16.85-45.84l-1.55-8.8-.7-8.42c-.29-3.57-1.29-6.75-1.18-10.39.23-8-.98-15.42-1.23-23.34l-.58-19.44c-.13-4.21-1.39-8.29-2.16-12.32-1.83-9.44-6.27-17.61-12.86-24.39-7.12-7.32-15.43-13.17-25.33-15.58-11.28-2.76-21.06,3.41-25.27,13.87-3.7,9.18-4.05,18.65-4.53,28.62-.25,5.04-2.08,10.06-1.74,15.35.41,6.72-.67,13.61.51,20.14l2,11.06,1.56,7.83c3.2,15.98,9.12,30.91,16.53,45.35l4.3,8.36c7.19,14,14.76,27.35,23.88,40.28,6.88,9.76,12.79,19.21,18.74,29.6l26.54,46.33c4.87,8.49,8.16,17.19,10.13,26.65l1.99,9.56,1.4,8.96c1.02,6.53-.23,21.38-1.53,27.93-2.6,13.13-6.94,25.49-14.85,36.34-13.24,18.18-41.66,33.46-61.07,45.54-2.09,1.3-3.89,4.31-6.55,3.35-3.98-1.45-2.72-5.06-2.62-8.11.34-11.11-1.15-21.68-3.29-32.83-5.5-28.82-15-56.26-27.35-82.9-6.4-13.81-18.26-34.35-29.47-44.29l-.85-4.41c-1.83-2.67-1.24-5.47-1.29-8.65-.04-3.92-.23-8.3-.66-12.28l-1.46-13.96c-.45-4.37-.69-9.15-1.67-13.32-5.35-22.82-13.4-43.92-24.75-64.4-7.24-13.04-15.87-24.69-24.75-36.45-2.1-2.79-4.85-2.98-7.92-2.16-10.47,2.79-19.7,7.67-28.28,14.1l-14.21,10.66c-6.49,4.87-13.32,11.63-19.06,17.52-17.82,18.28-22.41,29.48-33.95,51.38-5.55,3.6-3.51,3.6-10.38,6.43-4.85-.29-9.53-1.18-13.52-3.61-3.54-2.15-7.81-2.41-11.52-4.03-16.81-7.37-33.4-14.48-51.48-18.36l-5.28-1.13-9.41-1.55-13.51-1.9c-13.97-1.97-34.29-3.01-48.06-1.72l-10.01.94c-6.11.57-11.62,1.49-17.7,1.99l-8.52.69-11.04,1.49c-10.73,1.45-21.21,6.49-31.38,11.33l-20.81,9.91c-1.36.64-2.72,2.97-4.38,2.59-1.37-.32-3.3-1.58-4.05-2.95-7.29-13.33-21.73-31.92-31.92-43.22-12.41-13.78-30.58-25.04-48.07-31.09-8.43-2.91-16.03-6.9-25.33-7.51-2.66.42-4.69,4.12-6.05,6.39l-15.99,26.31c-2.25,3.71-4.17,7.69-5.73,11.75l-12.15,31.7c-4.6,12.03-6.87,24.12-8.65,36.79l-1.18,8.39c-.18,1.27-1.14,3.76-1.15,5.04l-.26,40.44c-.01,2.34-.76,4.6-.12,6.43.92,2.6-.48,3.62-1.61,5.39-12.83,20.39-25.78,52.18-29.07,76.08l-1.53,11.11-1.48,14.67c-1.81,17.92-3.3,47.59,1.61,64.43,7.85,26.86,17.17,43.4,38.76,61.39,9.3,7.75,18.83,13.65,30.37,17.17l13.55,4.14c12.04,3.68,23.66,6.94,35.75,10.07l19.23,4.97c.75,6.23.92,12.29,2,18.31,3.79,20.99,12.89,44.96,27.96,60.44,4.47,4.6,9.81,7.97,16.47,9.24,10.49,2,21.5-3.87,26.85-13.21l10.33-18.02,6.28-12.04c5.12-9.82,10.42-19.82,19.79-26.16,3.61-2.44,7.51-5.35,11.65-6.39,2.31-.58,5.67-1.56,7.95-1.59l50.95-.66c5.48-.07,10.6-1.55,16.17-1.23,5.77.34,11.2-.95,16.94-1.17l17.76-.64c7.1-.26,13.65-1.93,20.89-1.67,3.76-.56,7.75-1.43,11.56-1.43l30.75-.04c1.77,23.23,15.24,67.03,42.27,70.6,8.9,1.17,19.34-1.55,24.2-9.18,7.35-11.53,14.72-22.06,22.51-33.15l16.3-23.21c3.2-4.56,9.21-8.02,14.4-9.43l13.27-3.62c2.21-.6,5.04-.99,7.19-1.74,7.63-2.63,15.13-3.92,22.87-6.37l23.2-7.34c18.12-5.73,35.97-9.94,53.67-17.19,27.86-11.4,54.36-25.24,77.32-44.59l10.76-9.06c10.29-8.67,19.41-17.83,28.03-28.21,16.22-19.53,30.23-40.5,36.17-65.57l1.97-8.3c.61-2.57,2.69-14.54,2.53-16.94-.23-3.64.89-6.85,1.15-10.28.56-7.15.8-14.7-.04-21.76v-.03ZM104.19,575.95c-1.7.58-3.98-.63-4.31-1.7-.41-1.29.42-3.57,1.75-4.11l22.44-9.11c11.69-4.75,23.15-8.65,35.6-10.87,1.4-.25,3.74,2.06,3.87,3.3.16,1.43-1.13,3.64-2.73,4.11l-19.34,5.66-37.32,12.72h.03ZM173.78,580.86c-9.35,7.83-17.95,15.89-26.73,24.34l-14.7,14.16c-1.97,1.9-5.1,2.02-7.15.63-1.7-1.14-2.94-5-.98-6.99,12.69-12.88,25.72-24.67,39.9-35.84,1.99-1.56,5.63-3.08,7.72-3.41,1.08-.18,3.08,1.9,3.58,2.82.61,1.15-.31,3.17-1.62,4.28h-.01ZM273.48,612.87c-31.89,0-57.75-25.86-57.75-57.75s25.86-57.75,57.75-57.75,57.75,25.86,57.75,57.75-25.86,57.75-57.75,57.75ZM508.55,618.77c-34.23,0-61.99-27.74-61.99-61.97s27.76-61.97,61.99-61.97,61.99,27.74,61.99,61.97-27.76,61.97-61.99,61.97ZM702.8,571.4c-2.76,1.72-5.7-.22-8.45-.57l-10.57-1.33-13.46-1.7-16.25-.64c-2.67-.1-6.08-3.1-4.38-5.95,5.39-9.06,44.04,1.94,52.97,4.71.77.23,2.09,2.02,2.02,2.79s-1.13,2.21-1.87,2.67h0ZM721.59,535.89c-2.09,1.9-14.72.45-21.59,2.41-8.83-.03-16.84.88-25.24,1.52l-11.63.89c-3.77.29-15.01,2.54-16.18-3.46-.31-1.61,1.36-4,3.43-4.3,5.85-.82,11.8-2.32,17.79-2.34l48.99-.16c1.33,0,3.92,1.36,4.74,2.32.47.56.2,2.63-.32,3.11h.01Z"/>
        <ellipse cx="508.7" cy="556.07" rx="47.79" ry="47.78"/>
        <ellipse cx="272.94" cy="555.59" rx="45.72" ry="45.7" transform="translate(-3.68 1.82) rotate(-.38)"/>
      </g>
    </g>
  </g>
</svg>