<?xml version="1.0" encoding="UTF-8"?>
<svg id="Layer_2" data-name="Layer 2" xmlns="http://www.w3.org/2000/svg" viewBox="0 0 570.33 441.29">
  <defs>
    <style>
      .cls-1 {
        fill: #fff;
      }
    </style>
  </defs>
  <g id="Layer_1-2" data-name="Layer 1">
    <g>
      <path class="cls-1" d="M11.42,271.45c-.28-.89.28-2.44,1.2-2.81l15.36-6.23c8-3.25,15.84-5.92,24.36-7.44.96-.17,2.55,1.41,2.65,2.26.11.98-.77,2.49-1.87,2.81l-13.23,3.86-25.52,8.71c-1.16.4-2.72-.43-2.95-1.16Z"/>
      <path class="cls-1" d="M63.09,273.03c.42.8-.21,2.18-1.11,2.94-6.41,5.36-12.28,10.86-18.29,16.65l-10.06,9.69c-1.36,1.3-3.49,1.38-4.9.43-1.16-.78-2.01-3.42-.67-4.78,8.68-8.8,17.6-16.88,27.3-24.52,1.37-1.07,3.85-2.11,5.29-2.33.73-.12,2.11,1.29,2.44,1.92Z"/>
      <path class="cls-1" d="M130.18,218.86c-21.82,0-39.51,17.68-39.51,39.5s17.69,39.51,39.51,39.51,39.51-17.69,39.51-39.51-17.69-39.5-39.51-39.5ZM129.83,289.95c-17.27,0-31.28-14-31.28-31.27s14.01-31.27,31.28-31.27,31.28,14,31.28,31.27-14.01,31.27-31.28,31.27Z"/>
      <path class="cls-1" d="M291.02,217.11c-23.42,0-42.41,18.98-42.41,42.4s18.99,42.4,42.41,42.4,42.41-18.98,42.41-42.4-18.99-42.4-42.41-42.4ZM291.11,291.7c-18.06,0-32.69-14.64-32.69-32.69s14.63-32.69,32.69-32.69,32.7,14.63,32.7,32.69-14.64,32.69-32.7,32.69Z"/>
      <path class="cls-1" d="M425.19,267.67c-.04.53-.76,1.51-1.27,1.83-1.9,1.18-3.9-.15-5.78-.39l-7.23-.9-9.21-1.16-11.12-.44c-1.83-.07-4.17-2.12-3-4.07,3.69-6.19,30.13,1.34,36.24,3.23.52.16,1.42,1.37,1.37,1.9Z"/>
      <path class="cls-1" d="M437,243.07c.33.37.15,1.79-.22,2.13-1.44,1.3-10.07.31-14.77,1.64-6.04,0-11.52.61-17.27,1.05l-7.96.61c-2.57.2-10.26,1.74-11.07-2.37-.21-1.09.94-2.74,2.36-2.94,3.99-.56,8.07-1.59,12.17-1.6l33.52-.11c.91-.01,2.68.93,3.24,1.59Z"/>
      <g>
        <path d="M569.95,215.5l-1.02-8.5c-.2-1.65-.65-3.68-1.05-5.33-4.73-19.61-16.43-35.61-28.16-51.71-8.2-11.25-16.14-22.18-23.17-34.21-5.8-9.91-9.58-20.23-11.53-31.36l-1.06-6.02-.48-5.76c-.2-2.44-.88-4.62-.81-7.11.16-5.47-.67-10.55-.84-15.97l-.4-13.3c-.09-2.88-.95-5.67-1.48-8.43-1.25-6.46-4.29-12.05-8.8-16.69-4.87-5.01-10.56-9.01-17.33-10.66-7.72-1.89-14.41,2.33-17.29,9.49-2.53,6.28-2.77,12.76-3.1,19.58-.17,3.45-1.42,6.88-1.19,10.5.28,4.6-.46,9.31.35,13.78l1.37,7.57,1.07,5.36c2.19,10.93,6.24,21.15,11.31,31.03l2.94,5.72c4.92,9.58,10.1,18.71,16.34,27.56,4.71,6.68,8.75,13.14,12.82,20.25l18.16,31.7c3.33,5.81,5.58,11.76,6.93,18.23l1.36,6.54.96,6.13c.7,4.47-.16,14.63-1.05,19.11-1.78,8.98-4.75,17.44-10.16,24.86-9.06,12.44-28.5,22.89-41.78,31.16-1.43.89-2.66,2.95-4.48,2.29-2.72-.99-1.86-3.46-1.79-5.55.23-7.6-.79-14.83-2.25-22.46-3.76-19.72-10.26-38.49-18.71-56.72-4.38-9.45-12.49-23.5-20.16-30.3l-.58-3.02c-1.25-1.83-.85-3.74-.88-5.92-.03-2.68-.16-5.68-.45-8.4l-1-9.55c-.31-2.99-.47-6.26-1.14-9.11-3.66-15.61-9.17-30.05-16.93-44.06-4.95-8.92-10.86-16.89-16.93-24.94-1.44-1.91-3.32-2.04-5.42-1.48-7.16,1.91-13.48,5.25-19.35,9.65l-9.72,7.29c-4.44,3.33-9.11,7.96-13.04,11.99-12.19,12.51-15.33,20.17-23.23,35.15-3.8,2.46-2.4,2.46-7.1,4.4-3.32-.2-6.52-.81-9.25-2.47-2.42-1.47-5.34-1.65-7.88-2.76-11.5-5.04-22.85-9.91-35.22-12.56l-3.61-.77-6.44-1.06-9.24-1.3c-9.56-1.35-23.46-2.06-32.88-1.18l-6.85.64c-4.18.39-7.95,1.02-12.11,1.36l-5.83.47-7.55,1.02c-7.34.99-14.51,4.44-21.47,7.75l-14.24,6.78c-.93.44-1.86,2.03-3,1.77-.94-.22-2.26-1.08-2.77-2.02-4.99-9.12-14.87-21.84-21.84-29.57-8.49-9.43-20.92-17.13-32.89-21.27-5.77-1.99-10.97-4.72-17.33-5.14-1.82.29-3.21,2.82-4.14,4.37l-10.94,18c-1.54,2.54-2.85,5.26-3.92,8.04l-8.31,21.69c-3.15,8.23-4.7,16.5-5.92,25.17l-.81,5.74c-.12.87-.78,2.57-.79,3.45l-.18,27.67c-.01,1.6-.52,3.15-.08,4.4.63,1.78-.33,2.48-1.1,3.69-8.78,13.95-17.64,35.7-19.89,52.05l-1.05,7.6-1.01,10.04c-1.24,12.26-2.26,32.56,1.1,44.08,5.37,18.38,11.75,29.69,26.52,42,6.36,5.3,12.88,9.34,20.78,11.75l9.27,2.83c8.24,2.52,16.19,4.75,24.46,6.89l13.16,3.4c.51,4.26.63,8.41,1.37,12.53,2.59,14.36,8.82,30.76,19.13,41.35,3.06,3.15,6.71,5.45,11.27,6.32,7.18,1.37,14.71-2.65,18.37-9.04l7.07-12.33,4.3-8.24c3.5-6.72,7.13-13.56,13.54-17.9,2.47-1.67,5.14-3.66,7.97-4.37,1.58-.4,3.88-1.07,5.44-1.09l34.86-.45c3.75-.05,7.25-1.06,11.06-.84,3.95.23,7.66-.65,11.59-.8l12.15-.44c4.86-.18,9.34-1.32,14.29-1.14,2.57-.38,5.3-.98,7.91-.98l21.04-.03c1.21,15.89,10.43,45.86,28.92,48.3,6.09.8,13.23-1.06,16.56-6.28,5.03-7.89,10.07-15.09,15.4-22.68l11.15-15.88c2.19-3.12,6.3-5.49,9.85-6.45l9.08-2.48c1.51-.41,3.45-.68,4.92-1.19,5.22-1.8,10.35-2.68,15.65-4.36l15.87-5.02c12.4-3.92,24.61-6.8,36.72-11.76,19.06-7.8,37.19-17.27,52.9-30.51l7.36-6.2c7.04-5.93,13.28-12.2,19.18-19.3,11.1-13.36,20.68-27.71,24.75-44.86l1.35-5.68c.42-1.76,1.84-9.95,1.73-11.59-.16-2.49.61-4.69.79-7.03.38-4.89.55-10.06-.03-14.89ZM14.36,272.61c-1.16.4-2.72-.43-2.95-1.16-.28-.88.29-2.44,1.2-2.81l15.35-6.23c8-3.25,15.84-5.92,24.36-7.44.96-.17,2.56,1.41,2.65,2.26.11.98-.77,2.49-1.87,2.81l-13.23,3.87-25.53,8.7ZM61.97,275.97c-6.4,5.36-12.28,10.87-18.29,16.65l-10.06,9.69c-1.35,1.3-3.49,1.38-4.89.43-1.16-.78-2.01-3.42-.67-4.78,8.68-8.81,17.6-16.88,27.3-24.52,1.36-1.07,3.85-2.11,5.28-2.33.74-.12,2.11,1.3,2.45,1.93.42.79-.21,2.17-1.11,2.93ZM130.18,297.87c-21.82,0-39.51-17.69-39.51-39.51s17.69-39.51,39.51-39.51,39.51,17.69,39.51,39.51-17.69,39.51-39.51,39.51ZM291.01,301.91c-23.42,0-42.41-18.98-42.41-42.4s18.99-42.4,42.41-42.4,42.41,18.98,42.41,42.4-18.99,42.4-42.41,42.4ZM423.91,269.5c-1.89,1.18-3.9-.15-5.78-.39l-7.23-.91-9.21-1.16-11.12-.44c-1.83-.07-4.16-2.12-3-4.07,3.69-6.2,30.13,1.33,36.24,3.22.53.16,1.43,1.38,1.38,1.91-.05.53-.77,1.51-1.28,1.83ZM436.77,245.2c-1.43,1.3-10.07.31-14.77,1.65-6.04-.02-11.52.6-17.27,1.04l-7.96.61c-2.58.2-10.27,1.74-11.07-2.37-.21-1.1.93-2.74,2.35-2.94,4-.56,8.07-1.59,12.17-1.6l33.52-.11c.91,0,2.68.93,3.24,1.59.32.38.14,1.8-.22,2.13Z"/>
        <ellipse cx="291.11" cy="259.01" rx="32.7" ry="32.69"/>
        <ellipse cx="129.82" cy="258.68" rx="31.28" ry="31.27" transform="translate(-1.72 .87) rotate(-.38)"/>
      </g>
    </g>
  </g>
</svg>