<?xml version="1.0" encoding="UTF-8"?>
<svg id="Layer_2" data-name="Layer 2" xmlns="http://www.w3.org/2000/svg" viewBox="0 0 1000 1000">
  <defs>
    <style>
      .cls-1 {
        fill: #fff;
      }
    </style>
  </defs>
  <g id="Layer_1-2" data-name="Layer 1-2">
    <g>
      <path class="cls-1" d="M278.72,652.14c-4.89-7.03,2.01-14.22,7.53-17.57,8.03-4.86,16.6-8.01,25.68-10.32l6.44-1.62,8.2-1.85,9.42-1.92,10.13-1.85,14.52-2.05c8.01-1.13,11.19-1.76,18.97.01,2.77.64,6.76,1.36,7.03,5.08.16,2.33-3.1,3.43-5.08,3.26-4.77-.41-8.64.32-13.1,1.53-1.68.45-4.18.49-6,.8l-12.13,2.01-12.49,2-3.66.73-10.01,1.82-8.88,1.88-7.45,1.86-6.76,1.89c-3.1.88-21.46,7.29-15.35,11.9,5.44,4.1,11.71,5.79,18.12,7.59l6.11,1.73,7.47,1.94c2.73.71,5.22,1.08,8.08,1.8l5.46,1.36,6.71,1.34,9.66,1.92,9.72,2.04c3.21.67,7.11.36,9.25,3.55.65.99.64,3.41.11,4.53-1.97,4.1-8.45,1.36-11.66.52l-6.79-1.77-7.47-1.93-7.31-1.89-8.05-2.05-6.47-1.61-7.25-1.86-6.84-1.92-6.6-1.96-5.68-1.84c-5.4-1.74-10.4-4.53-13.56-9.09h0Z"/>
      <path class="cls-1" d="M388.89,743.54c1.26.57,2.64,2.69,2.53,3.78-.16,1.52-1.77,2.86-3.37,3.69l-41.85,21.7c-2.86,1.48-6.87-.69-7.68-2.9-1-2.72-.41-6.44,2.6-8.07,12.05-6.51,24.35-12.43,37.34-17.12,3.51-1.26,7.13-2.6,10.44-1.08h0Z"/>
      <path class="cls-1" d="M397.65,761.46c.49.61,1.17,1.74,1.13,2.38-.04.63-.89,2.02-1.52,2.44l-14.51,9.64-22.47,14.34c-2.24,1.42-4.73,1.88-6.19-.15-1.57-2.18-1.61-4.65.83-6.5l13.19-9.97c6.86-5.19,14.08-9.61,22.07-12.73,2.36-1.81,5.4-1.98,7.47.55h0Z"/>
      <path class="cls-1" d="M553.72,748.81c-.76-2.77-3.02-5.55-4.18-8.2-4.07-9.3-10.44-16.24-18.54-22.18-4.9-3.59-9.58-7.97-15.88-9.1-7.6-1.37-16.65-.69-24.11,1.37-16.35,4.51-29.51,16.53-34.88,32.65-3.3,9.94-3.85,21.15.24,31.22,5.79,14.27,18.08,25.27,32.47,30.74,18.94,7.23,43.57,4.69,57.66-11.7,10.06-11.7,11.23-30.26,7.21-44.79ZM546.03,773.96c-.15,1.4-1.42,3.99-1.96,5.31-3.85,9.58-12.67,15.51-22.52,18.42-2.25.67-4.31,1.4-6.35,1.28-5.55-.32-11.23.63-16.27-.57-11.71-2.76-22.8-9.18-29.7-18.8-5.4-7.52-6.11-13.42-5.5-22.64.56-8.53,4.98-15.96,10.4-22.34,4.81-5.67,11.15-8.81,18.17-11.41,1.8-.67,3.34.11,5.06-.07l9.16-.89c4.34-.41,15.88,4.26,20.06,7.96l8.25,7.27c5.74,5.07,9.12,12.27,11.02,20.06,1.2,4.91.68,11.33.17,16.41h0Z"/>
      <path class="cls-1" d="M784.28,737.34c-2.7-4.3-5.12-8.4-8.21-12.47-1.53-2.02-5.23-3.14-7.36-4.43-5.83-3.55-11.93-5.28-18.76-5.52-5.46-.2-11.21-1.33-16.55.27-4.85,1.44-9.32,3.33-13.96,5.3-3.9,1.65-7.28,4.05-10.96,6.32-13.58,8.44-20.54,27.58-15.44,42.62,3.91,11.54,11.93,20.5,22.27,26.82,8.2,5.02,23.14,10.49,32.57,10.28,11.91-.27,23-4.62,31.44-12.93,4.98-4.91,8.39-11.37,10.64-17.85,1.09-3.17,1.26-6.28,1.6-9.45,1.13-10.68-1.72-20.03-7.28-28.95h0ZM774.92,764.03c-.55,2.73-.76,4.79-1.53,6.99-4.49,12.85-11.61,19.73-25.92,20.59-10.56.65-19.94-2.13-28.21-8.53-10.92-8.45-20.21-18.72-13.87-33.65,5.36-12.67,17.24-21.83,30.98-24.68,3.86-.81,8.21-.31,12.42-.36.97,0,2.92.79,3.94,1.1,18.96,5.83,21.58,15.07,23.2,33.42l-1.01,5.11h0Z"/>
      <path class="cls-1" d="M829.15,744.92c-1.24-.01-2.92-3.31-2.25-4.37.89-1.41,3.86-3.41,5.59-3.42l22.66-.13c3.9,0,7.64.92,11.49,1.77,1.72.39,4.54.16,6.04.65,10.26,3.38,8.69-.44,12.49,5.78-4.01,5.88-9.85,2.17-14.07,1.98-6.91-.32-13.36-.21-19.99-2.16l-21.95-.11h0Z"/>
      <path class="cls-1" d="M881.52,763.12c3.11.85,6.66,2.16,7.39,6.08.36,1.9-1.89,4.58-3.46,5.38-1.97,1-5.07-.12-7.24-.89l-6.27-2.21-13.23-4.38-6.56-1.98c-7.08-2.16-10.01-1.06-10.85-4.61-.32-1.33,1.33-3.97,3.07-4.35,4.79-1.06,9.65-.05,14.4,1.06l9.09,2.13,13.66,3.77Z"/>
      <g>
        <path d="M927.97,660.64c-1.86-4.66-6.38-7.53-10.69-9.92-17.74-9.8-36.1-17.7-55.51-23.45-2.08-.61-4.22-1.24-6.18-1.66l-8.65-1.88-9.44-1.92-9.98-2.02-8.53-1.54-11.15-1.93-13.27-2.13-6.54-.75c-.95-3.22-1.58-6.34-3.22-8.85l-6.34-9.68c-5.36-8.2-9.36-16.95-15.1-24.93-5.06-7.04-11.74-11.98-17.72-18.18-12.85-13.31-27.08-24.2-43.94-31.92-5.02-2.3-9.68-4.66-14.94-6.44l-32.16-10.96-30.44-11.45c-12.59-4.74-24.65-8.87-37.18-14.08-26.52-11.05-53.34-19.49-80.44-28.7l-20.41-6.94c-13.5-4.59-25.29-11.94-36.87-20.3-8.47-6.11-15.69-13.39-21.98-21.72-5.01-6.63-9.62-13.14-13.27-20.59-9.88-20.19-6.07-49.21-.21-70.34,2.92-10.49,8.09-19.43,14.23-28.29,5.52-7.96,10.62-15.67,16.75-23.16,12.33-15.1,28.67-22.34,47.11-27.43l20.81-5.76c22.71-6.28,45.33-16,58.57-36.57,3.61-5.59,4.63-12.77,1.52-18.62-3.38-6.35-9.01-10.62-15.23-14.1-36.81-20.51-93.53-4.61-129.68,11.73-13.01,5.87-24.71,13.07-35.32,22.56-10.18,9.1-19.58,18.46-27.34,29.74-10.36,15.03-18.84,34-21.22,52.21-.6,4.55-1.58,9.04-1.58,13.76l.08,73.73c0,8.25.76,16.03.09,24.19-1.37,16.95-11.14,31.89-21.88,44.53-3.77,4.45-7.59,8.77-12.37,12.27-11.18,8.2-22.3,15.97-34.72,22.3l-35.33,18.02c-13.05,6.66-25.65,13.13-37.72,21.38l-26.21,17.88c-17.08,11.65-32.24,24.88-47.11,39.35-16.64,16.19-31.31,33.76-43.33,53.62-9.3,15.37-14.3,30.59-12.07,48.37,1.3,10.42,5.99,18.72,13.7,25.73,13.9,12.66,29.92,22.27,47.22,29.71l17.3,7.44,21.3,9.48c18.77,8.35,47.22,17.6,67.78,20.06,12.73,1.52,25.03,2,37.87,2.09,8.96.07,12.98-.52,21.71-.03-6.12,11.18-5.92,22.52-.59,33.03,3.5,6.91,7.03,13.39,12.07,19.37,13.22,15.68,34.18,21.66,53.75,24.76l9.34,1.48,12.82,1.85c7.55,1.09,14.87,1.58,22.39,2.16l12.87.97,21.94,2.02,17.26,2.05,14.02,1.92,14.67,2.05,17.74,2.3,11.89,1.29,13.58,1.41,12.54.76,9.44.65,10.52.64,15.96.76,7.47.56c3.74.28,7.47.75,11.3.73l88.69-.16,23.65-.71,13.63-.61c22.74-1.03,45.76-4.33,67.94-9.97,8.44-2.14,16.15-5.14,24.17-8.55l33.04-14.04c15.93-6.78,31-14.54,44.29-25.53,11.61-9.6,15.71-26.37,14.27-40.35l-1.48-14.39-1.2-8.36c-1.73-12.01-5.88-24.27-12.65-34.37-.41-.61-.35-2.45.08-2.93,9.07-2.64,18.25-8.2,25.49-14.78,4.98-4.53,11.01-13.18,8.33-19.93h-.03ZM325.15,670.42l-6.47-1.6-7.25-1.88-6.84-1.92-6.6-1.96-5.68-1.84c-5.4-1.74-10.4-4.53-13.58-9.09-4.87-7.03,2.02-14.22,7.55-17.57,8.03-4.86,16.6-8.01,25.68-10.32l6.44-1.64,8.19-1.85,9.44-1.92,10.13-1.86,14.51-2.05c8.01-1.13,11.21-1.76,18.97.01,2.78.64,6.78,1.36,7.03,5.08.16,2.34-3.1,3.43-5.08,3.26-4.77-.41-8.63.32-13.1,1.53-1.68.45-4.18.49-5.99.8l-12.13,2.01-12.49,2-3.66.72-10.01,1.82-8.88,1.88-7.45,1.86-6.76,1.9c-3.1.87-21.46,7.29-15.35,11.9,5.44,4.1,11.71,5.79,18.1,7.59l6.12,1.72,7.45,1.94c2.74.72,5.22,1.08,8.08,1.8l5.46,1.37,6.71,1.33,9.66,1.93,9.72,2.04c3.21.67,7.11.37,9.25,3.55.67.99.65,3.41.11,4.53-1.97,4.1-8.45,1.37-11.66.53l-6.79-1.77-7.47-1.94-7.31-1.89-8.05-2.05v.03ZM338.52,769.8c-1-2.72-.41-6.44,2.6-8.07,12.05-6.5,24.35-12.43,37.34-17.12,3.5-1.26,7.13-2.6,10.44-1.08,1.26.57,2.64,2.69,2.53,3.79-.16,1.52-1.77,2.86-3.35,3.69l-41.85,21.68c-2.86,1.49-6.87-.68-7.68-2.89h-.01ZM397.26,766.28l-14.51,9.64-22.47,14.34c-2.24,1.42-4.73,1.89-6.19-.15-1.57-2.18-1.61-4.65.83-6.5l13.18-9.97c6.87-5.19,14.08-9.6,22.07-12.73,2.36-1.81,5.4-1.98,7.47.55.49.61,1.17,1.74,1.13,2.37-.04.64-.89,2.02-1.52,2.44h.01ZM546.52,793.6c-14.11,16.4-38.72,18.93-57.66,11.71-14.39-5.48-26.68-16.48-32.47-30.75-4.09-10.06-3.54-21.27-.24-31.22,5.36-16.12,18.52-28.15,34.88-32.67,7.45-2.06,16.51-2.73,24.11-1.36,6.3,1.13,10.98,5.51,15.88,9.09,8.11,5.95,14.47,12.87,18.54,22.19,1.16,2.65,3.42,5.42,4.18,8.2,4.02,14.55,2.85,33.09-7.21,44.79h0ZM791.56,766.29c-.33,3.17-.49,6.28-1.6,9.44-2.25,6.48-5.66,12.95-10.64,17.85-8.44,8.31-19.53,12.67-31.45,12.94-9.42.21-24.36-5.26-32.57-10.28-10.33-6.32-18.36-15.28-22.27-26.82-5.1-15.04,1.86-34.2,15.44-42.62,3.67-2.28,7.07-4.67,10.97-6.32,4.65-1.97,9.1-3.86,13.96-5.3,5.34-1.6,11.09-.45,16.55-.27,6.83.24,12.93,1.97,18.76,5.52,2.13,1.29,5.83,2.41,7.36,4.43,3.07,4.07,5.51,8.17,8.21,12.49,5.56,8.91,8.43,18.28,7.28,28.95h0ZM826.91,740.56c.89-1.41,3.86-3.41,5.59-3.42l22.67-.13c3.9-.03,7.64.91,11.47,1.77,1.73.39,4.54.16,6.04.65,10.26,3.38,8.69-.44,12.49,5.76-4.01,5.88-9.85,2.18-14.07,1.98-6.9-.32-13.36-.21-19.99-2.16l-21.94-.11c-1.24,0-2.92-3.31-2.25-4.37h-.01ZM885.46,774.57c-1.97,1-5.08-.12-7.25-.88l-6.27-2.21-13.22-4.38-6.56-2c-7.08-2.16-10.01-1.05-10.85-4.61-.32-1.32,1.33-3.97,3.07-4.35,4.81-1.06,9.65-.05,14.4,1.06l9.09,2.13,13.67,3.77c3.11.85,6.66,2.16,7.39,6.08.36,1.9-1.89,4.58-3.46,5.36h-.01Z"/>
        <path d="M752.73,725.49c-1.02-.32-2.97-1.12-3.94-1.1-4.19.05-8.55-.45-12.42.35-13.74,2.86-25.61,12.02-30.98,24.69-6.34,14.94,2.96,25.2,13.87,33.65,8.27,6.4,17.65,9.18,28.21,8.53,14.31-.88,21.43-7.76,25.93-20.61.77-2.2.99-4.26,1.53-6.98l1.01-5.11c-1.62-18.36-4.25-27.59-23.2-33.42h-.01Z"/>
        <path d="M534.84,737.48l-8.25-7.28c-4.18-3.69-15.72-8.37-20.07-7.95l-9.16.89c-1.72.17-3.26-.61-5.06.05-7.02,2.6-13.36,5.74-18.17,11.41-5.4,6.38-9.82,13.8-10.4,22.32-.61,9.24.09,15.12,5.5,22.64,6.91,9.62,17.98,16.04,29.71,18.81,5.03,1.18,10.72.24,16.27.56,2.02.12,4.1-.61,6.34-1.28,9.86-2.92,18.68-8.85,22.52-18.42.53-1.32,1.81-3.91,1.96-5.31.51-5.08,1.04-11.5-.17-16.41-1.9-7.77-5.28-14.99-11.02-20.05h.01Z"/>
      </g>
    </g>
  </g>
</svg>