<?xml version="1.0" encoding="UTF-8"?>
<svg id="Layer_2" data-name="Layer 2" xmlns="http://www.w3.org/2000/svg" viewBox="0 0 341.41 676.7">
  <defs>
    <style>
      .cls-1 {
        fill: #fff;
      }
    </style>
  </defs>
  <g id="Layer_1-2" data-name="Layer 1">
    <g>
      <path class="cls-1" d="M31.32,372.46c-.17.35-.92,1.03-1.06.76-.98-2,8.25-22.84,14.39-21.12-7.18,5.42-9.76,12.64-13.33,20.36Z"/>
      <path class="cls-1" d="M52.32,357.6c-2.27,2.9-4.46,5.19-5.54,8.45-2.06,6.18-3.2,12.16-4.48,18.9-.06.33-.49.96-.64,1.14-.19.24-1.01-.79-.96-1.14.91-5.53,3.87-26.57,11.62-27.35Z"/>
      <path class="cls-1" d="M75.8,301.96c-12.87,0-23.31,10.44-23.31,23.31s10.44,23.31,23.31,23.31,23.31-10.44,23.31-23.31-10.44-23.31-23.31-23.31ZM76.3,341.73c-9.19,0-16.64-7.45-16.64-16.64s7.45-16.64,16.64-16.64,16.64,7.45,16.64,16.64-7.45,16.64-16.64,16.64Z"/>
      <path class="cls-1" d="M150.41,282.23c-12.98,0-23.51,10.52-23.51,23.5s10.53,23.51,23.51,23.51,23.51-10.53,23.51-23.51-10.53-23.5-23.51-23.5ZM151.21,321.95c-8.99,0-16.27-7.28-16.27-16.26s7.28-16.27,16.27-16.27,16.27,7.28,16.27,16.27-7.29,16.26-16.27,16.26Z"/>
      <path class="cls-1" d="M192.02,312.68c-1.46.21-1.06-3.24,10.34-1.46,5.87,2.09,12.19,2.65,17.34,7.2-8.83-2.25-18.28-7.09-27.68-5.74Z"/>
      <path class="cls-1" d="M216.19,332.19c-.01.29-1.08.25-1.34.04l-6.49-5.42c-4-3.34-8.22-5.48-13.01-7.83,3.83-2.43,20.97,10.57,20.84,13.21Z"/>
      <g>
        <path d="M332.91,441.18l-14.08-23.49c-4.47-7.46-9.03-14.6-12.2-22.72-2.9-7.43-4.16-15.08-6.13-22.77-2.38-9.3-5.27-24.29-13.42-29.64-3.51-2.3-7.67-2.39-10.83.63-5.69,5.44-9.55,13.38-8.74,21.51.72,7.28,2.88,14.1,5.62,20.82l8.53,20.89c3.91,9.56,8.31,18.47,13.57,27.38,3.68,6.23,6.02,12.65,7.98,19.53,1.04,3.65,1.43,7.04,1.8,10.92,1.32,13.68-.16,27.48-6.96,39.69-2.75,4.93-7.61,9.38-11.25,13.35-.37.4-2.24.46-2.39-.02-.15-.48-.24-1.23-.37-2.17-1.86-13.94-4.01-27.55-7.4-41.19l-7.89-31.66c-2.68-10.77-5.47-20.97-7.49-31.9-2.4-12.97-5.61-23.14-4.49-36.59l.63-7.54c1.15-13.76,2.99-27.08,3.11-40.96.13-14.57-1.22-28.44-2-42.98l-2.37-44.14-1.26-20.87c-.77-12.84-3.24-25.15-4.97-37.89l-1.97-14.51-4.67-25.43-3.95-19.53c-1.52-7.52-2.91-14.79-3.39-22.5-.58-9.25-.35-10.03-4.59-17.39-.25-.44-1.26-1.02-1.72-1.1-.37-.07-1.22.54-1.36.87l-1.19,2.79-3.68-2.57-2.51-6.63c-.23-.62-1.58-1.31-2.19-1.18-.61.12-1.57,1.37-1.56,2.08l.05,4.11-5.47,1.98-2.98-5.78c-.26-.51-1.44-1.19-1.97-1.07-2.91.61-1.18,10.27-.01,12.4l-1.36,2.5c-.11.21-.55.72-.69.89-.09.11-.47-.63-.58-.71l-1.92-1.28c-2.41-1.6-1.84,8.38-1.68,9.46l3.17,21.38,2.17,14.22,4.85,31.12c2.06,13.2,4.35,25.94,5.18,39.28l.35,5.59.41,16.24c.14,5.69.43,11.31-.02,16.98-.49,6.16.39,12,.66,18.21l.46,10.67c.1,2.23.91,15.81-.65,16.77-1.23-1.95-2.19-3.64-2.96-5.6-3.32-8.48-7.84-15.73-14.49-22.02-1.08-1.89-1.49-4.83-2.07-6.97-3.8-13.84-12.2-28.08-21.69-38.71-2.86-3.2-9.18-9.37-13.2-4.8-6.31,7.74-9.42,22.25-10.47,32.75-29.74-1.63-58.97,3.48-86.49,14.43-3.14,1.25-5.7,2.44-8.75,4.16-9.74-9.53-29.03-20.25-42.56-17.95-5.48.93-4.96,8.66-4.53,12.79,1.67,16.11,6.05,31.44,10.79,46.91-5.18,10.32-10.69,30.92-10.55,42.1.16,13.02,4.86,26.37,14.03,35.52,6.82,6.81,15.18,10.88,24.04,13.69,9.96,3.16,16.3-1.9,16.02,5.25l-.48,12.09c-.33,8.34-3.14,15.7-8.57,21.93l-8.19,9.41c-7.83,8.99-15.81,17.31-23.1,26.8-6.52,8.48-12.67,16.62-18.2,25.78-5.12,8.49-7.25,18.39-4.26,27.9,1.09,3.46,3.53,6.84,7.25,7.25,2.92.32,5.98-1.1,8.28-2.85,10.69-8.13,10.15-10.41,18.43-19.16,5.7-6.03,13.24-14.92,17.57-21.94.27-.43,1.15-.93,1.81-1.07.8,5.69.97,11.04.49,16.78-1.24,14.8-1.87,25,.29,39.73.77,5.25,1.33,10.15,2.82,15.34,4.06,14.18,9.22,27.78,17.49,40.07,4.16,6.18,9.23,11.24,14.82,16.38,7.17,6.6,15.47,10.47,24.72,12.63,2.49,1.89,3.07,5.67,3.07,8.73-.02,11.46,2.77,31.59,9.22,40.74,1.6,2.27,5.59,1.46,7.26-.25,1.73-1.77,3.22-3.68,4.28-5.84l7.08-14.45c3.99-8.14,8.5-15.62,14.07-22.75l11.93.27c5.67.13,10.91-1.78,16.06-3.67l14.5-5.33c6.19,5.12,7.89,13.78,9.15,21.15.85,4.95,1.79,9.58,3.13,14.42.54,1.93,2.11,3.65,3.24,5.15,1.94,2.58,4.58,2.94,7.24,1.12,3-2.05,4.97-4.67,6.45-8.12,7.12-16.59,3.41-25.85,13.71-49.21,4.51-10.24,11.19-18.94,19-26.82l11.71-11.83c1.59-1.61,4.59-2.54,6.51-3.87l13.04-8.99c20.81-14.35,27.56-23.14,37.95-46.67,9.23-20.92,11.01-48.34-1.03-68.43ZM30.27,373.22c-.99-2,8.25-22.84,14.38-21.12-7.18,5.41-9.75,12.64-13.33,20.35-.16.36-.92,1.04-1.06.77ZM46.79,366.05c-2.06,6.19-3.2,12.17-4.48,18.9-.06.34-.5.96-.64,1.15-.19.24-1.02-.8-.96-1.14.91-5.53,3.87-26.57,11.61-27.35-2.27,2.9-4.45,5.19-5.54,8.44ZM75.81,348.58c-12.87,0-23.31-10.43-23.31-23.31s10.44-23.31,23.31-23.31,23.31,10.43,23.31,23.31-10.44,23.31-23.31,23.31ZM150.42,329.24c-12.98,0-23.51-10.52-23.51-23.51s10.53-23.51,23.51-23.51,23.51,10.52,23.51,23.51-10.53,23.51-23.51,23.51ZM214.86,332.23l-6.49-5.42c-4-3.34-8.22-5.48-13.01-7.82,3.83-2.43,20.97,10.57,20.85,13.2-.01.3-1.08.26-1.34.04ZM192.03,312.69c-1.46.21-1.07-3.24,10.34-1.46,5.86,2.08,12.18,2.65,17.34,7.2-8.83-2.25-18.28-7.09-27.68-5.74Z"/>
        <path d="M198.18,32.58c3.4,4.59.05,5.81,3.84,9.27.75.69,1.8,2.03,1.85,2.97.73,13.57,1.32,6.97,3.26,16.48.08.41.82,1.37,1.01,1.05.14-.24.54-1.29.48-1.63l-2.21-13.2c-.59-3.54-1.14-6.51-3.45-9.23.13-3.98-1.17-7.48-4.42-10.08.28-6.35-1.43-12.02-3.38-17.97l-2.91-8.92c-.16-.49-1.11-1.46-1.52-1.29-1.85.77,1.96,11.88,2.64,13.9,4.37,12.93-.65,11.31,4.8,18.66Z"/>
        <path d="M187.57,47.87c2.3,4.84-3.18,10.18.65,12.82.93.64,2.31,2.43,2.01,3.38-1.2,3.87.41,5.97,1.8,9.28,1.31,3.12-.99,9.77,1.57,10.21,2.33.4,1.97-6.47,1.98-8.22,0-1.88-1.21-3.7-2.39-5.19-2.88-3.6,4.13-7.7-3.62-11.97l-.39-7.88c-.16-3.21-1.66-4.82-3.73-6.98-3.37-3.51-2.77-10.25-4.73-12.05-.23-.21-1.07.78-1.08,1.18-.08,2.17,1.04,5.77,1.84,8.09,1.22,3.51,2.61,5.76,6.09,7.32Z"/>
        <path d="M220.83,48.97c6.3,11.1,2.75,11.85,5.99,20.36.19.5,1.95.98,2.15.53.16-.36.23-1.03.12-1.79l-1.24-9.01c-.6-4.33-1.95-7.96-4.63-11.47-1.74-2.28-1.27-5.54-2.43-8.55-1.29,2.92-1.49,7.26.03,9.94Z"/>
        <path d="M218.68,36.74c.61.42,1.05,2.32,2.22.48-5.38-6.14,2.13-10.49-7.3-21.78-1.78,1.27-1.07,2.83-.39,4.2,5,10.03-.93,12.68,5.47,17.1Z"/>
        <path d="M151.21,289.42c-8.98,0-16.27,7.28-16.27,16.27s7.28,16.27,16.27,16.27,16.27-7.28,16.27-16.27-7.28-16.27-16.27-16.27Z"/>
        <path d="M76.31,308.46c-9.19,0-16.64,7.45-16.64,16.64s7.45,16.64,16.64,16.64,16.64-7.45,16.64-16.64-7.45-16.64-16.64-16.64Z"/>
      </g>
    </g>
  </g>
</svg>