<?xml version="1.0" encoding="UTF-8"?>
<svg id="Layer_2" data-name="Layer 2" xmlns="http://www.w3.org/2000/svg" viewBox="0 0 1000 1000">
  <defs>
    <style>
      .cls-1 {
        fill: #fff;
      }
    </style>
  </defs>
  <g id="Layer_1-2" data-name="Layer 1-2">
    <g>
      <path class="cls-1" d="M318.64,544.35c-.22.46-1.2,1.34-1.38.99-1.27-2.6,10.73-29.71,18.72-27.47-9.34,7.05-12.69,16.44-17.34,26.48h0Z"/>
      <path class="cls-1" d="M345.95,525.02c-2.95,3.77-5.8,6.75-7.21,10.99-2.68,8.04-4.16,15.82-5.83,24.58-.08.43-.64,1.25-.83,1.48-.25.31-1.31-1.03-1.25-1.48,1.18-7.19,5.03-34.56,15.11-35.57Z"/>
      <path class="cls-1" d="M376.49,452.65c-16.74,0-30.32,13.58-30.32,30.32s13.58,30.32,30.32,30.32,30.32-13.58,30.32-30.32-13.58-30.32-30.32-30.32ZM377.14,504.38c-11.95,0-21.64-9.69-21.64-21.64s9.69-21.64,21.64-21.64,21.64,9.69,21.64,21.64-9.69,21.64-21.64,21.64h0Z"/>
      <path class="cls-1" d="M473.54,426.99c-16.88,0-30.58,13.68-30.58,30.57s13.7,30.58,30.58,30.58,30.58-13.7,30.58-30.58-13.7-30.57-30.58-30.57ZM474.58,478.65c-11.69,0-21.16-9.47-21.16-21.15s9.47-21.16,21.16-21.16,21.16,9.47,21.16,21.16-9.48,21.15-21.16,21.15Z"/>
      <path class="cls-1" d="M527.66,466.6c-1.9.27-1.38-4.21,13.45-1.9,7.64,2.72,15.86,3.45,22.55,9.37-11.49-2.93-23.78-9.22-36-7.47h0Z"/>
      <path class="cls-1" d="M559.1,491.97c-.01.38-1.4.33-1.74.05l-8.44-7.05c-5.2-4.34-10.69-7.13-16.92-10.18,4.98-3.16,27.28,13.75,27.11,17.18Z"/>
      <g>
        <path d="M710.92,633.74l-18.31-30.55c-5.81-9.7-11.75-18.99-15.87-29.55-3.77-9.66-5.41-19.61-7.97-29.62-3.1-12.1-6.85-31.59-17.46-38.55-4.57-2.99-9.98-3.11-14.09.82-7.4,7.08-12.42,17.4-11.37,27.98.94,9.47,3.75,18.34,7.31,27.08l11.1,27.17c5.09,12.43,10.81,24.02,17.65,35.61,4.79,8.1,7.83,16.45,10.38,25.4,1.35,4.75,1.86,9.16,2.34,14.2,1.72,17.79-.21,35.74-9.05,51.63-3.58,6.41-9.9,12.2-14.63,17.36-.48.52-2.91.6-3.11-.03-.2-.62-.31-1.6-.48-2.82-2.42-18.13-5.22-35.83-9.63-53.58l-10.26-41.18c-3.49-14.01-7.11-27.28-9.74-41.49-3.12-16.87-7.3-30.1-5.84-47.59l.82-9.81c1.5-17.9,3.89-35.22,4.05-53.28.17-18.95-1.59-36.99-2.6-55.9l-3.08-57.41-1.64-27.15c-1-16.7-4.21-32.71-6.46-49.28l-2.56-18.87-6.07-33.08-5.14-25.4c-1.98-9.78-3.79-19.24-4.41-29.27-.75-12.03-.46-13.05-5.97-22.62-.33-.57-1.64-1.33-2.24-1.43-.48-.09-1.59.7-1.77,1.13l-1.55,3.63-4.79-3.34-3.26-8.62c-.3-.81-2.06-1.7-2.85-1.53-.79.16-2.04,1.78-2.03,2.71l.07,5.35-7.11,2.58-3.88-7.52c-.34-.66-1.87-1.55-2.56-1.39-3.79.79-1.53,13.36-.01,16.13l-1.77,3.25c-.14.27-.72.94-.9,1.16-.12.14-.61-.82-.75-.92l-2.5-1.66c-3.13-2.08-2.39,10.9-2.19,12.3l4.12,27.81,2.82,18.5,6.31,40.48c2.68,17.17,5.66,33.74,6.74,51.09l.46,7.27.53,21.12c.18,7.4.56,14.71-.03,22.09-.64,8.01.51,15.61.86,23.69l.6,13.88c.13,2.9,1.18,20.56-.85,21.81-1.6-2.54-2.85-4.73-3.85-7.28-4.32-11.03-10.2-20.46-18.85-28.64-1.4-2.46-1.94-6.28-2.69-9.07-4.94-18-15.87-36.52-28.21-50.35-3.72-4.16-11.94-12.19-17.17-6.24-8.21,10.07-12.25,28.94-13.62,42.6-38.68-2.12-76.7,4.53-112.5,18.77-4.08,1.63-7.41,3.17-11.38,5.41-12.67-12.4-37.76-26.34-55.36-23.35-7.13,1.21-6.45,11.26-5.89,16.64,2.17,20.95,7.87,40.89,14.03,61.02-6.74,13.42-13.9,40.22-13.72,54.76.21,16.94,6.32,34.3,18.25,46.2,8.87,8.86,19.74,14.15,31.27,17.81,12.96,4.11,21.2-2.47,20.84,6.83l-.62,15.73c-.43,10.85-4.08,20.42-11.15,28.52l-10.65,12.24c-10.18,11.69-20.56,22.52-30.05,34.86-8.48,11.03-16.48,21.62-23.67,33.53-6.66,11.04-9.43,23.92-5.54,36.29,1.42,4.5,4.59,8.9,9.43,9.43,3.8.42,7.78-1.43,10.77-3.71,13.9-10.57,13.2-13.54,23.97-24.92,7.41-7.84,17.22-19.41,22.85-28.54.35-.56,1.5-1.21,2.35-1.39,1.04,7.4,1.26,14.36.64,21.83-1.61,19.25-2.43,32.52.38,51.68,1,6.83,1.73,13.2,3.67,19.95,5.28,18.44,11.99,36.13,22.75,52.12,5.41,8.04,12.01,14.62,19.28,21.31,9.33,8.58,20.12,13.62,32.15,16.43,3.24,2.46,3.99,7.37,3.99,11.36-.03,14.91,3.6,41.09,11.99,52.99,2.08,2.95,7.27,1.9,9.44-.33,2.25-2.3,4.19-4.79,5.57-7.6l9.21-18.8c5.19-10.59,11.06-20.32,18.3-29.59l15.52.35c7.38.17,14.19-2.32,20.89-4.77l18.86-6.93c8.05,6.66,10.26,17.92,11.9,27.51,1.11,6.44,2.33,12.46,4.07,18.76.7,2.51,2.74,4.75,4.21,6.7,2.52,3.36,5.96,3.82,9.42,1.46,3.9-2.67,6.46-6.07,8.39-10.56,9.26-21.58,4.44-33.62,17.83-64.01,5.87-13.32,14.55-24.64,24.71-34.89l15.23-15.39c2.07-2.09,5.97-3.3,8.47-5.03l16.96-11.69c27.07-18.67,35.85-30.1,49.36-60.7,12.01-27.21,14.32-62.88-1.34-89.01l-.07-.03ZM317.27,545.34c-1.29-2.6,10.73-29.71,18.7-27.47-9.34,7.04-12.68,16.44-17.34,26.47-.21.47-1.2,1.35-1.38,1h.01ZM338.76,536.01c-2.68,8.05-4.16,15.83-5.83,24.58-.08.44-.65,1.25-.83,1.5-.25.31-1.33-1.04-1.25-1.48,1.18-7.19,5.03-34.56,15.1-35.57-2.95,3.77-5.79,6.75-7.21,10.98h.01ZM376.51,513.29c-16.74,0-30.32-13.57-30.32-30.32s13.58-30.32,30.32-30.32,30.32,13.57,30.32,30.32-13.58,30.32-30.32,30.32ZM473.55,488.14c-16.88,0-30.58-13.68-30.58-30.58s13.7-30.58,30.58-30.58,30.58,13.68,30.58,30.58-13.7,30.58-30.58,30.58ZM557.37,492.02l-8.44-7.05c-5.2-4.34-10.69-7.13-16.92-10.17,4.98-3.16,27.28,13.75,27.12,17.17-.01.39-1.4.34-1.74.05h-.01ZM527.68,466.61c-1.9.27-1.39-4.21,13.45-1.9,7.62,2.71,15.84,3.45,22.55,9.37-11.49-2.93-23.78-9.22-36-7.47h0Z"/>
        <path d="M535.67,102.27c4.42,5.97.07,7.56,4.99,12.06.98.9,2.34,2.64,2.41,3.86.95,17.65,1.72,9.07,4.24,21.44.1.53,1.07,1.78,1.31,1.37.18-.31.7-1.68.62-2.12l-2.87-17.17c-.77-4.6-1.48-8.47-4.49-12.01.17-5.18-1.52-9.73-5.75-13.11.36-8.26-1.86-15.63-4.4-23.37l-3.79-11.6c-.21-.64-1.44-1.9-1.98-1.68-2.41,1,2.55,15.45,3.43,18.08,5.68,16.82-.85,14.71,6.24,24.27h.01Z"/>
        <path d="M521.87,122.15c2.99,6.3-4.14,13.24.85,16.68,1.21.83,3,3.16,2.61,4.4-1.56,5.03.53,7.77,2.34,12.07,1.7,4.06-1.29,12.71,2.04,13.28,3.03.52,2.56-8.42,2.58-10.69,0-2.45-1.57-4.81-3.11-6.75-3.75-4.68,5.37-10.02-4.71-15.57l-.51-10.25c-.21-4.18-2.16-6.27-4.85-9.08-4.38-4.57-3.6-13.33-6.15-15.67-.3-.27-1.39,1.01-1.4,1.53-.1,2.82,1.35,7.51,2.39,10.52,1.59,4.57,3.39,7.49,7.92,9.52h0Z"/>
        <path d="M565.14,123.59c8.19,14.44,3.58,15.41,7.79,26.48.25.65,2.54,1.27,2.8.69.21-.47.3-1.34.16-2.33l-1.61-11.72c-.78-5.63-2.54-10.35-6.02-14.92-2.26-2.97-1.65-7.21-3.16-11.12-1.68,3.8-1.94,9.44.04,12.93h.01Z"/>
        <path d="M562.34,107.68c.79.55,1.37,3.02,2.89.62-7-7.99,2.77-13.64-9.5-28.33-2.32,1.65-1.39,3.68-.51,5.46,6.5,13.05-1.21,16.49,7.11,22.24Z"/>
        <path d="M474.58,436.34c-11.68,0-21.16,9.47-21.16,21.16s9.47,21.16,21.16,21.16,21.16-9.47,21.16-21.16-9.47-21.16-21.16-21.16Z"/>
        <path d="M377.16,461.11c-11.95,0-21.64,9.69-21.64,21.64s9.69,21.64,21.64,21.64,21.64-9.69,21.64-21.64-9.69-21.64-21.64-21.64h0Z"/>
      </g>
    </g>
  </g>
</svg>