<?xml version="1.0" encoding="UTF-8"?>
<svg id="Layer_2" data-name="Layer 2" xmlns="http://www.w3.org/2000/svg" viewBox="0 0 542.7 559.45">
  <defs>
    <style>
      .cls-1 {
        fill: #fff;
      }
    </style>
  </defs>
  <g id="Layer_1-2" data-name="Layer 1">
    <g>
      <path class="cls-1" d="M111.66,239.08c-1.52-4.51-4.89-7.08-9.15-10.33l-.4-.3c-.33-.26-.47-.69-.35-1.08.11-.4.47-.69.88-.72.27,0,.53-.02.78-.02,7.15,0,11.25,6.75,12.69,9.66,3.41,6.9,3.42,15.85.04,23.34-2.95,6.52-8.06,11.06-14.39,12.77-.09.02-.18.03-.26.03-.33,0-.64-.15-.83-.43-.51-.75-.67-1.42-.5-2.05.27-.93,1.13-1.31,1.82-1.62.24-.11.49-.22.65-.33,9.12-6.22,12.74-17.84,9.02-28.92Z"/>
      <path class="cls-1" d="M100.67,141.98c-13.66,0-24.74,11.08-24.74,24.74s11.08,24.73,24.74,24.73,24.74-11.07,24.74-24.73-11.08-24.74-24.74-24.74ZM100.72,185.19c-10.32,0-18.69-8.37-18.69-18.69s8.37-18.69,18.69-18.69,18.69,8.37,18.69,18.69-8.36,18.69-18.69,18.69Z"/>
      <path class="cls-1" d="M195.72,259.69c.29,4.71-.42,9.19-1.12,13.51-.47,2.94-.95,5.98-1.11,9.04-.1,2.1-.32,4.15-.59,6.6-.03.22-.13.43-.28.59-.44.45-.88.66-1.35.66-.62,0-1.42-.37-1.66-2.13-.46-3.38.78-11.71,1.56-16.38,2.08-12.46,2.72-12.63,3.29-12.79.09-.03.18-.04.27-.04.2,0,.41.07.58.19.24.17.4.45.41.75Z"/>
      <path class="cls-1" d="M221.2,288.98c-.84,0-1.48-.4-1.65-1.03-.7-2.53,3.32-23.94,5.53-27.26.19-.28.5-.44.83-.44.07,0,.13,0,.2.02.4.08.71.39.78.79.23,1.17-.57,5.86-2.57,16.65-.74,3.99-1.57,8.46-1.69,9.72.11.28.09.61-.08.89-.03.05-.06.1-.11.15-.03.04-.06.08-.1.11-.36.33-.82.4-1.14.4Z"/>
      <g>
        <path d="M542.35,543.64c-4.32-17.22-10.37-33.49-16.88-49.92-1.87-4.74-4.01-9.01-5.18-14-5.28-22.67-8.03-45.46-9.57-68.67-.46-6.9-.19-13.42.04-20.23l.41-12.72.54-10.45,1.06-17.14c.42-6.84,1.68-13.04,2.78-19.81l6.14-37.73.73-8.81c1.75-20.96,10.8-59.07,11.61-76.39l.65-14.05c.25-5.4.28-10.56-.03-15.95l-.55-9.5c-.43-7.33-1.98-13.82-3.82-20.92-8.4-32.4-24-62.44-46.15-87.6-9.11-10.35-19.32-18.72-30.56-26.55-12.41-8.64-24.8-16.39-38.91-22.04C397.23,4.18,379.18.66,360.29.08c-49-1.53-105.48,18.06-145.21,46.06l-25.3,17.83-23.02,16.4c-13.11,9.33-37.62,23.2-53.66,24.66-5.17.48-10.48.3-15.61-.16l-9.75-.87-15.05-1.35c-2.47-.22-4.89-.21-7.31-.59-9.5-1.52-18.75-1.44-27.95,1.33-11.5,3.45-21.85,9.31-29.79,18.28-2.37,2.67-8.17,9.78-5.99,12.86.47.67,1.98,1.26,3.01,1.26,13.58.07,21.87,3.64,33.23,11.11-6.52,17.68-9.67,35.74-9.96,54.45l.43,12.78c1.06,10.95,2.84,21.61,7.12,31.56-5.1,3.16-9.06,6.72-13.49,10.31-7.57,6.14-14.05,13.05-18.65,21.78l-3.34,9.28c8.52,8.97,30.29,6.26,41.79,6.26l149.32-.1c1.26,24.07,2.89,47.98,8.74,71.21,4.33,15.89,11.32,33.03,23.56,44.38,2.12,1.96,4.54,3.46,7.29,4.37,2.93.98,6.07-.43,7.11-3.43,3.11-8.96-1.41-26.34-4.12-35.74l-7.59-26.36c-2.57-10.72-4.99-21.08-5.77-32.11-.52-7.48-.22-14.71-.14-22.3l26.13-.29,29.24-.22,6.56-.38,50.51-.4,22.24-.18c1.2,0,3.3,1.3,4.31,1.88,8,12.44,15.8,25.34,19.13,40.41,1.03,4.67,1.96,9.45,1.05,13.97-3.71,18.41-11.14,35.4-21.1,51.22-4.46,7.09-8.97,13.47-13.77,20.23-2.6,3.66-4.83,7.35-6.51,11.54-.88,2.18-1,4.7-1.06,7.08-.13,4.9,3.41,8.77,8.4,8.75,4.62-.03,9.04-1.92,12.89-4.7,18.37-13.29,45.06-53.79,54.03-74.65l10.13-23.56c7.99-18.56,17.99-31.24,35.14-42.19,2.74-1.75,5.86-2.87,8.86-3.62,7.39-1.86,16.67,3.84,17.06,11.64.27,5.43-.32,10.77-.92,16.39-1.82,16.79-2.5,33.07-3.21,49.95l-1.26,30c-.48,11.42.45,22.16,1.93,33.49,2.43,18.57,6.22,36.38,12.46,54.04,4.61,13.08,10.75,24.92,17.29,37.04,3.62,6.72,6.53,13.33,11.39,19.2,2.68,3.24,5.42,6.4,9.02,8.45,2.87,1.63,6.98,1.67,9-1.22,2.5-3.57,4.37-8.89,3.22-13.47ZM116.15,259.63c-2.95,6.52-8.06,11.06-14.39,12.77-.09.02-.18.03-.26.03-.33,0-.64-.15-.83-.43-.51-.75-.67-1.42-.5-2.05.27-.93,1.13-1.31,1.82-1.62.24-.11.49-.22.65-.33,9.12-6.22,12.74-17.84,9.02-28.92-1.52-4.51-4.89-7.08-9.15-10.33l-.4-.3c-.33-.26-.47-.69-.35-1.08.11-.4.47-.69.88-.72.27-.01.53-.02.78-.02,7.15,0,11.25,6.75,12.69,9.66,3.41,6.9,3.42,15.85.04,23.34ZM100.67,191.45c-13.66,0-24.74-11.07-24.74-24.73s11.08-24.74,24.74-24.74,24.74,11.08,24.74,24.74-11.08,24.73-24.74,24.73ZM194.6,273.2c-.47,2.94-.95,5.98-1.11,9.04-.1,2.1-.32,4.15-.59,6.6-.03.22-.13.43-.28.59-.44.45-.88.66-1.35.66-.62,0-1.42-.37-1.66-2.13-.46-3.38.78-11.71,1.56-16.38,2.08-12.46,2.72-12.63,3.29-12.79.09-.03.18-.04.27-.04.2,0,.41.07.58.19.24.17.4.45.41.75.29,4.71-.42,9.19-1.12,13.51ZM224.32,277.71c-.74,3.99-1.57,8.46-1.69,9.72.11.28.09.61-.08.89-.03.05-.06.1-.11.15-.03.04-.06.08-.1.11-.36.33-.82.4-1.14.4-.84,0-1.48-.4-1.65-1.03-.7-2.53,3.32-23.94,5.53-27.26.19-.28.5-.44.83-.44.07,0,.13,0,.2.02.4.08.71.39.78.79.23,1.17-.57,5.86-2.57,16.65ZM369.91,174.15c-1.99,4.92-4.5,9.44-6.92,13.8-2.32,4.18-4.72,8.5-6.6,13.08-6.47,15.81-9.24,28.5-8.95,41.14.29,13.2,2.9,25.49,7.99,37.58.59,1.41,1.48,3.07,2.33,4.67,2.08,3.89,2.9,5.51,2.2,6.55-.28.4-.71.64-1.18.64-2.37,0-6.14-7.98-6.3-8.32-12.73-27.15-12.5-56.25.68-84.13l.1-.2c4.11-8.7,8.37-17.71,14.95-25.82.19-.24.48-.37.77-.37.18,0,.35.05.51.14.43.25.6.78.42,1.24Z"/>
        <circle cx="100.72" cy="166.51" r="18.69" transform="translate(-.91 .56) rotate(-.31)"/>
      </g>
      <path class="cls-1" d="M369.91,174.15c-1.99,4.92-4.5,9.44-6.92,13.8-2.32,4.18-4.72,8.5-6.6,13.08-6.47,15.81-9.24,28.5-8.95,41.14.29,13.2,2.9,25.49,7.99,37.58.59,1.41,1.48,3.07,2.33,4.67,2.08,3.89,2.9,5.51,2.2,6.55-.28.4-.71.64-1.18.64-2.37,0-6.14-7.98-6.3-8.32-12.73-27.15-12.5-56.25.68-84.13l.1-.2c4.11-8.7,8.37-17.71,14.95-25.82.19-.24.48-.37.77-.37.18,0,.35.05.51.14.43.25.6.78.42,1.24Z"/>
    </g>
  </g>
</svg>