<?xml version="1.0" encoding="UTF-8"?>
<svg id="Layer_2" data-name="Layer 2" xmlns="http://www.w3.org/2000/svg" viewBox="100.4 142.7 799.1 714.6">
  <defs>
    <style>
      .cls-1 {
        fill: #fff;
      }
    </style>
  </defs>
  <g id="Layer_1-2" data-name="Layer 1-2">
    <g>
      <path class="cls-1" d="M276.36,441.89c-7.78,4.13-14.76,7.83-20.82,13.62l-16.19,15.49c-.33.31-1.36.85-1.76,1.05-.51.25-1.22-1.89-.67-2.6,7.48-9.53,17.86-19.83,28.65-26.03,3.62-2.07,7.17-4.36,10.79-1.53Z"/>
      <path class="cls-1" d="M277.8,423.04c-25.04,3.61-48.52,13.76-67.96,30.06-7.37,6.19-13.09,12.88-19.78,20.12-.7.74-2.24,1.38-2.8.98-.56-.39-.56-2.38-.06-2.94l7.13-8.05c8.96-10.11,18.73-18.37,30.44-25.27,15.24-8.99,31.9-15.35,49.36-18.74.77-.15,2.69.23,3.25.57.71.42.68,2.07.42,3.28Z"/>
      <path class="cls-1" d="M281.6,240.52c-40.18,0-72.74,32.56-72.74,72.73s32.56,72.73,72.74,72.73,72.74-32.56,72.74-72.73-32.56-72.73-72.74-72.73ZM282.75,367.23c-29.14,0-52.78-23.62-52.78-52.76s23.63-52.76,52.78-52.76,52.76,23.62,52.76,52.76-23.62,52.76-52.76,52.76Z"/>
      <path class="cls-1" d="M562.86,248.11c-40.19,0-72.77,32.58-72.77,72.76s32.58,72.76,72.77,72.76,72.77-32.56,72.77-72.76-32.58-72.76-72.77-72.76ZM563.6,375.22c-30.27,0-54.83-24.55-54.83-54.82s24.56-54.83,54.83-54.83,54.85,24.55,54.85,54.83-24.56,54.82-54.85,54.82Z"/>
      <path class="cls-1" d="M651.68,479.17c.45.36,1.1,2.03.84,2.31-.34.39-1.35.68-2.03.7-17.8-10.74-33.23-19.05-52.67-21.71-3.45-.48-1.53-8.09,22.74.84,10.85,3.98,22.3,11,31.12,17.88Z"/>
      <path class="cls-1" d="M607.37,440.55c-6.62.91-13.91,3.22-19.69,5.7-.5.22-2.28.12-2.17-.23,1.52-5.32,20.06-9.16,25.68-9.84,31.08-3.73,62.19,1.58,90.76,14.13.7.31,1.49,1.41,1.53,1.98.05.56-1.83,1.33-2.54,1.08-32.47-10.91-58.22-17.74-93.57-12.81h0Z"/>
      <g>
        <path d="M897.55,439.42c-.48-8.36-6.27-15.07-13.37-19.18-23.65-13.67-55.25-3.73-77.66,8.78-39.56,22.07-72.45,54.83-94.93,94.11-11.27,19.69-17.21,40.49-19.44,62.82-1.44,14.41-2.41,28.04-4.92,42.38-4.66,26.57-15.51,51.2-33.63,72.17-1.11-23.28-7.8-49.66-23.42-67.06-7.58-9.97-16.25-18.15-26.33-25.57-7.48-5.51-30.44-23.29-32.9-31-2.17-6.79.36-14.7,4.84-20.12,4.24-5.12,10.34-8.62,16.42-11.36l28.83-13.03c36.97-16.71,78.58-59.94,101.11-94.41,18.03-27.6,32.49-63.28,31.28-96.48-1.16-32.04-13.84-57.79-33.41-82.46,4.69-35.36,7.61-59.55-3.05-94.38-1.83-5.97-5.28-10.99-8.33-16.27-1.75-3.03-4.27-4.72-7.69-2.89-6.55.85-12.21,3.19-17.97,6.64-19.14,11.47-37.21,24.25-53.52,39.74-57.42-26.82-119.46-38.85-182.11-42.86l-17.26-.73c-12.55-.53-24.59-.39-37.33,0-63.83,1.98-129.66,16.47-185.89,48.24l-19.84-13.4c-15.41-10.42-32.93-16.92-51.43-19.47l-20.12-2.77c-1.15.7-1.63,3.28-2.15,4.84-5.76,16.82-8.31,33.82-7.63,51.77.91,21.02,4.5,43.71,15.12,63.01-24.39,45.58-24.55,100.35-.25,146.32,14.38,27.21,34.98,50.36,59.74,68.64,21.53,16.11,43.92,29.5,68.13,40.98,17.23,8.17,32.38,16.19,37.59,35.74,2.24,8.4,3.87,16.67,4.84,25.34,1.33,11.86-.59,23.32-1.04,35.21-1.08,28.6.31,47.62,8.45,75.09,4.64,15.66,9.91,30.54,16.5,45.38,2.4,5.42,5.63,10.23,8.48,15.43,5.05,9.19,10.8,17.64,18,25.27,14.38,15.24,30.29,28.31,48.97,37.76,9.33,4.72,17.77,9.92,27.69,13.19,18.26,6.04,39.5,10.11,58.94,10.45,17.81.31,43.21-4.26,60.51-8.98,19.59-5.35,36.7-15.03,53.72-25.74,19.19-12.07,35.98-25.75,51.96-41.74,12.64-12.64,22.69-26.06,33.06-40.95,9.04-12.95,17.01-25.06,22.95-39.42l6.16-14.87c13.03-31.45,17.18-53.16,22.27-86.67,2-13.16,4.27-25.63,7.44-38.54,5.2-21.22,15.68-43.06,33.07-56.78,27.75-21.92,57.9-27.33,91.85-32.62,7.49-1.18,14.58-2.74,21.34-5.83,9.56-4.36,16.95-12.86,16.33-23.76l.02.05ZM255.54,455.51l-16.19,15.49c-.33.33-1.36.87-1.76,1.05-.51.25-1.22-1.89-.67-2.6,7.48-9.53,17.86-19.83,28.65-26.03,3.62-2.07,7.15-4.36,10.77-1.53-7.78,4.13-14.75,7.83-20.8,13.62ZM277.8,423.04c-25.04,3.61-48.54,13.77-67.96,30.06-7.37,6.18-13.09,12.86-19.79,20.12-.68.74-2.24,1.38-2.8.98-.56-.39-.56-2.4-.06-2.96l7.13-8.05c8.96-10.11,18.73-18.37,30.44-25.27,15.24-8.99,31.91-15.35,49.36-18.74.77-.15,2.69.25,3.27.57.71.42.67,2.07.42,3.28v.02ZM281.6,385.99c-40.18,0-72.74-32.56-72.74-72.73s32.56-72.73,72.74-72.73,72.74,32.56,72.74,72.73-32.56,72.73-72.74,72.73ZM652.52,481.48c-.36.39-1.35.68-2.03.7-17.8-10.74-33.24-19.05-52.68-21.71-3.45-.48-1.52-8.08,22.75.84,10.85,3.99,22.29,11,31.11,17.88.45.36,1.1,2.01.85,2.31ZM701.95,450.31c.7.31,1.47,1.41,1.53,1.97.05.56-1.81,1.33-2.54,1.1-32.47-10.93-58.24-17.75-93.57-12.83-6.62.93-13.93,3.22-19.69,5.71-.5.22-2.28.12-2.17-.23,1.52-5.32,20.06-9.16,25.68-9.83,31.08-3.73,62.19,1.58,90.76,14.13v-.02ZM490.09,320.88c0-40.18,32.58-72.76,72.77-72.76s72.77,32.58,72.77,72.76-32.58,72.76-72.77,72.76-72.77-32.58-72.77-72.76Z"/>
        <ellipse cx="282.75" cy="314.47" rx="52.78" ry="52.76"/>
        <circle cx="563.65" cy="320.41" r="54.83"/>
      </g>
    </g>
  </g>
</svg>