<?xml version="1.0" encoding="UTF-8"?>
<svg id="Layer_2" data-name="Layer 2" xmlns="http://www.w3.org/2000/svg" viewBox="0 0 706.83 491.31">
  <defs>
    <style>
      .cls-1 {
        fill: #fff;
      }
    </style>
  </defs>
  <g id="Layer_1-2" data-name="Layer 1">
    <g>
      <path class="cls-1" d="M141.29,382.68c.8.72-.8,2.61-1.83,2.62-1.7.03-3.49-.07-4.86.26l-4.14.99c-3.97.95-7.65,2.47-11.43,3.95l-24.72,9.68c-3.82,1.5-9.12,2.3-13.85,4.58-.72.24-1.75-2.07-1.26-2.6,1.19-1.26,3.04-1.4,4.49-2.05l17.28-7.7c7.95-3.55,15.64-6.89,23.94-9.57,2.13-.68,4.24-.85,6.41-1.2,3.41-.54,6.99-1.63,9.97,1.04Z"/>
      <path class="cls-1" d="M183.82,326.65l.3,1.29c-6.54,1.36-18.63,13.05-24.19,18.19-.52.49-1.64.79-2.08.59-.43-.2-.5-1.68-.09-2.07,4.27-4,8.82-8.15,13.45-11.89,1.34-1.08,11.99-8.8,12.61-6.11Z"/>
      <path class="cls-1" d="M187.76,313.68c.33.14-.49,1.23-.85,1.3-11.62,2.16-22.5,6.34-32.97,11.8-6.89,3.59-12.82,7.53-19.5,11.91-.61.39-1.61.44-2.06.31-.54-.14-.65-2.12-.15-2.45l6.86-4.48c10.39-6.8,21.1-12.23,32.96-16.03,3.45-1.11,12.87-3.62,15.71-2.36Z"/>
      <path class="cls-1" d="M149.51,148.58c-.22-4.82-.39-9.26-.06-14.05.41-5.93.84-27.15,6.79-29.48,6.46-2.53,15.38,2.17,21.54,5.26,9.34,4.69,17.01,11.4,22.72,20.19.49.76.27,2.23-.27,2.66-.54.44-2.49.53-2.91-.03-5.79-7.58-12.86-13.31-21.22-17.87-4.6-2.51-9.17-4.75-14.21-6.14-6.66-1.84-7.45,10.43-7.77,15.24-.66,9.76-.92,19.29-.71,29.06.01.73.09,1.76-.28,2.1-.44.39-1.84.08-2.33-.28-2.33-1.74-1.19-4.4-1.29-6.66Z"/>
      <path class="cls-1" d="M195.1,178.79c-27.36,0-49.55,22.17-49.55,49.52s22.19,49.51,49.55,49.51,49.54-22.17,49.54-49.51-22.18-49.52-49.54-49.52ZM195.35,265.12c-20.52,0-37.16-16.63-37.16-37.14s16.64-37.14,37.16-37.14,37.16,16.63,37.16,37.14-16.64,37.14-37.16,37.14Z"/>
      <path class="cls-1" d="M339.7,188.46c-26.46,0-47.91,21.44-47.91,47.88s21.45,47.89,47.91,47.89,47.92-21.44,47.92-47.89-21.45-47.88-47.92-47.88ZM339.31,273.82c-21.29,0-38.55-17.25-38.55-38.53s17.26-38.53,38.55-38.53,38.55,17.25,38.55,38.53-17.26,38.53-38.55,38.53Z"/>
      <path class="cls-1" d="M345.47,153.18c.03-.45.4-1.69.77-2.05,7.44-7.36,18.07-17.73,26.96-22.81,3.09-1.78,5.7-.56,8.1,1.37,3.98,3.19,7.39,6.72,9.22,11.72,4.09,11.16,4.99,23.54-.78,34.31-.41.78-1.37,1.65-2,1.76-.62.1-2.17-.82-2.09-1.44,1.12-5.13,2.87-10.22,3.14-15.51.45-8.62-2.9-26.65-13.4-29.21-5.78,4.01-11.78,7.42-16.94,12.22l-11.53,10.74c-.59-.15-1.47-.65-1.45-1.1Z"/>
      <path class="cls-1" d="M408.06,349.84c2.75,4.49-5.28,3.75-7.19,8.95-.39,1.09-1.18,3.5-1.23,4.64-.38,8.2-.28,16.15.01,24.23l.51,14.1c.12,3.21,1.41,9.02-1.63,10-2.89.93-2.58-11.99-2.54-13.88.07-3.46-.74-6.65-.86-10.08l-.39-10.79c-.23-6.12-.46-12.24.58-18.14.66-3.75,3.37-6.18,6.81-7.23l5.93-1.8Z"/>
      <g>
        <path d="M703.98,163.58c-1.67-.93-3.73-.46-5.68.2-15.08,5.08-26.5,11.57-41.77,16.84-1.46.5-7.02,1.86-7.12-.17-.09-1.85.15-4.66.81-6.45l7.19-19.53c3.14-8.54,5.73-16.83,7.02-25.94.26-1.85-1.13-4.46-2.67-5.23-1.52-.76-3.87-.43-4.96.5l-10.28,8.75c-3.22,2.74-6.61,5.02-10.55,6.53-5.84,2.24-1.29-16.54-.74-18.65l1.34-5.09,1.17-4.45.98-3.95,1.16-4.94,1.3-5.95,1.07-5.66.39-5.67c.52-7.45,1.69-12.22-.7-22-1.76-7.2-3.82-12.29-8.73-17.89-2.67-3.04-6.33-5.6-10.53-3.96-3.32,1.29-4.98,4.69-5.88,8.11-.56,2.11-1.34,4.49-1.61,6.57l-.98,7.52-1.13,11.98c-.43,4.62-.02,9.25-.93,13.78-.67,3.37-.46,6.8-.95,10.17l-1.09,7.47-.75,4.1c-.72,3.91-2.17,7.55-3.8,11.15-2.07-1.2-1.88-3.07-2.31-5.03-.41-1.88-.81-3.7-.81-5.68,0-2.2-.6-4.39-.76-6.52-.37-4.94-.79-9.58-1.46-14.43-.56-4.04-1.44-15.87-7.85-14.43-4.2.95-6.93,12.72-7.76,16.68l-.89,4.25c-.45,2.15-.75,4.21-1.05,6.45l-1.02,7.46c-.65,4.77-.58,9.31-1.33,14.08l-.78,4.98c-.51,3.27.08,6.66-.37,9.87-.26,1.88-.81,3.66-.79,5.59.03,2.2-.26,4.12-.71,6.16-1,4.53-2.49,13.18-8.44,13.54-4.62.28-11.19-4.48-15.96-5.02-3.51.72-6.01,2.86-6.49,6.32l-1.02,7.43c-.45,3.28-.89,6.19-.79,9.62.06,2.01-1.36,7.29-3.28,8.18-6.1,2.82-15.65-7.24-22.25-8.77-1.06-.06-3.38.02-4.49.06-3.5,1.98-5.01,5.63-5.85,9.36-1.75,7.74.39,4.86-1.76,11.6l-5.5-.26-15.95-1.07-16.93-.33-6.08-.47c-7.19-.55-7.27-.03-13.76-1.44-2.39-.52-4.61-.93-6.44-2.93,2.73-4.7,6.04-8.29,10.07-11.66,7.56-6.33,15.2-11.96,23.27-17.69l28.05-19.91c8.81-6.26,17.24-12.48,25-19.93,5.76-5.53,12.74-14.95,6.7-22.59-2.64-3.35-6.55-5.01-10.74-5.84-8.6-1.71-17.19-2.29-26-1.62l-18.67,1.42-11.44,1.14c-3.06.3-5.82.81-9.06.85-2.09.03-5.35,1.66-7.45.83-4.8-2.11-9.37-4.81-13.59-7.8-1.61-3.22-.6-7.17-.51-10.54.07-2.59.3-4.69,1.03-7.12,3.31-10.99,7.36-21.27,11.51-31.95,2.78-7.16,5.4-14,7.19-21.43.9-3.75,1.46-7.08.09-10.8-2.74-7.44-10.93-6.47-17.12-4.19-5.43,2-10.44,4.26-15.56,7.07-12.97,7.1-25.26,14.55-37.47,22.96l-36.35,25.03c-8.34,5.74-16.49,11.01-25.45,15.59-5.64,2.89-12.95,6.24-19.15,5.03-7.89-1.54-11.12-14.21-12.39-20.98l-1.46-7.78-.97-7.08-1.24-9.4c-.53-4.01-1.33-7.88-2.07-11.85-1.59-8.48-4.71-19.32-11.98-24.68-4.02-2.96-9.69-2.57-13.81.16-3.1,2.06-5.76,4.55-8.09,7.53-13.2,16.89-23.38,40.06-32.12,59.82-2.83,6.4-5.62,12.43-9.04,18.51-1.03,1.83-4.63,7.37-7.34,5.9-4.68-2.53-7.85-6.41-11.01-10.49-2.3-2.97-4.51-5.73-6.65-8.86-8.26-12.05-16.76-23.52-26.42-34.48-3.09-3.5-6.11-6.6-9.91-9.2-5.73-3.92-12.84-2.79-17.55,2.26-2.93,3.14-4.93,6.8-6.71,10.79-1.71,3.83-4.89,10.34-5.1,14.81l-.44,9.21c-.16,3.45-.82,6.6-1.01,10.07-.69,12.07-.54,23.4,5.97,33.11.27.4,0,1.61-.25,1.66-1.81.34-5.58-2.49-7.19-3.53l-18-11.68c-9.51-6.18-18.99-11.72-29.16-16.77-5.62-2.79-11.11-4.72-17.16-6.4-8.76-2.44-18.32-.14-23.23,7.8-4.23,6.84-5.09,16.94-3.97,24.82.3,2.11.34,4.29.82,6.33,2.05,8.73,4.92,16.79,9.27,24.73,6.05,11.02,13.68,20.56,22.67,29.32,5.45,5.32,10.55,10.31,15.27,16.29,1.55,1.97,2.83,5.13,1.26,7.51-2.44,3.67-6.42,5.99-10.34,7.95l-19.97,10.02c-4.1,2.06-7.84,4.37-11.74,6.75-14.28,8.77-28.51,21.46-31.83,38.72-.66,3.44-.73,10.52-.11,14.29.67,4.09,2.23,8.1,4.19,11.61,8.5,15.26,25.62,24.34,41.28,30.74,8.4,3.44,18.42,7.04,25.02,12.93,2.79,2.49,3.26,6.07,1.45,9.18-6.13,10.55-24.42,22.11-34.58,29.44l-15.37,11.11c-7.51,5.42-22.56,17.79-25.46,26.27-1.55,4.51.21,8.84,4.31,10.76,1.12.52,3.4,1.67,4.59,1.71,6.85.25,13.1.2,19.93.04-1.43.03,12.41-2.03,12.66-2.08l5.98-1.06,5.02-1.01,6.2-1.33,5.29-1.14,4.51-.98c2.66-.58,8.32-2.53,7.93-.84-3.57,3.72-7,7.27-10.26,11.24l-5.91,7.18c-5.32,6.47-9.98,13.29-13.64,20.86-.82,1.7-4.73,11.61-2.67,13.06,2.08-4.44,3.61-8.32,6.37-12,.96-1.28,6.4-7.6,7.37-7.8.47-.1,1.49.92,1.31,1.36-.14.35-.51,1.02-.81,1.46-4.12,6.07-7.39,12.39-10.32,19.18-.43,1-1.34,2.11-.48,2.69.64.44,2.03.71,2.69.52l.36-3.72c2.73-4.38,5.76-8.48,9.69-11.81l5.84-4.94c.54-.46,2.33-.3,2.65.24.32.54.38,2.18-.14,2.73l-14.17,15.22-1.23,2.85c10.2-.39,24.77-11.07,31.93-17.08l7.12-5.98c3.2-2.69,6.02-5.51,9.18-8.32l7.68-6.83,19.41-19.52,8.3-9.3,4.34-5.38c.27-.33,1.57-.43,1.8-.12,1.68,2.27.37,6.37-.78,8.86-2.09,4.57-4.1,8.75-6.64,13.02l-17.48,29.39c-5.52,9.28-23.94,41.7-9.94,48.82,8.81,4.49,22.83-6,29.75-11.5,8.54-6.77,16.09-14.02,23.76-21.74l17.45-17.56c5.6-5.63,11.19-10.8,17.73-15.32,7.17-4.96,13.81-6.53,20.46.07,4.74,4.71,8.41,10.11,12.06,15.82,8.15,12.76,20.19,32.69,30.96,42.49,7.37,6.71,15.69,9.67,24.09,2.74,14.51-11.98,21.73-45.26,31.75-61.17,4.32-6.87,13.85,1.81,18.11,5.56l4.57,4.03c8.84,7.81,22.61,23.13,34.16,26.12,15.74,4.08,21.31-17.1,23.29-28.06l1.47-8.1c.3-1.67.29-3.24.51-5.27,1.45,1.49,2.56,2.83,3.8,4.45l3.9,5.07c1.74,2.26,3.68,4.3,5.57,6.46,3.16,3.61,6.32,7.02,10,10.08,2.6,2.17,4.92,4.52,8.36,5.73-1.52-2.79-14.96-26.32-10.66-26.09.35.02,1.13.49,1.33.84,1.69,2.95,3.91,6.05,5.84,9.01l9.66,14.91c.4.62.72,2.17,1.08,3.15,5.93-1.86,9.5-7.4,8.36-13.57-1.87-10.18-4.81-19.69-8.75-29.32-7.28-17.77-16.06-34.06-25.52-51.49,13.69,5.03,34.38,21.85,48.12,16.15,9.67-4.01,9.77-15.83,7.23-24.37l-5.64-18.91c-2.38-7.98-2.75-13.71-2.97-22.1-.07-2.77-1.09-6.06-.21-8.86,4.54-14.47,26.94-29.61,39.66-37.14,6.08-3.6,11.61-7.44,16.56-12.44,1.59-1.6,2.66-4.4,2.06-6.45-1.29-4.47-9.2-5.86-13.47-7.15-4.19-1.26-8.23-2.6-12.28-4.15l-15.47-5.91c-7.3-2.79-12.72-7.85-16.19-14.76-.3-.6-.5-1.55-.35-2.04.15-.48,1.82-.58,2.14-.16,4.96,6.63,7.88,9.02,16.13,12.1l12.47,4.66c6.24,2.33,12.13,5,18.53,6.86,2.8.81,5.44,1.68,7.9,3.17,4.22,2.55,6.53,7.45,4.85,12.42-2.28,6.76-12.19,13.54-18.33,17.48-8.7,5.59-17.13,11.17-25.04,17.81-5.81,4.87-10.54,10.19-14.34,16.69-.27.46-.61,1.8-.12,2.13,4.13,2.78,9.27,5.17,14.31,6.57,1.62.45,3.77,1.38,5.26,1.51,4.92.42,9.51.38,14.43.04,1.68-.12,4.08-1.15,5.66-1.52,5.13-1.18,8.14-4.23,11.18-8.06,2.16-2.72,5.78-4.43,8.97-6.03,13.11-6.6,26.82-10.99,41.1-14.39l4.53-1.08,6-1.4,4.04-.93c3.52-.81,9.19-1.88,9.63-5.21.49-3.76-5.25-4.66-6-4.66l-16.43-.12c-3.67-1.18,16.62-9.6,17.31-9.88,9.47-3.81,18.39-7.43,27.58-11.98,13.88-6.87,26.35-15.4,38.56-24.83l5.37-4.15,5.55-4.5,5.75-4.72,8.93-7.51,7.8-6.82,10.5-9.43c3.96-3.55,12.45-10.73,13.81-15.57.52-1.84-1.57-3.72-2.77-4.38ZM149.45,134.53c.41-5.94.84-27.16,6.78-29.49,6.46-2.53,15.38,2.17,21.55,5.26,9.34,4.68,17.01,11.4,22.71,20.18.49.76.27,2.23-.27,2.67-.54.43-2.49.52-2.91-.03-5.79-7.59-12.86-13.31-21.22-17.87-4.6-2.51-9.16-4.75-14.21-6.14-6.66-1.84-7.45,10.43-7.77,15.24-.66,9.76-.92,19.29-.71,29.06.02.73.09,1.76-.28,2.1-.43.4-1.83.08-2.32-.28-2.34-1.74-1.19-4.4-1.3-6.65-.22-4.83-.39-9.26-.06-14.05ZM139.46,385.3c-1.7.03-3.5-.07-4.86.26l-4.14.99c-3.96.95-7.65,2.46-11.43,3.95l-24.71,9.68c-3.82,1.5-9.12,2.3-13.85,4.58-.72.24-1.75-2.07-1.26-2.6,1.18-1.26,3.03-1.4,4.49-2.05l17.27-7.7c7.95-3.54,15.65-6.89,23.94-9.56,2.13-.69,4.24-.86,6.41-1.2,3.4-.54,6.99-1.63,9.97,1.04.8.72-.8,2.6-1.83,2.62ZM159.94,346.13c-.53.49-1.65.79-2.08.59-.44-.2-.5-1.68-.09-2.06,4.26-4.01,8.82-8.15,13.45-11.89,1.34-1.08,11.99-8.81,12.61-6.12l.3,1.3c-6.53,1.36-18.62,13.04-24.18,18.18ZM186.91,314.98c-11.62,2.17-22.5,6.34-32.97,11.8-6.89,3.6-12.82,7.53-19.5,11.91-.61.4-1.61.44-2.06.32-.54-.15-.65-2.12-.15-2.45l6.86-4.49c10.39-6.8,21.1-12.22,32.96-16.03,3.44-1.11,12.86-3.62,15.7-2.36.33.15-.49,1.24-.85,1.3ZM195.1,277.82c-27.36,0-49.54-22.17-49.54-49.52s22.18-49.51,49.54-49.51,49.54,22.17,49.54,49.51-22.18,49.52-49.54,49.52ZM426.83,420c.13-.53,1.46-1.32,2.05-1.15,1.57.45,2.23,2.3,2.99,3.69,4.2,7.63,8,14.9,11.51,23.19.22.52-.12,1.66-.41,1.97-.29.31-1.78.3-2.18-.24-5.22-7.22-10.69-16.44-13.82-25.03-.33-.9-.27-1.9-.13-2.42ZM426.22,303.23c-.16.16-.71.68-.98.7l-5.78.34-12.19.4c-11.15.37-21.82,1.42-32.52,3.64-.83.17-2.57.93-2.47-.27,2.47-5.65,55.79-6.76,53.93-4.8ZM346.24,151.13c7.44-7.35,18.07-17.72,26.96-22.81,3.1-1.77,5.7-.56,8.11,1.37,3.98,3.19,7.39,6.72,9.22,11.72,4.09,11.16,4.99,23.55-.77,34.32-.42.78-1.38,1.64-2,1.75-.62.11-2.17-.81-2.09-1.43,1.12-5.13,2.87-10.22,3.14-15.51.44-8.62-2.91-26.65-13.41-29.2-5.78,4.01-11.78,7.41-16.93,12.22l-11.53,10.74c-.59-.15-1.47-.65-1.45-1.1.02-.45.4-1.69.77-2.05ZM291.79,236.34c0-26.45,21.45-47.89,47.92-47.89s47.92,21.44,47.92,47.89-21.45,47.89-47.92,47.89-47.92-21.44-47.92-47.89ZM400.88,358.79c-.4,1.09-1.18,3.5-1.24,4.64-.38,8.2-.28,16.15.01,24.23l.51,14.09c.12,3.22,1.4,9.02-1.63,10-2.9.94-2.59-11.99-2.55-13.88.08-3.46-.73-6.64-.86-10.08l-.39-10.79c-.22-6.12-.45-12.24.58-18.14.66-3.75,3.37-6.18,6.81-7.22l5.93-1.8c2.75,4.49-5.28,3.74-7.19,8.95ZM438.38,322.59c-26.14-2.78-36.01-4.03-62.97-3.6-1.31.02-3.8.93-4.96,1.26-1.39.4-1.71-3.8,8.08-4.18,22.59-.88,38.17.87,60.17,3.97.36.05,1.01.89,1.07,1.23.08.42-.97,1.36-1.4,1.32Z"/>
        <ellipse cx="195.35" cy="227.98" rx="37.14" ry="37.16" transform="translate(-32.9 423.02) rotate(-89.92)"/>
        <ellipse cx="339.31" cy="235.29" rx="38.53" ry="38.55" transform="translate(103.57 574.29) rotate(-89.92)"/>
      </g>
      <path class="cls-1" d="M426.22,303.23c-.15.16-.7.68-.98.7l-5.77.33-12.19.4c-11.14.37-21.81,1.42-32.52,3.64-.83.18-2.57.94-2.47-.27,2.47-5.65,55.79-6.76,53.93-4.8Z"/>
      <path class="cls-1" d="M438.38,322.59c-26.14-2.79-36.01-4.03-62.97-3.61-1.31.02-3.8.93-4.96,1.27-1.4.4-1.71-3.8,8.08-4.18,22.59-.88,38.17.87,60.17,3.97.36.05,1.01.89,1.08,1.23.08.42-.97,1.36-1.4,1.32Z"/>
      <path class="cls-1" d="M442.96,447.69c-.29.31-1.78.3-2.18-.24-5.21-7.22-10.69-16.44-13.82-25.03-.33-.89-.27-1.9-.13-2.42.13-.52,1.45-1.32,2.04-1.15,1.57.45,2.23,2.3,2.99,3.69,4.2,7.63,8.01,14.89,11.51,23.19.22.52-.12,1.65-.41,1.96Z"/>
    </g>
  </g>
</svg>