<?xml version="1.0" encoding="UTF-8"?>
<svg id="Layer_2" data-name="Layer 2" xmlns="http://www.w3.org/2000/svg" viewBox="0 0 1000 1000">
  <defs>
    <style>
      .cls-1 {
        fill: #fff;
      }
    </style>
  </defs>
  <g id="Layer_1-2" data-name="Layer 1-2">
    <g>
      <path class="cls-1" d="M242.72,667.02v.02c0,.06-.01.12-.02.19s-.04.15-.06.23c-.04.11-.1.23-.16.36-.04.07-.09.15-.13.22-.1.16-.22.32-.35.46-.05.06-.08.11-.13.15-.06.07-.13.13-.19.19-.13.11-.27.22-.4.32-.15.1-.28.18-.42.24-.21.08-.41.15-.61.15-2.06.04-4.25-.09-5.9.32l-5.03,1.2c-1.35.33-2.67.7-3.98,1.12-.44.15-.87.29-1.31.44-.58.19-1.15.39-1.72.59-2.29.83-4.57,1.75-6.86,2.65l-30,11.75c-.29.11-.59.23-.9.33-.91.33-1.88.63-2.89.92-2.02.58-4.2,1.14-6.42,1.82-.36.11-.74.22-1.1.34-.38.12-.74.24-1.12.36-.55.19-1.1.39-1.65.61-.55.21-1.1.44-1.65.68-.36.16-.72.33-1.08.5-.13.05-.27.02-.41-.05-.09-.06-.17-.12-.26-.21-.05-.04-.1-.09-.15-.15h0c-.16-.18-.3-.4-.41-.64-.38-.69-.59-1.55-.39-1.98.01-.02.02-.06.05-.09,0-.01.01-.04.02-.05h.01c1.43-1.53,3.68-1.7,5.45-2.49l20.97-9.35,3.61-1.6c2.4-1.06,4.78-2.1,7.18-3.11,1.2-.5,2.39-1,3.59-1.49,2.4-.98,4.81-1.93,7.26-2.83,1.23-.45,2.45-.89,3.69-1.32.7-.24,1.41-.49,2.12-.72.53-.19,1.07-.38,1.61-.55.16-.05.33-.1.49-.13.16-.05.33-.1.49-.15.24-.06.49-.12.73-.18.49-.11.97-.21,1.44-.29.24-.04.49-.08.73-.12.64-.11,1.3-.19,1.94-.29.66-.1,1.31-.18,1.97-.29,4.14-.66,8.49-1.98,12.11,1.26h0s.09.1.12.15c.04.05.07.11.09.16.04.11.06.22.06.34Z"/>
      <path class="cls-1" d="M294.46,599.91c-6.45,1.34-17.34,10.94-24.81,17.87h-.01c-.57.52-1.13,1.03-1.65,1.54-1.07.98-2.04,1.89-2.88,2.67h-.01c-.64.59-2,.96-2.53.72-.04-.01-.07-.04-.1-.07l-.07-.07s-.05-.06-.06-.1c-.04-.07-.09-.15-.11-.24-.12-.39-.15-.93-.06-1.37.02-.13.06-.27.11-.38.04-.11.1-.21.17-.28,1.94-1.82,3.93-3.67,5.96-5.5.68-.61,1.36-1.21,2.05-1.83,2.73-2.44,5.51-4.83,8.32-7.1.06-.05.13-.11.23-.17.1-.08.23-.17.36-.29.22-.16.49-.35.79-.57.29-.21.62-.45.97-.7.04-.01.07-.04.11-.07.19-.15.4-.29.62-.44s.44-.3.67-.46t.01,0c.67-.45,1.37-.92,2.11-1.41h.01c.36-.23.73-.46,1.1-.7h.01c.36-.24.74-.47,1.12-.69h.01c.38-.22.74-.42,1.1-.64t.01,0c.36-.21.73-.4,1.08-.58h.01c.35-.18.69-.34,1.02-.5h.01c.24-.12.49-.22.73-.32.12-.06.23-.1.34-.13.12-.05.22-.08.33-.12.15-.04.29-.09.44-.13.27-.07.51-.12.73-.15.23-.02.45-.02.63,0,.09.01.17.04.25.07.09.04.16.07.22.13.04.02.06.05.09.09.02.01.04.04.05.05,0,0,0,.01.01.02.05.08.1.18.12.3l.36,1.57Z"/>
      <path class="cls-1" d="M298.93,582.95c-.04.1-.09.21-.16.33-.18.29-.45.61-.68.76-.05.04-.09.06-.13.08-.04.02-.07.05-.11.05-1.03.19-2.06.4-3.1.62-.51.11-1.01.22-1.51.33-.3.07-.61.13-.91.21-.78.18-1.55.38-2.33.57-1.51.39-3.01.8-4.49,1.24-.74.22-1.49.44-2.23.68-.74.22-1.47.46-2.21.72-1.06.34-2.1.7-3.14,1.08-1.04.38-2.08.75-3.11,1.15-.83.33-1.65.66-2.46.98-.87.35-1.75.72-2.62,1.09-.76.32-1.52.66-2.27,1-.81.35-1.63.73-2.43,1.11-.78.36-1.55.73-2.32,1.09-1.64.8-3.27,1.61-4.89,2.46-8.37,4.37-15.57,9.14-23.68,14.46-.26.16-.56.28-.89.35-.39.1-.8.12-1.13.1-.19-.01-.36-.04-.49-.07-.05-.01-.09-.04-.13-.07-.16-.15-.28-.41-.35-.75-.02-.09-.04-.17-.05-.27-.01-.1-.02-.19-.02-.28-.01-.17-.01-.34,0-.5,0-.07,0-.15.01-.21,0-.02,0-.05.01-.06,0-.08.01-.16.04-.23.02-.11.05-.21.08-.29.05-.09.09-.16.13-.22.02-.04.06-.07.1-.08h0s8.33-5.45,8.33-5.45c.79-.52,1.58-1.02,2.37-1.53,1.58-1.01,3.17-1.98,4.77-2.94.8-.47,1.6-.95,2.4-1.41,1.61-.92,3.23-1.82,4.87-2.7,1.63-.87,3.28-1.71,4.93-2.53,6.63-3.25,13.48-6.06,20.68-8.37,4.18-1.35,15.61-4.4,19.06-2.87.04.01.06.04.07.06.05.05.04.16-.01.29Z"/>
      <path class="cls-1" d="M314.02,363.41c-.53.44-2.23.59-3.11.24-.19-.07-.34-.17-.44-.29-.55-.72-1.09-1.41-1.65-2.09-.02-.02-.05-.05-.06-.07-.52-.63-1.06-1.26-1.6-1.87-.06-.09-.15-.18-.23-.27-.5-.57-1.01-1.13-1.53-1.68-.05-.06-.11-.12-.16-.18-.59-.62-1.2-1.24-1.81-1.83-.5-.5-1-.97-1.52-1.46-.64-.59-1.29-1.18-1.95-1.75-.58-.52-1.19-1.02-1.8-1.51-.15-.13-.29-.26-.45-.38-.4-.33-.81-.66-1.23-.97-.32-.24-.63-.49-.96-.73-.59-.45-1.2-.89-1.82-1.32-.38-.28-.76-.55-1.15-.8-.49-.34-.97-.67-1.46-.98-.42-.28-.86-.56-1.3-.83-.44-.28-.89-.56-1.35-.83-.61-.38-1.23-.74-1.85-1.09-.62-.36-1.25-.72-1.89-1.07-.85-.46-1.69-.91-2.54-1.36-.55-.28-1.09-.56-1.64-.84-.7-.36-1.41-.7-2.11-1.04-.68-.33-1.36-.64-2.04-.95-.5-.23-1.01-.45-1.52-.66-.34-.16-.69-.29-1.04-.42-1.34-.55-2.7-1.04-4.08-1.49-.75-.24-1.51-.47-2.27-.68-8.09-2.23-9.05,12.66-9.43,18.5-.8,11.85-1.12,23.42-.86,35.28v.45c.01.3.01.61,0,.9,0,.06,0,.11-.01.17,0,.06,0,.11-.01.16-.02.19-.06.36-.11.51-.04.16-.11.28-.21.36-.04.04-.07.06-.12.07-.04.04-.09.05-.13.06-.1.04-.21.06-.32.07-.24.02-.52,0-.81-.04-.18-.02-.38-.07-.56-.12-.21-.06-.4-.13-.57-.22-.12-.05-.23-.11-.32-.17-.07-.05-.13-.11-.21-.17-.06-.05-.12-.1-.18-.16-.12-.11-.22-.21-.33-.32-.11-.12-.19-.24-.28-.36-.09-.11-.15-.22-.21-.33-.16-.28-.28-.56-.36-.84-.1-.32-.16-.63-.19-.97-.01-.12-.02-.24-.02-.36-.05-.79.04-1.6.12-2.42.01-.07.01-.15.01-.22.06-.67.11-1.31.09-1.94-.27-5.85-.47-11.24-.07-17.06.06-.83.12-1.91.18-3.17.02-.28.04-.57.05-.86.01-.36.04-.73.06-1.12.05-.8.1-1.64.15-2.53.02-.29.05-.59.06-.89.01-.11.01-.22.02-.33.01-.22.04-.44.05-.67.02-.28.04-.57.06-.85.02-.32.05-.63.07-.96.04-.39.07-.79.11-1.18.04-.4.07-.8.11-1.2.06-.72.13-1.43.22-2.16.02-.24.05-.49.09-.73.02-.24.05-.49.09-.73.02-.24.06-.49.1-.73.12-.96.26-1.93.41-2.88.02-.24.07-.49.11-.72.04-.23.07-.47.12-.7.07-.46.16-.92.25-1.38.13-.69.28-1.36.44-2.02.05-.22.1-.43.16-.64.1-.44.21-.86.33-1.27.12-.4.24-.8.36-1.18.05-.19.11-.38.18-.57.12-.38.26-.75.4-1.1.13-.35.28-.69.44-1.02h0c.16-.33.3-.64.46-.93h0c.16-.3.32-.58.5-.84.07-.13.17-.27.26-.4.13-.18.27-.35.41-.52.13-.16.28-.32.42-.45.1-.1.19-.19.3-.28.1-.08.19-.17.3-.24.1-.07.21-.15.32-.22.11-.06.21-.12.32-.18.12-.05.23-.1.34-.15,1.95-.76,4.09-.98,6.33-.83.67.05,1.35.13,2.03.24.23.04.46.07.69.12.23.04.45.08.68.15.44.09.87.19,1.3.3.26.06.51.13.76.21.01,0,.02,0,.02.01.46.13.92.28,1.38.43.23.07.46.15.69.23.23.07.46.16.69.24.46.16.92.33,1.37.51h.01c.23.1.45.19.68.29.23.08.45.18.68.28.45.18.9.38,1.35.57h.01c.44.21.89.4,1.31.61.23.1.45.21.67.32.44.19.86.4,1.27.61.22.1.44.21.64.32.84.4,1.64.8,2.42,1.2.01,0,.01.01.01.01.39.19.76.39,1.14.57.7.35,1.41.73,2.1,1.09.74.4,1.48.81,2.2,1.25.63.36,1.25.74,1.86,1.12,1.32.83,2.61,1.7,3.87,2.6,2.2,1.58,4.3,3.28,6.28,5.1h.01c1,.92,1.95,1.86,2.89,2.83.95.97,1.86,1.97,2.73,3,.51.58,1,1.18,1.49,1.77h0c.46.58.91,1.17,1.36,1.76.35.46.69.93,1.03,1.41.02.04.06.08.09.12.22.32.45.63.67.96.34.49.67.98,1,1.48.11.18.19.39.26.61.24.96-.04,2.22-.57,2.65Z"/>
      <path class="cls-1" d="M350.33,436.43c-3.39-3.4-7.2-6.4-11.34-8.91-1.25-.75-2.51-1.47-3.81-2.12-1.3-.67-2.62-1.29-3.97-1.86-1.35-.57-2.72-1.09-4.12-1.57-6.06-2.05-12.54-3.16-19.29-3.16-16.61,0-31.64,6.73-42.53,17.61-.58.58-1.17,1.19-1.72,1.81-.92,1-1.81,2.03-2.67,3.08-.26.33-.52.67-.78,1.01-.47.59-.92,1.21-1.37,1.83-.44.63-.87,1.26-1.29,1.89-2,3.06-3.74,6.33-5.17,9.74-.44,1.06-.85,2.12-1.23,3.21-.08.22-.16.44-.23.66-.16.46-.3.93-.45,1.4-.3.96-.57,1.92-.83,2.88-.3,1.2-.58,2.42-.81,3.64-.72,3.68-1.08,7.49-1.08,11.38,0,1.81.09,3.61.24,5.38.09.89.18,1.76.29,2.65.21,1.53.47,3.05.79,4.54s.68,2.96,1.12,4.42c.12.41.26.83.38,1.24.27.83.55,1.64.84,2.44.17.46.35.92.52,1.37.36.91.74,1.81,1.14,2.7.21.45.41.89.62,1.32.63,1.32,1.31,2.61,2.04,3.86.49.85.98,1.68,1.51,2.49,1.04,1.63,2.16,3.19,3.35,4.71,1.49,1.89,3.1,3.69,4.8,5.39,10.89,10.88,25.92,17.61,42.53,17.61,9.86,0,19.17-2.37,27.38-6.58.86-.44,1.72-.9,2.56-1.38.84-.49,1.66-.98,2.48-1.51,1.63-1.04,3.21-2.16,4.71-3.35,1.89-1.49,3.7-3.1,5.4-4.8,10.89-10.88,17.62-25.91,17.62-42.51s-6.73-31.62-17.62-42.5ZM352.92,483.63c-.05.46-.11.92-.17,1.38-.06.45-.13.89-.22,1.34-.1.57-.21,1.14-.33,1.7-.11.56-.24,1.1-.38,1.65-.17.66-.34,1.3-.55,1.93-.13.46-.28.92-.44,1.37-.24.7-.5,1.4-.76,2.08-.12.34-.27.68-.41,1.02-.13.32-.28.64-.41.96-.5,1.09-1.03,2.17-1.61,3.22-.57,1.02-1.17,2-1.8,2.97-.21.32-.42.64-.64.96-.01.04-.04.07-.06.1-.09.13-.17.26-.27.38-.11.16-.22.32-.34.46-.23.3-.46.62-.69.92-.93,1.21-1.94,2.38-2.99,3.5-.26.28-.52.56-.8.83-.55.53-1.09,1.06-1.64,1.57,0,0-.01.01-.02.01-.29.25-.57.52-.86.76-.29.26-.6.5-.89.74-.59.5-1.2.96-1.82,1.41-1.24.91-2.53,1.76-3.86,2.55-.33.19-.67.38-1,.57-.34.18-.68.36-1.02.55-.69.36-1.38.7-2.09,1.02-.7.33-1.42.63-2.15.92-.36.13-.73.28-1.09.41,0,0,0,.01-.01.01-.61.22-1.21.42-1.83.62s-1.24.38-1.87.55c-.62.17-1.25.33-1.89.47-.59.13-1.2.25-1.81.36-.04.01-.07.02-.11.02-.57.1-1.15.18-1.72.27-2.04.28-4.13.42-6.27.42-1.55,0-3.1-.07-4.61-.23-.78-.07-1.54-.17-2.31-.29-.22-.02-.43-.06-.63-.11-.29-.05-.57-.1-.85-.15-1.55-.3-3.08-.68-4.59-1.12-.5-.16-.98-.32-1.48-.47-.36-.11-.73-.24-1.09-.38-.67-.26-1.34-.52-1.99-.8-2.03-.85-3.97-1.86-5.84-2.99-.62-.38-1.23-.76-1.82-1.17-.01,0-.02-.01-.05-.02-.59-.4-1.19-.83-1.76-1.25-.34-.25-.68-.52-1.02-.79-.3-.24-.59-.49-.89-.73-.44-.36-.87-.74-1.3-1.13-.15-.13-.28-.25-.43-.39-1.12-1.04-2.19-2.14-3.21-3.29-.21-.23-.41-.47-.62-.7-.29-.34-.57-.69-.85-1.04-.47-.61-.93-1.21-1.38-1.83-.44-.63-.87-1.26-1.29-1.91-.67-1.02-1.27-2.08-1.85-3.16-.19-.36-.38-.73-.56-1.09-.16-.29-.3-.58-.42-.87-.24-.5-.47-1.01-.69-1.52-.18-.41-.35-.84-.51-1.25-.16-.42-.33-.85-.47-1.29-.1-.28-.19-.56-.29-.85-.23-.66-.44-1.31-.62-1.98-.18-.67-.36-1.34-.51-2-.33-1.37-.58-2.76-.76-4.16-.08-.51-.15-1.02-.19-1.53-.02-.29-.05-.57-.07-.87-.05-.57-.09-1.15-.11-1.72-.01-.34-.04-.68-.04-1.02-.01-.35-.01-.69-.01-1.03,0-.64.01-1.29.05-1.92.01-.32.02-.64.05-.96.01-.32.04-.63.07-.95.04-.49.09-.96.15-1.43.06-.53.13-1.07.22-1.6.11-.74.24-1.47.39-2.19.05-.24.1-.49.16-.73.11-.5.23-.98.35-1.48.17-.66.35-1.3.55-1.94.1-.32.21-.63.32-.95.1-.32.21-.63.33-.95.12-.35.26-.7.39-1.06.11-.28.22-.58.34-.86.16-.39.32-.79.5-1.17.15-.35.32-.72.49-1.06.13-.29.27-.57.41-.85.15-.29.29-.57.44-.85.29-.56.59-1.1.91-1.65.23-.4.47-.8.73-1.2.18-.3.38-.61.57-.9.11-.17.22-.34.34-.5.19-.3.4-.61.62-.9.1-.15.21-.29.32-.44.17-.24.35-.5.55-.73.91-1.2,1.89-2.37,2.93-3.47.24-.25.5-.51.74-.76.17-.18.34-.35.52-.52.85-.84,1.72-1.64,2.62-2.4.23-.19.46-.39.69-.57.47-.38.95-.75,1.43-1.12.57-.44,1.15-.85,1.75-1.25.12-.07.24-.16.36-.23.49-.33.98-.63,1.48-.93.93-.57,1.88-1.1,2.85-1.6.74-.38,1.52-.73,2.28-1.08.39-.17.79-.34,1.18-.5,1.19-.49,2.42-.93,3.65-1.31.35-.12.7-.23,1.07-.32.61-.18,1.21-.34,1.83-.47.47-.12.95-.23,1.42-.33,2.94-.61,5.97-.92,9.08-.92.18,0,.38,0,.57.01.24.01.47.01.72.01.32,0,.63.02.95.04.44.02.87.05,1.31.08.74.05,1.47.12,2.2.22.02.01.05.01.07.01,1.1.13,2.2.32,3.28.55.04.01.08.02.12.02.72.15,1.42.3,2.12.5.53.15,1.07.29,1.6.45s1.06.33,1.58.51c2.45.83,4.8,1.86,7.03,3.07.6.32,1.18.66,1.76,1.01.76.46,1.52.95,2.25,1.46.5.34.98.69,1.47,1.06.19.13.38.28.56.43.39.29.76.61,1.14.91,1.12.92,2.19,1.89,3.21,2.91.5.5.98,1.01,1.46,1.53l.04.04c.47.52.93,1.06,1.38,1.6.35.42.69.85,1.02,1.29.22.28.44.57.64.86.27.36.53.73.79,1.1.36.53.73,1.08,1.06,1.64.11.15.19.29.28.44.24.4.49.8.7,1.21.39.67.75,1.36,1.1,2.05.26.51.5,1.03.73,1.55.13.28.26.57.38.85.09.21.17.41.27.63.15.38.29.74.44,1.12.32.84.61,1.69.87,2.54.12.35.22.72.32,1.07.1.32.18.62.26.93.09.32.16.62.23.92.11.46.21.91.3,1.37.05.23.1.46.13.69.06.34.12.69.18,1.03.06.35.11.69.16,1.04.05.35.1.69.13,1.04.05.36.09.72.12,1.08.02.25.05.51.06.76.02.35.05.7.07,1.07v.05c.04.76.06,1.54.06,2.32v.07c0,1.7-.1,3.36-.29,5.01Z"/>
      <path class="cls-1" d="M541.15,481.74c-.16-1.37-.38-2.72-.63-4.06-.13-.72-.28-1.42-.45-2.12-.33-1.41-.7-2.8-1.13-4.16-1.13-3.64-2.61-7.14-4.41-10.44-.9-1.64-1.87-3.23-2.91-4.78-1.31-1.93-2.73-3.78-4.25-5.54-.61-.7-1.24-1.4-1.88-2.06-.32-.34-.64-.67-.97-1-.33-.34-.67-.67-1-.97-.68-.66-1.36-1.27-2.06-1.88-1.41-1.23-2.88-2.37-4.4-3.45-.76-.53-1.53-1.06-2.32-1.57h-.01c-.79-.51-1.58-1-2.39-1.46-1.07-.62-2.16-1.2-3.27-1.74-1.25-.62-2.51-1.19-3.8-1.71-.44-.18-.86-.34-1.3-.51h-.01c-.73-.28-1.46-.53-2.2-.78-.56-.19-1.12-.36-1.68-.53-1.13-.33-2.27-.63-3.42-.91-.57-.13-1.15-.25-1.74-.38h-.01c-1.24-.24-2.49-.45-3.76-.63h-.01c-1.26-.17-2.55-.29-3.84-.39h-.01c-1.3-.07-2.61-.12-3.92-.12-1.02,0-2.03.02-3.04.07-1,.05-2,.12-3,.23-4.37.45-8.6,1.38-12.63,2.76-22.97,7.76-39.51,29.49-39.51,55.08,0,32.12,26.04,58.15,58.18,58.15,13.05,0,25.11-4.3,34.81-11.56.74-.56,1.47-1.13,2.19-1.72.73-.58,1.43-1.19,2.12-1.82.73-.66,1.44-1.34,2.14-2.05,1.04-1.04,2.06-2.14,3.02-3.27.33-.38.64-.76.95-1.15,1.02-1.25,1.98-2.54,2.89-3.87.9-1.34,1.76-2.7,2.55-4.1,1.8-3.17,3.3-6.52,4.48-10.03.74-2.19,1.35-4.43,1.82-6.73.79-3.81,1.2-7.78,1.2-11.84,0-2.36-.13-4.67-.4-6.95ZM467.86,531.74c-.72-.25-1.43-.51-2.14-.79h-.01c-.7-.28-1.4-.58-2.09-.89-.46-.21-.92-.42-1.37-.66-.38-.18-.73-.36-1.09-.56-1.63-.84-3.18-1.78-4.69-2.82-.38-.26-.74-.52-1.1-.79-2.28-1.66-4.41-3.52-6.35-5.56-.27-.27-.53-.55-.76-.83-.38-.41-.74-.84-1.09-1.26-.36-.42-.73-.86-1.07-1.3-.1-.12-.19-.24-.28-.36-.36-.47-.73-.96-1.07-1.44-.24-.3-.45-.61-.64-.92-.42-.62-.83-1.25-1.21-1.89-.41-.64-.78-1.29-1.13-1.95-.38-.66-.72-1.32-1.03-2.02-2.97-6.13-4.64-13.02-4.64-20.29,0-25.84,20.96-46.78,46.81-46.78,1.65,0,3.28.09,4.88.27,1.57.16,3.12.4,4.64.72.76.15,1.52.33,2.26.52.75.19,1.49.41,2.22.63.73.22,1.46.47,2.17.74.63.23,1.25.47,1.87.74.19.07.39.16.58.24.24.1.47.21.72.32.69.3,1.37.63,2.04.98.64.33,1.29.67,1.92,1.03.35.21.69.41,1.04.63.32.18.63.38.95.59.96.61,1.88,1.25,2.78,1.92.59.45,1.19.91,1.76,1.4.55.45,1.08.91,1.6,1.38.57.51,1.12,1.03,1.66,1.58.27.27.52.53.79.8,1.04,1.09,2.03,2.22,2.94,3.4,6.24,7.95,9.98,17.98,9.98,28.89,0,25.84-20.96,46.78-46.81,46.78-.41,0-.84-.01-1.25-.02-.4-.01-.81-.02-1.21-.05-.75-.04-1.49-.1-2.23-.17-.17-.01-.33-.04-.49-.06-.33-.02-.64-.06-.97-.11-.63-.07-1.27-.18-1.89-.29-.34-.05-.69-.12-1.03-.19-.15-.02-.28-.05-.43-.09-.09-.01-.18-.04-.27-.05-.42-.08-.84-.18-1.24-.27-.98-.24-1.95-.49-2.9-.79-.38-.11-.75-.23-1.12-.35Z"/>
      <path class="cls-1" d="M544.12,415.09c-.19.36-.49.75-.81,1.09-.13.13-.28.27-.41.39-.07.06-.15.12-.22.17h-.01c-.24.19-.5.34-.73.42-.07.02-.15.05-.22.06-.16.02-.38,0-.61-.07-.09-.01-.17-.05-.26-.08-.1-.04-.19-.09-.29-.13-.1-.04-.18-.08-.27-.15-.09-.05-.18-.11-.27-.17-.07-.05-.16-.11-.23-.17-.09-.07-.16-.13-.22-.19-.06-.05-.11-.11-.16-.16t-.01-.02s-.07-.1-.1-.13c-.12-.16-.18-.32-.16-.46,1.36-6.23,3.48-12.41,3.81-18.83.13-2.45,0-5.54-.42-8.85-.01-.21-.05-.42-.09-.63-.04-.21-.06-.42-.1-.63-.12-.85-.27-1.71-.44-2.57-.05-.24-.1-.47-.15-.72-.09-.41-.18-.83-.28-1.24-.05-.22-.1-.44-.15-.66-.1-.44-.21-.87-.33-1.3-.01-.05-.02-.1-.04-.13-.1-.35-.19-.7-.29-1.04-.01-.05-.02-.08-.04-.12-.12-.44-.26-.87-.4-1.3-.28-.85-.58-1.7-.9-2.53-.16-.41-.33-.83-.5-1.24-.08-.21-.17-.4-.27-.61-.17-.39-.34-.76-.53-1.15-.1-.21-.21-.41-.32-.62-.18-.36-.38-.73-.58-1.09,0-.01-.01-.02-.02-.04-.11-.18-.22-.36-.32-.55-.21-.35-.42-.7-.64-1.04-.13-.19-.27-.4-.4-.58-.11-.16-.22-.32-.34-.47-.3-.41-.62-.81-.93-1.19-.17-.19-.33-.38-.5-.57-.16-.18-.33-.36-.5-.53-.13-.15-.27-.27-.41-.4-.13-.13-.27-.27-.41-.39l-.02-.02c-.28-.25-.57-.5-.86-.72l-.02-.02c-.45-.35-.91-.67-1.38-.95-.57-.36-1.15-.67-1.77-.91-.3-.13-.62-.26-.93-.35-.33-.12-.66-.21-.98-.29-7.02,4.87-14.3,9.01-20.57,14.84l-14,13.04c-.09-.02-.18-.05-.28-.09-.1-.02-.19-.07-.29-.12-.1-.04-.19-.09-.29-.15-.05-.02-.1-.05-.15-.08-.27-.16-.5-.35-.63-.55-.09-.12-.12-.23-.12-.35.04-.55.49-2.05.93-2.49,2.26-2.22,4.76-4.69,7.41-7.22,1.32-1.27,2.7-2.55,4.08-3.84.69-.63,1.4-1.27,2.1-1.92.7-.63,1.41-1.26,2.12-1.91.53-.46,1.07-.93,1.61-1.4.53-.47,1.08-.93,1.61-1.4.72-.59,1.44-1.19,2.16-1.78.72-.58,1.44-1.17,2.16-1.72.72-.57,1.43-1.12,2.15-1.64,2.5-1.86,4.97-3.52,7.32-4.87.64-.36,1.26-.63,1.88-.8.32-.08.63-.15.93-.19.04,0,.06,0,.1-.01.32-.04.62-.05.92-.04.17,0,.33.01.47.02.19.02.39.05.57.09.05.01.1.02.13.02.23.05.46.11.68.18.19.06.39.12.58.21.39.16.78.34,1.15.55.19.1.39.22.57.33.19.12.4.25.6.39.42.28.84.59,1.25.92.3.24.59.47.89.73.29.24.6.49.87.74.39.34.78.68,1.15,1.02.46.43.92.86,1.37,1.3.42.42.85.86,1.25,1.31.26.28.5.55.73.84.02.01.04.04.05.05.1.11.18.22.28.33.23.28.46.57.68.86.23.29.45.59.67.91.22.3.43.62.63.93.21.32.41.64.61.97.19.33.38.67.56,1.01.17.32.34.64.5.98.01.04.04.06.05.1h0s.02.07.04.1c.15.28.28.57.4.87.05.09.09.18.11.28,0,.01.01.02.01.04.12.28.23.57.34.86,4.97,13.55,6.06,28.58-.95,41.66Z"/>
      <path class="cls-1" d="M566.73,629.61c-.11.17-.23.33-.38.49-.15.15-.3.29-.49.44h-.01c-.27.22-.58.42-.91.62-.12.06-.24.12-.35.19-.23.15-.47.28-.73.4-.26.13-.52.27-.78.41-.25.15-.52.29-.79.44-.13.07-.27.16-.4.23h-.01c-.13.08-.27.16-.39.24-.27.17-.53.34-.79.52-.13.08-.27.18-.39.28h-.01c-.24.21-.49.4-.72.62-.12.11-.23.22-.34.34-.12.12-.23.23-.33.36-.09.1-.17.19-.25.3-.06.07-.11.15-.16.22-.06.08-.12.17-.18.27-.1.15-.18.29-.26.44-.09.15-.17.3-.23.46-.07.16-.15.32-.21.49s-.12.35-.19.57c-.07.21-.15.44-.23.68-.1.32-.21.66-.32,1.01-.1.3-.18.62-.27.93-.04.13-.07.27-.11.4-.15.56-.26,1.08-.33,1.53-.02.18-.05.35-.05.51-.46,9.96-.34,19.61.01,29.42l.62,17.11c.1,2.62.83,6.65.19,9.39-.06.27-.13.51-.23.75h0c-.09.25-.19.49-.32.69-.12.19-.26.39-.42.56-.07.08-.16.17-.26.24-.09.07-.18.13-.28.21-.21.13-.43.24-.67.32-.18.06-.36.07-.52.04-.06,0-.11-.01-.16-.04-.06-.01-.11-.04-.16-.07-.05-.02-.1-.06-.15-.1h-.01c-.06-.06-.12-.11-.18-.18-.07-.08-.15-.17-.22-.27-.07-.11-.13-.22-.21-.34-.06-.12-.12-.24-.18-.39-.06-.13-.12-.28-.17-.44-.13-.38-.24-.8-.35-1.26-.06-.25-.12-.53-.17-.81-.01-.1-.04-.19-.05-.29-.1-.59-.18-1.23-.26-1.88-.01-.07-.01-.15-.02-.23-.05-.53-.1-1.07-.13-1.61-.01-.19-.02-.39-.04-.58-.02-.39-.05-.78-.06-1.15-.01-.19-.02-.39-.02-.58-.02-.35-.02-.7-.04-1.04v-.08c-.04-1.75-.04-3.33-.01-4.4,0-.38,0-.69.01-.92.01-.07.01-.15.01-.21v-.52c0-.45-.01-.89-.04-1.32-.01-.44-.05-.87-.09-1.3-.04-.44-.07-.86-.12-1.3-.02-.32-.07-.64-.11-.96,0-.05-.01-.08-.01-.13-.04-.28-.07-.57-.11-.85-.07-.63-.16-1.26-.23-1.91,0-.02-.01-.06-.01-.09-.04-.3-.07-.61-.1-.91-.06-.49-.11-.97-.15-1.47-.04-.49-.07-.98-.09-1.48l-.47-13.1c-.01-.4-.04-.79-.05-1.19-.02-.4-.02-.79-.04-1.18-.04-.79-.06-1.58-.09-2.37-.07-2.65-.11-5.28-.02-7.9.01-.52.02-1.06.06-1.58.01-.4.04-.8.06-1.2.04-.66.1-1.3.16-1.94.04-.46.09-.92.13-1.37.07-.58.15-1.17.23-1.75.04-.27.07-.52.12-.78.04-.25.09-.51.13-.76.1-.57.24-1.1.41-1.63.09-.28.19-.55.3-.8.1-.23.21-.46.33-.68.11-.24.24-.47.39-.69.13-.22.28-.44.44-.64.3-.41.63-.81,1-1.18.18-.18.36-.36.56-.52.19-.17.4-.34.61-.5.4-.32.84-.59,1.29-.87.91-.52,1.89-.95,2.94-1.26l7.2-2.19h.01c.12.19.22.38.3.56,0,.01.01.01.01.01.19.4.3.76.34,1.1.09.55-.04,1.02-.29,1.43Z"/>
      <g>
        <path d="M167,690.16c-.21.42.01,1.29.39,1.98-.36-.69-.57-1.55-.39-1.98ZM167.07,690.02s-.02.04-.02.05c.01-.01.02-.04.04-.05h-.01ZM207.88,671.98c2.4-.97,4.82-1.92,7.26-2.83-2.45.9-4.86,1.85-7.26,2.83ZM222.57,666.57c-.55.17-1.08.35-1.61.55.53-.18,1.07-.36,1.61-.53.16-.06.33-.11.49-.15-.16.04-.33.09-.49.13ZM231.46,610.36h0s8.33-5.44,8.33-5.44l-8.33,5.44ZM230.35,665.11c-.66.11-1.31.19-1.97.29.66-.08,1.31-.17,1.97-.28,4.13-.66,8.49-1.98,12.11,1.26h0c-3.62-3.25-7.97-1.93-12.11-1.27ZM248.71,467.56c-.72,3.68-1.08,7.49-1.08,11.38,0,1.81.09,3.61.24,5.38-.16-1.77-.23-3.57-.23-5.39,0-3.89.36-7.69,1.07-11.36ZM248.95,491.51c.32,1.49.68,2.96,1.12,4.42-.42-1.46-.8-2.93-1.12-4.42ZM254,390.21c-.07-.06-.15-.11-.21-.16.07.06.13.12.21.17.09.06.19.12.32.17-.12-.06-.23-.12-.32-.18ZM256.82,390.55s-.06.06-.11.09c.05-.01.08-.04.12-.07.1-.09.17-.21.21-.36-.06.15-.12.27-.22.35ZM262.18,620.85c-.09.44-.06.98.06,1.37-.11-.39-.13-.93-.06-1.37ZM262.46,620.2c-.07.07-.13.17-.17.28.05-.12.11-.21.18-.27,1.93-1.82,3.92-3.67,5.95-5.51-2.03,1.83-4.02,3.68-5.96,5.5ZM267.46,334.21c-8.09-2.23-9.05,12.66-9.43,18.5-.8,11.85-1.12,23.42-.86,35.28,0,.15.01.3.01.46v-.45c-.25-11.86.06-23.43.86-35.28.39-5.84,1.35-20.74,9.43-18.5.76.21,1.52.44,2.27.68-.75-.26-1.52-.49-2.28-.69ZM278.79,605.76c-2.8,2.27-5.59,4.66-8.32,7.1,2.73-2.43,5.51-4.82,8.33-7.09.06-.05.13-.11.22-.18-.1.06-.17.12-.23.17ZM298.94,582.65c.04.07.02.17-.01.29.05-.13.06-.24.01-.29ZM314.59,360.76c.22.96-.05,2.2-.58,2.63-.53.42-2.22.58-3.1.26.87.35,2.57.19,3.11-.24.53-.42.81-1.69.57-2.65ZM491.33,385.25l-.02-.02c-.45.44-.9,1.94-.93,2.49,0,.12.04.23.12.35-.06-.11-.1-.22-.1-.33.02-.55.49-2.05.93-2.49ZM498.71,378c1.32-1.26,2.7-2.55,4.08-3.84-1.38,1.29-2.76,2.56-4.08,3.84ZM527.03,573.32c.56-.18,1.18-.35,1.83-.53-.67.17-1.27.34-1.83.53ZM533.69,571.78c1.55-.27,3.21-.52,4.97-.75-1.76.23-3.41.47-4.97.75ZM542.54,387.79c.42,3.31.56,6.4.42,8.85-.33,6.42-2.45,12.6-3.81,18.83-.02.15.04.3.16.46-.1-.16-.16-.3-.13-.45,1.36-6.23,3.48-12.41,3.81-18.83.12-2.46,0-5.54-.45-8.86ZM554.79,701.67c-.18.06-.36.07-.52.05.16.04.34.02.52-.04.24-.07.46-.18.67-.32-.21.12-.43.22-.67.3ZM557.62,637.37h.01c.06-.17.13-.33.21-.49-.08.16-.16.32-.22.49ZM554.88,569.52c3.14-.18,6.29-.34,9.34-.46-3.05.11-6.19.25-9.34.46ZM566.36,626.5h-.01c.12.19.23.38.32.56-.09-.18-.18-.36-.3-.56ZM566.68,627.07c.18.4.29.76.34,1.1-.04-.34-.15-.7-.34-1.1ZM566.5,568.97c1.36-.05,2.68-.07,3.98-.1-1.29.02-2.62.06-3.98.1ZM574.71,568.83c1.64,0,3.17,0,4.59.02-1.42-.04-2.95-.04-4.59-.02ZM585.4,569.1c2.06.18,3.19.44,3.05.75.19-.33-.95-.58-3.05-.75ZM589.17,711.7h-.01c-.17.62-.24,1.85.16,2.93h.01c-.4-1.08-.33-2.29-.16-2.93ZM590.07,716.6c.51,1.31,1.07,2.63,1.66,3.95-.58-1.32-1.14-2.65-1.66-3.95ZM604.77,592.2c.06-.12.11-.23.11-.33,0,.1-.04.21-.11.33ZM604.85,591.77s.01.02.01.04c0,.02.01.04.01.06v-.06s0-.02-.02-.04ZM632.79,569.02s.09.09.13.12c5.01,3.38,11.26,6.28,17.37,7.98,1.97.55,4.58,1.68,6.39,1.83,3.65.32,7.16.41,10.7.34l-34.59-10.27Z"/>
        <path d="M925.63,400.31l.04.04c-2.03-1.13-4.53-.56-6.9.24-18.31,6.17-32.18,14.05-50.72,20.45-1.77.61-8.52,2.26-8.65-.21-.11-2.25.18-5.66.98-7.83l8.73-23.71c3.81-10.37,6.96-20.43,8.52-31.5.32-2.25-1.37-5.42-3.24-6.35-1.85-.92-4.7-.52-6.02.61l-12.48,10.62c-3.91,3.33-8.03,6.1-12.81,7.93-7.09,2.72-1.57-20.08-.9-22.64l1.63-6.18,1.42-5.4,1.19-4.8,1.41-6,1.58-7.22,1.3-6.87.47-6.88c.63-9.05,2.05-14.84-.85-26.71-2.14-8.74-4.64-14.92-10.6-21.72-3.24-3.69-7.69-6.8-12.79-4.81-4.03,1.57-6.05,5.69-7.14,9.85-.68,2.56-1.63,5.45-1.95,7.98l-1.19,9.13-1.37,14.55c-.52,5.61-.02,11.23-1.13,16.73-.81,4.09-.56,8.26-1.15,12.35l-1.32,9.07-.91,4.98c-.87,4.75-2.63,9.17-4.61,13.54-2.51-1.46-2.28-3.73-2.8-6.11-.5-2.28-.98-4.49-.98-6.9,0-2.67-.73-5.33-.92-7.92-.45-6-.96-11.63-1.77-17.52-.68-4.91-1.75-19.27-9.53-17.52-5.1,1.15-8.41,15.44-9.42,20.25l-1.08,5.16c-.55,2.61-.91,5.11-1.27,7.83l-1.24,9.06c-.79,5.79-.7,11.3-1.61,17.1l-.95,6.05c-.62,3.97.1,8.09-.45,11.98-.32,2.28-.98,4.44-.96,6.79.04,2.67-.32,5-.86,7.48-1.21,5.5-3.02,16-10.25,16.44-5.61.34-13.59-5.44-19.38-6.1-4.26.87-7.3,3.47-7.88,7.67l-1.24,9.02c-.55,3.98-1.08,7.52-.96,11.68.07,2.44-1.65,8.85-3.98,9.93-7.41,3.42-19-8.79-27.02-10.65-1.29-.07-4.1.02-5.45.07-4.25,2.4-6.08,6.84-7.1,11.36-2.12,9.4.47,5.9-2.14,14.08l-6.68-.32-19.37-1.3-3.87-.07-16.68-.33-7.38-.57c-2.71-.21-4.59-.29-6.12-.35-3.42-.15-5.15-.22-10.59-1.4-2.9-.63-5.6-1.13-7.82-3.56,3.31-5.71,7.33-10.07,12.23-14.16,9.18-7.69,18.46-14.52,28.25-21.48l34.06-24.17c10.7-7.6,20.93-15.15,30.35-24.2,6.99-6.71,15.47-18.15,8.14-27.43-3.21-4.07-7.95-6.08-13.04-7.09-10.44-2.08-20.87-2.78-31.57-1.97l-22.67,1.72-13.89,1.38c-3.72.36-7.07.98-11,1.03-2.54.04-6.5,2.02-9.05,1.01-5.83-2.56-11.38-5.84-16.5-9.47-1.95-3.91-.73-8.71-.62-12.8.09-3.14.36-5.69,1.25-8.64,4.02-13.34,8.94-25.83,13.98-38.79,3.38-8.69,6.56-17,8.73-26.02,1.09-4.55,1.77-8.6.11-13.11-3.33-9.03-13.27-7.86-20.79-5.09-6.59,2.43-12.68,5.17-18.89,8.58-15.75,8.62-30.67,17.67-45.5,27.88l-44.14,30.39c-10.13,6.97-20.02,13.37-30.9,18.93-6.85,3.51-15.72,7.58-23.25,6.11-9.58-1.87-13.5-17.25-15.04-25.47l-1.77-9.45-1.18-8.6-1.51-11.41c-.64-4.87-1.61-9.57-2.51-14.39-1.93-10.3-5.72-23.46-14.55-29.97-4.88-3.59-11.77-3.12-16.77.19-3.76,2.5-6.99,5.52-9.82,9.14-16.03,20.51-28.39,48.64-39,72.63-3.44,7.77-6.82,15.09-10.98,22.47-1.25,2.22-5.62,8.95-8.91,7.16-5.68-3.07-9.53-7.78-13.37-12.74-2.79-3.61-5.48-6.96-8.07-10.76-10.03-14.63-20.35-28.56-32.08-41.86-3.75-4.25-7.42-8.01-12.03-11.17-6.96-4.76-15.59-3.39-21.31,2.74-3.56,3.81-5.99,8.26-8.15,13.1-2.08,4.65-5.94,12.55-6.19,17.98l-.53,11.18c-.19,4.19-1,8.01-1.23,12.23-.84,14.66-.66,28.41,7.25,40.2.33.49,0,1.95-.3,2.02-2.2.41-6.78-3.02-8.73-4.29l-21.86-14.18c-11.55-7.5-23.06-14.23-35.41-20.36-6.82-3.39-13.49-5.73-20.84-7.77-10.64-2.96-22.24-.17-28.21,9.47-5.14,8.31-6.18,20.57-4.82,30.14.36,2.56.41,5.21,1,7.69,2.49,10.6,5.97,20.39,11.26,30.03,7.35,13.38,16.61,24.96,27.53,35.6,6.62,6.46,12.81,12.52,18.54,19.78,1.88,2.39,3.44,6.23,1.53,9.12-2.96,4.46-7.8,7.27-12.55,9.65l-24.25,12.17c-4.98,2.5-9.52,5.31-14.25,8.2-17.34,10.65-34.62,26.06-38.65,47.01-.8,4.18-.89,12.77-.13,17.35.81,4.97,2.71,9.83,5.09,14.1,10.32,18.53,31.11,29.55,50.12,37.32,10.2,4.18,22.37,8.55,30.38,15.7,3.39,3.02,3.96,7.37,1.76,11.15-7.44,12.81-29.65,26.85-41.99,35.75l-18.66,13.49c-9.12,6.58-27.39,21.6-30.91,31.9-1.88,5.48.26,10.73,5.23,13.06,1.36.63,4.13,2.03,5.57,2.08,8.3.3,15.88.24,24.16.05-1.46,0,15.1-2.46,15.41-2.53l7.26-1.29,6.1-1.23,7.53-1.61,6.42-1.38,5.48-1.19c3.23-.7,10.1-3.07,9.63-1.02-4.33,4.52-8.5,8.83-12.46,13.65l-7.18,8.72c-6.46,7.86-12.12,16.14-16.56,25.33-1,2.06-5.74,14.1-3.24,15.86,2.53-5.39,4.38-10.1,7.73-14.57,1.17-1.55,7.77-9.23,8.95-9.47.57-.12,1.81,1.12,1.59,1.65-.17.43-.62,1.24-.98,1.77-5,7.37-8.97,15.04-12.53,23.29-.52,1.21-1.63,2.56-.58,3.27.78.53,2.46.86,3.27.63l.44-4.52c3.31-5.32,6.99-10.3,11.77-14.34l7.09-6c.66-.56,2.83-.36,3.22.29.39.66.46,2.65-.17,3.31l-17.2,18.48-1.49,3.46c12.38-.47,30.08-13.44,38.77-20.74l8.64-7.26c3.89-3.27,7.31-6.69,11.15-10.1l9.32-8.29,23.57-23.7,10.08-11.29,5.27-6.53c.33-.4,1.91-.52,2.19-.15,2.04,2.76.45,7.73-.95,10.76-2.54,5.55-4.98,10.62-8.06,15.81l-21.22,35.68c-6.7,11.27-29.07,50.63-12.07,59.28,10.7,5.45,27.72-7.29,36.12-13.96,10.37-8.22,19.54-17.02,28.85-26.4l21.19-21.32c6.8-6.84,13.59-13.11,21.53-18.6,8.71-6.02,16.77-7.93,24.84.08,5.76,5.72,10.21,12.28,14.64,19.21,9.9,15.49,24.51,39.69,37.59,51.59,8.95,8.15,19.05,11.74,29.25,3.33,17.62-14.55,26.38-54.95,38.55-74.27,5.25-8.34,16.82,2.2,21.99,6.75l5.55,4.89c10.73,9.48,27.45,28.08,41.48,31.71,19.11,4.95,25.87-20.76,28.28-34.07l1.78-9.83c.36-2.03.35-3.93.62-6.4,1.76,1.81,3.11,3.44,4.61,5.4l4.74,6.16c2.11,2.74,4.47,5.22,6.76,7.84,3.84,4.38,7.67,8.52,12.14,12.24,3.16,2.63,5.97,5.49,10.15,6.96-1.85-3.39-18.16-31.96-12.94-31.68.42.02,1.37.59,1.61,1.02,2.05,3.58,4.75,7.35,7.09,10.94l11.73,18.1c.49.75.87,2.63,1.31,3.82,7.2-2.26,11.53-8.98,10.15-16.48-2.27-12.36-5.84-23.91-10.62-35.6-8.84-21.58-19.5-41.36-30.99-62.52,16.62,6.11,41.74,26.53,58.43,19.61,11.74-4.87,11.86-19.22,8.78-29.59l-6.85-22.96c-2.89-9.69-3.34-16.65-3.61-26.83-.07-2.76-.91-5.94-.63-8.86.06-.64.18-1.27.38-1.89,5.51-17.57,32.71-35.95,48.15-45.09,7.38-4.37,14.1-9.03,20.11-15.1,1.93-1.94,3.23-5.34,2.5-7.83-1.57-5.43-11.17-7.11-16.36-8.68-5.09-1.53-9.99-3.16-14.91-5.04l-18.78-7.18c-8.86-3.39-15.44-9.53-19.66-17.92-.36-.73-.61-1.88-.42-2.48.18-.58,2.21-.7,2.6-.19,6.02,8.05,9.57,10.95,19.58,14.69l15.14,5.66c7.58,2.83,14.73,6.07,22.5,8.33,3.4.98,6.61,2.04,9.59,3.85,5.12,3.1,7.93,9.05,5.89,15.08-2.77,8.21-14.8,16.44-22.26,21.22-10.56,6.79-20.8,13.56-30.4,21.62-7.05,5.91-12.8,12.37-17.41,20.26-.3.51-.67,1.89-.29,2.45t.01.01l34.59,10.27c2.25-.02,4.5-.13,6.82-.29,2.04-.15,4.95-1.4,6.87-1.85,6.23-1.43,9.88-5.14,13.57-9.79,2.62-3.3,7.02-5.38,10.89-7.32,1.04-.52,2.09-1.04,3.13-1.54,14.97-7.16,30.57-12.07,46.77-15.93l5.5-1.31,7.29-1.7,4.91-1.13c4.27-.98,11.16-2.28,11.69-6.33.59-4.57-6.37-5.66-7.29-5.66l-19.95-.15c-4.46-1.43,20.18-11.66,21.02-12,11.5-4.63,22.33-9.02,33.49-14.55,16.85-8.34,31.99-18.7,46.82-30.15l6.52-5.04,6.74-5.46,6.98-5.73,10.84-9.12,9.47-8.28,12.75-11.45c4.81-4.31,15.12-13.03,16.77-18.9.63-2.23-1.91-4.52-3.36-5.32ZM252.35,365.07h.01c.06-.83.12-1.91.18-3.17.02-.28.04-.57.05-.86.01-.36.04-.73.06-1.12.05-.8.1-1.64.15-2.53.02-.29.05-.59.06-.89.01-.11.01-.22.02-.33.01-.22.04-.44.05-.67.02-.28.04-.57.06-.85.02-.32.05-.63.07-.96.04-.39.07-.79.11-1.18.02-.4.07-.8.11-1.2.06-.72.13-1.43.22-2.16.02-.24.05-.49.09-.73.02-.24.05-.49.09-.73.02-.24.06-.49.1-.73.11-.97.26-1.93.41-2.88.02-.24.07-.49.11-.72.04-.23.07-.47.12-.7.07-.46.16-.92.25-1.38.13-.69.28-1.36.44-2.02.04-.22.1-.44.16-.64.1-.44.21-.86.33-1.27.11-.4.23-.8.36-1.18.05-.19.11-.38.18-.57.12-.38.26-.75.4-1.1.13-.35.28-.69.44-1.02h0c.15-.34.29-.64.46-.93h0c.16-.3.32-.58.5-.84.07-.13.17-.27.26-.4.13-.18.27-.35.41-.52.13-.17.28-.32.42-.45.1-.1.19-.19.3-.28.1-.1.19-.18.3-.24.1-.1.21-.17.32-.22.11-.09.21-.13.32-.18.11-.06.22-.11.33-.16,1.95-.78,4.1-1,6.34-.81.67.04,1.35.12,2.03.24.23.04.46.07.69.12.23.04.45.08.68.15.44.09.86.18,1.3.3.26.06.51.13.76.21.01,0,.02,0,.02.01.46.12.92.27,1.38.43.23.07.46.15.69.23.23.07.46.16.69.24.46.16.92.33,1.37.51h.01c.23.1.45.19.68.29.23.08.45.18.68.28.45.18.9.38,1.35.57h.01c.44.21.89.4,1.31.61.23.1.45.21.67.32.44.19.86.4,1.27.61.22.1.44.21.64.32.84.4,1.64.8,2.42,1.2.01,0,.01.01.01.01.39.18.76.38,1.14.56.7.35,1.41.72,2.1,1.1.74.4,1.48.81,2.2,1.25.63.35,1.25.73,1.86,1.12,1.32.81,2.62,1.69,3.87,2.6,2.2,1.58,4.29,3.27,6.28,5.1h.01c1,.91,1.97,1.86,2.89,2.83.95.97,1.86,1.97,2.73,3,.52.58,1.01,1.17,1.49,1.77h0c.47.58.92,1.17,1.36,1.76.35.46.69.93,1.03,1.41.02.04.06.08.09.12.22.32.45.63.67.96.34.49.67.98,1,1.48.11.18.19.39.26.61.24.96-.04,2.22-.57,2.65-.53.44-2.23.59-3.11.24-.19-.07-.34-.17-.44-.29-.55-.72-1.09-1.41-1.65-2.09-.02-.02-.05-.05-.06-.07-.52-.63-1.06-1.26-1.6-1.87-.06-.09-.15-.18-.23-.27-.5-.57-1.01-1.13-1.53-1.68-.05-.06-.11-.12-.16-.18-.59-.62-1.2-1.24-1.81-1.83-.5-.5-1-.97-1.52-1.46-.64-.59-1.29-1.18-1.95-1.75-.58-.52-1.19-1.02-1.8-1.51-.15-.13-.29-.26-.45-.38-.4-.33-.81-.66-1.23-.97-.32-.24-.63-.49-.96-.73-.59-.45-1.2-.89-1.82-1.32-.38-.28-.76-.55-1.15-.8-.49-.34-.97-.67-1.46-.98-.42-.28-.86-.56-1.3-.83-.44-.28-.89-.56-1.35-.83-.61-.38-1.23-.74-1.85-1.09-.62-.36-1.25-.72-1.89-1.07-.85-.46-1.69-.91-2.54-1.36-.55-.28-1.09-.56-1.64-.84-.7-.36-1.41-.7-2.11-1.04-.68-.33-1.36-.64-2.04-.95-.5-.23-1.01-.45-1.52-.66-.34-.16-.69-.29-1.04-.42-1.34-.55-2.7-1.04-4.08-1.49-.75-.24-1.51-.47-2.27-.68-8.09-2.23-9.05,12.66-9.43,18.5-.8,11.85-1.12,23.42-.86,35.28v.45c.01.3.01.61,0,.9,0,.06,0,.11-.01.17,0,.06,0,.11-.01.16-.01.19-.05.36-.11.51-.04.16-.11.28-.21.36-.04.04-.07.06-.12.07-.04.04-.09.05-.13.06-.1.04-.21.06-.32.07-.24.02-.52,0-.81-.04-.18-.02-.38-.07-.56-.12-.21-.06-.4-.13-.57-.22-.12-.05-.23-.11-.32-.17-.07-.05-.13-.11-.21-.17-.06-.05-.12-.1-.18-.16-.12-.11-.22-.21-.33-.32-.11-.12-.19-.24-.28-.36-.09-.11-.15-.22-.21-.33-.16-.28-.28-.56-.36-.84-.1-.32-.16-.63-.19-.97-.01-.12-.02-.24-.02-.36-.05-.79.04-1.6.12-2.42.01-.07.01-.15.01-.22.06-.67.11-1.32.07-1.94-.27-5.86-.47-11.24-.07-17.06ZM242.72,667.04c0,.06-.01.12-.02.19s-.04.15-.06.23c-.04.11-.1.23-.16.36-.04.07-.09.15-.13.22-.1.16-.22.32-.35.46-.05.06-.08.11-.13.15-.06.07-.13.13-.19.19-.13.12-.27.22-.4.32-.15.1-.28.18-.42.24-.21.1-.41.16-.61.16h0c-2.06.02-4.25-.1-5.9.3l-5.03,1.2c-1.35.33-2.67.7-3.98,1.12-.44.15-.87.29-1.31.44-.58.19-1.15.39-1.72.59-2.29.83-4.57,1.75-6.86,2.65l-30,11.75c-.29.11-.59.23-.9.33-.91.33-1.88.63-2.89.92-2.02.58-4.2,1.14-6.42,1.82-.36.11-.74.22-1.1.34-.38.12-.74.24-1.12.36-.56.19-1.1.4-1.65.61-.56.22-1.1.45-1.65.68-.36.16-.72.33-1.08.5-.13.05-.27.02-.41-.05-.09-.05-.17-.11-.26-.21-.05-.04-.1-.09-.15-.15h0c-.16-.18-.3-.4-.41-.64-.38-.69-.59-1.55-.39-1.98.01-.02.02-.06.05-.09,0-.01.01-.04.02-.05h.01c1.43-1.53,3.68-1.7,5.45-2.49l20.97-9.35,3.61-1.6c2.4-1.06,4.78-2.1,7.18-3.11,1.2-.5,2.39-1,3.59-1.49,2.4-.98,4.81-1.93,7.26-2.83,1.23-.45,2.45-.89,3.69-1.32.7-.24,1.41-.49,2.12-.72.53-.19,1.07-.38,1.61-.55.16-.05.33-.1.49-.13.16-.05.33-.1.49-.15.24-.06.49-.12.73-.18.49-.11.97-.21,1.44-.29.24-.04.49-.08.73-.12.64-.11,1.3-.19,1.94-.29.66-.1,1.31-.18,1.97-.29,4.14-.66,8.49-1.98,12.11,1.26h0s.09.1.12.15c.04.05.07.11.09.16.04.11.06.22.06.34v.02ZM269.66,617.78h-.01c-.57.53-1.13,1.06-1.65,1.54-1.07.98-2.04,1.89-2.88,2.67h-.01c-.64.59-2,.96-2.53.72-.04-.01-.07-.04-.1-.07l-.07-.07s-.05-.06-.06-.1c-.04-.07-.09-.15-.11-.24-.12-.39-.15-.93-.06-1.37.02-.13.05-.27.11-.38.04-.11.1-.21.17-.28,1.94-1.82,3.93-3.67,5.96-5.5.68-.61,1.36-1.21,2.05-1.83,2.73-2.44,5.51-4.83,8.32-7.1.06-.05.13-.11.23-.17.11-.1.23-.18.36-.29.22-.16.49-.35.79-.57.29-.22.62-.46.97-.7.04-.01.07-.04.11-.07.19-.15.4-.29.62-.44s.44-.3.67-.46h.01c.67-.46,1.37-.93,2.11-1.41h.01c.36-.24.73-.49,1.1-.7h.01c.36-.24.74-.47,1.12-.69h.01c.36-.23.74-.44,1.1-.64h.01c.36-.21.73-.4,1.08-.58h.01c.35-.18.69-.35,1.02-.5h.01c.24-.12.49-.22.73-.32.12-.06.23-.1.34-.13.12-.05.22-.08.33-.12.15-.04.29-.09.44-.13.27-.07.51-.12.73-.15.23-.02.45-.02.63,0,.09.01.18.04.25.07.09.04.16.07.22.13.04.02.06.05.09.09.02.01.04.04.05.05,0,0,0,.01.01.02.06.08.11.18.13.3l.36,1.58c-6.45,1.35-17.34,10.95-24.82,17.86ZM298.93,582.95c-.04.1-.09.21-.16.33-.18.29-.45.61-.68.76-.05.05-.1.07-.13.08-.04.02-.07.05-.11.05-1.03.19-2.06.4-3.1.62-.51.11-1.01.22-1.51.33-.3.07-.61.13-.91.21-.78.18-1.55.38-2.33.57-1.51.39-3.01.8-4.49,1.24-.75.22-1.49.45-2.23.68-.74.23-1.47.46-2.21.72-1.06.35-2.1.7-3.14,1.08-1.04.38-2.08.75-3.11,1.15-.83.33-1.65.66-2.46.98-.87.35-1.75.72-2.62,1.09-.76.32-1.52.66-2.27,1-.81.35-1.63.73-2.43,1.11-.78.36-1.55.73-2.32,1.09-1.64.8-3.27,1.61-4.89,2.46-8.37,4.37-15.57,9.14-23.68,14.46-.26.16-.56.28-.89.35-.39.1-.8.12-1.13.1-.19,0-.35-.02-.49-.06-.05-.01-.1-.05-.13-.09-.16-.15-.28-.41-.35-.75-.02-.09-.04-.17-.05-.27-.01-.1-.02-.19-.02-.28-.01-.17-.01-.34,0-.5,0-.07,0-.15.01-.21,0-.02,0-.05.01-.06,0-.08.01-.16.04-.23.02-.11.05-.21.08-.29.04-.09.07-.16.13-.22.02-.04.06-.07.1-.08h0s8.33-5.45,8.33-5.45c.79-.52,1.58-1.02,2.37-1.53,1.58-1.01,3.17-1.98,4.77-2.94.8-.47,1.6-.95,2.4-1.41,1.61-.92,3.23-1.82,4.87-2.7,1.63-.87,3.28-1.71,4.93-2.53,6.63-3.25,13.48-6.06,20.68-8.37,4.18-1.35,15.61-4.4,19.06-2.87.04.01.06.04.07.06.05.05.04.16-.01.29ZM350.33,521.44c-1.7,1.7-3.51,3.3-5.4,4.8-1.51,1.19-3.08,2.31-4.71,3.35-.81.52-1.64,1.02-2.48,1.51-.84.49-1.7.95-2.56,1.38-8.21,4.21-17.52,6.58-27.38,6.58-16.61,0-31.64-6.73-42.53-17.61-1.7-1.7-3.3-3.5-4.8-5.39-1.19-1.52-2.31-3.08-3.35-4.71-.52-.81-1.02-1.64-1.51-2.49-.73-1.25-1.41-2.54-2.04-3.86-.21-.44-.41-.87-.62-1.32-.4-.89-.78-1.78-1.14-2.7-.17-.45-.35-.91-.52-1.37-.29-.8-.57-1.61-.84-2.44-.12-.41-.26-.83-.38-1.24-.44-1.46-.8-2.93-1.12-4.42s-.58-3.01-.79-4.54c-.11-.89-.21-1.76-.29-2.65-.16-1.77-.24-3.57-.24-5.38,0-3.89.36-7.7,1.08-11.38.23-1.23.51-2.44.81-3.64.26-.96.52-1.92.83-2.88.15-.46.29-.93.45-1.4.07-.22.15-.44.23-.66.38-1.08.79-2.15,1.23-3.21,1.43-3.41,3.17-6.68,5.17-9.74.41-.63.85-1.26,1.29-1.89.45-.62.9-1.24,1.37-1.83.26-.34.52-.68.78-1.01.86-1.06,1.75-2.09,2.67-3.08.56-.62,1.14-1.23,1.72-1.81,10.89-10.88,25.92-17.61,42.53-17.61,6.75,0,13.23,1.1,19.29,3.16,1.4.47,2.77,1,4.12,1.57,1.35.57,2.67,1.19,3.97,1.86,1.3.66,2.56,1.37,3.81,2.12,4.14,2.51,7.95,5.51,11.34,8.91,10.89,10.88,17.62,25.91,17.62,42.5s-6.73,31.63-17.62,42.51ZM589.15,711.69c.04-.12.11-.25.24-.39.04-.05.08-.1.13-.13.02-.04.06-.06.1-.1.12-.11.27-.22.41-.3.07-.05.16-.1.23-.13.28-.16.56-.28.83-.33.05-.01.11-.02.16-.02.15-.02.27-.02.38.01.15.05.28.1.41.16.05.01.1.04.15.07.07.02.13.06.19.1.07.05.15.1.22.15.09.07.18.15.27.22.04.02.06.05.09.08.15.12.28.27.41.43.16.19.3.4.45.61.35.53.64,1.13.95,1.7.1.19.19.39.29.57.07.13.15.27.22.4.32.58.63,1.15.93,1.74.32.57.63,1.15.95,1.72,1.65,3.06,3.27,6.08,4.82,9.15.4.76.79,1.54,1.17,2.31.5,1.01,1,2,1.48,3.02.27.55.53,1.1.79,1.66,1.03,2.17,2.04,4.4,3.02,6.68.28.62.55,1.24.81,1.87.27.63-.15,2.02-.5,2.39-.04.05-.11.1-.21.12-.09.02-.19.06-.33.08h-.01c-.21.02-.47.04-.73.02h-.01c-.07,0-.15-.01-.23-.02-.05-.01-.09-.01-.13-.02-.11-.01-.21-.04-.3-.07-.12-.02-.24-.07-.34-.12-.07-.04-.13-.07-.18-.12-.07-.05-.13-.11-.18-.17-2.31-3.19-4.65-6.7-6.87-10.38-.46-.74-.91-1.49-1.35-2.25-.01-.02-.02-.04-.02-.05-.46-.78-.9-1.55-1.34-2.34-.44-.75-.85-1.52-1.25-2.28-.04-.06-.07-.12-.1-.18-.4-.74-.79-1.48-1.17-2.23-.01-.02-.02-.05-.04-.07-.23-.44-.44-.89-.66-1.34-.23-.45-.45-.9-.66-1.35-.32-.66-.63-1.32-.92-1.99-.59-1.31-1.15-2.63-1.66-3.95-.27-.66-.51-1.31-.74-1.97h-.01c-.4-1.09-.33-2.32-.16-2.95ZM554.32,569.55c.18-.01.36-.02.56-.04,3.14-.21,6.29-.35,9.34-.46.76-.04,1.53-.06,2.28-.09,1.36-.05,2.68-.07,3.98-.1.46,0,.91-.01,1.37-.02.44,0,.89,0,1.32-.01.52-.01,1.03-.01,1.53-.01,1.64-.01,3.17-.01,4.59.02.35,0,.69,0,1.03.01h.15c.39.01.78.02,1.14.04s.72.02,1.06.04c.52.02,1.01.05,1.46.07.3.01.58.04.86.06h.01c.13.01.27.02.4.04,2.1.17,3.24.42,3.05.75-.01.01-.02.04-.04.05-.18.19-.85.83-1.19.85l-7.02.41-14.8.49c-13.54.45-26.49,1.72-39.49,4.42-.06.01-.13.04-.22.05-.16.04-.32.08-.5.13-.36.11-.78.22-1.14.27-.11.01-.23.02-.34.02-.12,0-.23-.01-.33-.04-.1-.01-.17-.05-.24-.11-.04-.02-.06-.06-.1-.1-.11-.12-.16-.3-.13-.56h.01c.05-.12.11-.22.18-.32s.16-.21.26-.3c.21-.19.45-.39.75-.57.13-.1.29-.18.45-.25.35-.19.76-.38,1.21-.55.22-.08.45-.17.69-.26.17-.06.35-.12.55-.18.56-.19,1.17-.36,1.83-.53h.02c.64-.17,1.32-.33,2.05-.49.02,0,.05-.01.07-.01.5-.1,1.02-.21,1.55-.3.36-.07.75-.15,1.13-.21,1.55-.28,3.21-.52,4.97-.75,1.31-.17,2.67-.34,4.08-.49.53-.06,1.07-.11,1.61-.17.06-.01.11-.01.17-.01.79-.09,1.59-.16,2.39-.23,1.61-.16,3.25-.29,4.92-.4.83-.06,1.66-.12,2.49-.17ZM491.3,385.23c2.26-2.22,4.76-4.69,7.41-7.22,1.32-1.27,2.7-2.55,4.08-3.84.69-.63,1.4-1.27,2.1-1.92.7-.63,1.41-1.26,2.12-1.91.53-.46,1.07-.93,1.61-1.4.53-.47,1.08-.93,1.61-1.4.72-.59,1.44-1.19,2.16-1.78.72-.58,1.44-1.17,2.16-1.72.72-.57,1.43-1.12,2.15-1.64,2.5-1.86,4.97-3.52,7.32-4.87.64-.36,1.26-.63,1.88-.8.32-.1.63-.16.93-.19.04,0,.06,0,.1-.01.32-.04.62-.05.92-.04.17,0,.33.01.47.02.19.01.39.05.57.09.05.01.1.02.13.02.23.05.46.11.68.18.19.06.39.12.58.21.39.15.78.33,1.15.55.19.1.39.22.57.33.19.12.4.25.6.39.42.28.84.59,1.25.92.3.24.59.47.89.73.29.24.6.49.87.74.39.34.78.68,1.15,1.02.46.43.92.86,1.37,1.3.42.42.85.86,1.25,1.31.26.28.5.55.73.84.02.01.04.04.05.05.1.11.18.22.28.33.23.28.46.57.68.86.24.3.46.61.67.91.23.3.44.62.63.93.22.32.43.64.61.97.21.33.39.67.56,1.01.18.32.35.64.5.98.02.04.05.06.05.1h0s.02.07.04.1c.15.28.28.57.4.87.05.09.09.18.11.28,0,.01.01.02.01.04.13.28.24.57.35.86,4.97,13.55,6.06,28.59-.93,41.67-.19.36-.5.75-.84,1.08-.12.15-.27.28-.41.39-.07.06-.15.12-.22.17t-.01,0c-.24.19-.5.34-.73.42-.07.02-.15.05-.22.06-.16.02-.38,0-.61-.07-.09-.01-.17-.05-.26-.08-.1-.04-.19-.09-.29-.13-.1-.04-.18-.08-.27-.15-.1-.05-.18-.1-.27-.17-.07-.05-.16-.11-.23-.17-.09-.05-.16-.12-.22-.19-.06-.05-.11-.11-.16-.16t-.01-.02s-.07-.1-.1-.13c-.12-.16-.18-.32-.16-.46,1.36-6.23,3.48-12.41,3.81-18.83.13-2.45,0-5.54-.42-8.85-.01-.21-.05-.42-.09-.63-.04-.21-.06-.42-.1-.63-.12-.85-.27-1.71-.44-2.57-.05-.24-.1-.47-.15-.72-.09-.41-.18-.83-.28-1.24-.05-.22-.1-.44-.15-.66-.1-.44-.21-.87-.33-1.3-.01-.05-.02-.1-.04-.13-.1-.35-.19-.7-.29-1.04-.01-.05-.02-.08-.04-.12-.12-.44-.26-.87-.4-1.3-.28-.85-.58-1.7-.9-2.53-.16-.41-.33-.83-.5-1.24-.08-.21-.17-.4-.27-.61-.17-.39-.35-.78-.53-1.15-.1-.21-.21-.41-.32-.62-.18-.36-.38-.73-.58-1.09,0-.01-.01-.02-.02-.04-.11-.18-.22-.36-.32-.55-.21-.35-.42-.7-.64-1.04-.13-.19-.27-.4-.4-.58-.11-.16-.22-.32-.34-.47-.3-.41-.62-.81-.93-1.19-.17-.19-.33-.38-.5-.57-.16-.18-.33-.36-.5-.53-.13-.15-.27-.27-.41-.4-.13-.13-.27-.26-.41-.39l-.02-.02c-.28-.24-.57-.49-.86-.72l-.02-.02c-.45-.34-.91-.66-1.38-.95-.57-.34-1.17-.66-1.77-.91-.3-.13-.62-.24-.93-.35-.32-.1-.64-.19-.97-.27-7.02,4.87-14.3,9-20.56,14.84l-14,13.04c-.1-.02-.19-.06-.3-.11-.1-.02-.19-.07-.29-.12-.1-.04-.19-.09-.29-.15-.05-.02-.1-.05-.15-.08-.27-.16-.5-.35-.63-.55-.09-.12-.12-.23-.12-.35.04-.55.49-2.05.93-2.49ZM483.38,546.84c-32.14,0-58.18-26.03-58.18-58.15,0-25.58,16.54-47.32,39.51-55.08,4.03-1.37,8.26-2.31,12.63-2.76,1-.11,2-.18,3-.23,1.02-.06,2.03-.09,3.05-.09,1.31,0,2.61.04,3.91.13h.01c1.29.08,2.57.22,3.84.39h.01c1.27.16,2.53.38,3.76.63h.01c.58.12,1.17.24,1.74.38,1.15.27,2.29.57,3.42.91.56.17,1.12.34,1.68.53.74.24,1.47.5,2.2.78h.01c.44.17.86.33,1.3.51,1.29.52,2.55,1.09,3.8,1.71,1.1.53,2.2,1.12,3.27,1.74.81.46,1.6.95,2.39,1.46h.01c.79.5,1.55,1.02,2.32,1.57,1.52,1.08,2.99,2.22,4.4,3.45.7.61,1.38,1.23,2.06,1.88.33.3.67.63,1,.97.33.33.66.66.97,1,.64.67,1.27,1.36,1.88,2.06,1.52,1.76,2.94,3.61,4.25,5.54,1.04,1.54,2.03,3.14,2.91,4.78,1.8,3.3,3.28,6.8,4.41,10.44.42,1.36.8,2.76,1.13,4.16.17.7.32,1.41.45,2.12.25,1.34.47,2.68.63,4.06.28,2.27.41,4.59.41,6.95,0,4.06-.41,8.01-1.21,11.84-.47,2.29-1.08,4.54-1.82,6.73-1.18,3.51-2.68,6.86-4.48,10.03-.79,1.41-1.65,2.77-2.55,4.1-.91,1.34-1.87,2.62-2.89,3.87-.3.39-.62.78-.95,1.15-.96,1.13-1.98,2.22-3.02,3.27-.69.72-1.41,1.4-2.14,2.05-.69.63-1.4,1.24-2.12,1.82-.7.61-1.44,1.18-2.19,1.72-9.7,7.26-21.76,11.56-34.81,11.56ZM566.73,629.61c-.11.17-.23.33-.38.49s-.3.3-.49.44h-.01c-.27.22-.58.42-.91.62-.12.06-.24.12-.35.19-.23.15-.47.28-.73.4-.26.13-.52.27-.78.41-.25.15-.52.29-.79.44-.13.07-.27.16-.4.23h-.01c-.13.08-.27.16-.39.24-.27.17-.53.34-.79.52-.13.08-.27.18-.39.28h-.01c-.24.21-.49.4-.72.62-.12.11-.23.22-.34.34-.12.12-.23.23-.33.36-.09.1-.17.19-.25.3-.06.07-.11.15-.16.22-.06.08-.12.17-.18.27-.1.15-.18.29-.26.44-.09.15-.17.3-.23.46-.07.16-.15.32-.21.49h.01c-.06.17-.13.35-.21.57-.07.21-.15.44-.23.68-.1.32-.21.66-.32,1.01-.1.3-.18.62-.27.93-.04.13-.07.27-.11.4-.15.56-.26,1.08-.33,1.53-.02.18-.05.35-.05.51-.46,9.96-.34,19.61.01,29.42l.62,17.11c.1,2.62.83,6.65.19,9.39-.06.27-.13.51-.23.75h0c-.09.25-.19.49-.32.69-.12.19-.26.39-.42.56-.07.08-.16.17-.26.24-.09.07-.18.13-.28.21-.21.13-.43.24-.67.32-.18.06-.36.07-.52.04-.06,0-.11-.01-.16-.04-.06-.01-.11-.04-.16-.07-.05-.02-.1-.06-.15-.1h-.01c-.06-.06-.12-.11-.18-.18-.07-.08-.15-.17-.22-.27-.07-.1-.15-.22-.21-.34-.06-.12-.12-.24-.18-.39-.06-.13-.12-.28-.17-.44-.13-.38-.24-.8-.35-1.26-.06-.25-.12-.53-.17-.81-.01-.1-.04-.19-.05-.29-.1-.59-.18-1.23-.26-1.88-.01-.07-.01-.15-.02-.23-.05-.53-.1-1.07-.13-1.61-.01-.19-.02-.39-.04-.58-.02-.39-.05-.78-.06-1.15-.01-.19-.02-.39-.02-.58-.02-.35-.02-.7-.04-1.04v-.08c-.04-1.75-.04-3.33-.01-4.4,0-.38,0-.69.01-.92v-.22c0-.17.01-.34.01-.51,0-.45-.01-.89-.04-1.32-.02-.44-.05-.87-.09-1.3-.04-.44-.07-.86-.12-1.3-.02-.32-.07-.64-.11-.96,0-.05-.01-.08-.01-.13-.04-.28-.07-.57-.11-.85-.07-.63-.16-1.26-.23-1.91,0-.02-.01-.06-.01-.09-.04-.3-.07-.61-.1-.91-.06-.49-.11-.97-.15-1.47-.05-.49-.07-.98-.1-1.49l-.47-13.1c-.01-.39-.02-.79-.04-1.18-.02-.4-.02-.79-.04-1.18-.04-.79-.06-1.58-.09-2.37-.07-2.65-.11-5.28-.02-7.9.01-.52.02-1.06.06-1.58.01-.4.04-.8.06-1.2.04-.66.1-1.3.16-1.94.04-.46.09-.92.13-1.37.07-.58.15-1.17.23-1.75.04-.27.07-.52.12-.78.04-.27.09-.52.12-.78.1-.56.24-1.11.42-1.61.09-.28.19-.55.3-.8.1-.23.21-.46.33-.68.11-.24.24-.47.39-.69.12-.22.27-.44.44-.64.29-.42.62-.81,1-1.18.17-.19.36-.36.56-.52.19-.18.4-.35.61-.5.41-.33.84-.62,1.29-.87.91-.52,1.89-.95,2.94-1.26l7.2-2.19h.01c.12.19.22.38.3.56,0,.01.01.01.01.01.19.4.3.76.34,1.1.09.55-.04,1.02-.29,1.43ZM604.88,591.87c0,.1-.04.21-.11.33-.29.55-1.18,1.25-1.59,1.21-2.68-.29-5.23-.56-7.66-.81-.57-.06-1.14-.12-1.71-.18-1.13-.12-2.23-.23-3.31-.35-.53-.06-1.07-.12-1.6-.17-1.59-.17-3.13-.33-4.63-.49-.5-.06-1-.11-1.49-.16-1.48-.15-2.93-.28-4.35-.41-1.14-.11-2.26-.22-3.36-.32-2.49-.22-4.92-.42-7.33-.59-.86-.06-1.74-.12-2.61-.18-.76-.05-1.54-.1-2.32-.15-.78-.05-1.55-.1-2.33-.13-.85-.05-1.7-.09-2.56-.12-.38-.02-.75-.04-1.14-.05-.62-.04-1.25-.06-1.88-.08-1.63-.06-3.29-.11-4.99-.15-.61-.01-1.2-.04-1.82-.04-4.66-.1-9.69-.12-15.35-.07-.95.01-1.92.02-2.9.04h-.04c-1,.01-2.02.04-3.06.05-.29,0-.64.05-1.02.11-.26.05-.52.11-.8.17-.28.06-.56.13-.84.22-.15.04-.28.07-.43.12-.28.09-.56.17-.84.25-.41.13-.8.26-1.15.36-.36.11-.68.22-.95.29-1.7.49-2.08-4.61,9.81-5.08,27.43-1.07,46.35,1.06,73.06,4.82.36.05,1,.79,1.21,1.26.04.06.06.1.06.15.01.02.02.04.01.05.02.01.02.02.02.04v.06Z"/>
        <ellipse cx="308.1" cy="478.55" rx="45.09" ry="45.12" transform="translate(-170.88 785.98) rotate(-89.92)"/>
        <ellipse cx="482.92" cy="487.44" rx="46.78" ry="46.81" transform="translate(-5.19 969.68) rotate(-89.92)"/>
      </g>
      <path class="cls-1" d="M588.45,569.86s-.02.04-.04.05c-.18.19-.85.83-1.19.85l-7.01.4-14.8.49c-13.53.45-26.48,1.72-39.49,4.42-.07.01-.15.04-.23.06-.16.04-.32.08-.5.13-.36.11-.78.22-1.14.27-.11.01-.23.02-.34.02-.12,0-.23-.01-.33-.04-.1-.02-.17-.06-.24-.11-.04-.02-.06-.06-.1-.1-.1-.12-.15-.32-.12-.57.05-.11.11-.21.18-.3s.16-.21.26-.3c.21-.19.45-.39.75-.57.13-.09.29-.17.45-.25.35-.19.76-.38,1.21-.55.22-.08.45-.17.69-.26.17-.06.35-.12.55-.18.56-.19,1.17-.36,1.83-.53h.02c.64-.17,1.32-.33,2.05-.49.02,0,.05-.01.07-.01.5-.1,1.02-.21,1.55-.3.36-.07.75-.15,1.13-.21,1.55-.28,3.21-.52,4.97-.75,1.31-.17,2.67-.34,4.08-.49.53-.06,1.07-.11,1.61-.17.06-.01.11-.01.17-.01.79-.09,1.59-.16,2.39-.23,1.61-.16,3.25-.29,4.92-.4.83-.06,1.66-.12,2.49-.17.18-.01.36-.02.56-.04,3.14-.21,6.29-.35,9.34-.46.76-.04,1.53-.06,2.28-.09,1.36-.04,2.7-.07,3.98-.1.46,0,.91-.01,1.37-.02.44,0,.89,0,1.32-.01.52-.01,1.03-.01,1.53-.01,1.64-.01,3.17-.01,4.59.02.35,0,.69,0,1.03.01h.15c.39.01.78.02,1.14.04s.72.02,1.06.04c.52.02,1.01.05,1.46.07.3.01.58.04.86.06h.01c.13.01.27.02.4.04,2.1.17,3.24.42,3.05.75Z"/>
      <path class="cls-1" d="M604.88,591.81v.06c0,.1-.05.21-.11.33-.29.55-1.18,1.25-1.59,1.21-2.68-.29-5.23-.56-7.66-.81-.57-.06-1.14-.12-1.71-.18-1.13-.12-2.23-.24-3.31-.35-.53-.06-1.07-.12-1.6-.17-1.58-.17-3.12-.34-4.63-.49-.5-.06-1-.11-1.49-.16-1.48-.15-2.93-.28-4.35-.41-1.14-.11-2.26-.22-3.36-.32-2.49-.22-4.92-.42-7.33-.59-.86-.06-1.74-.12-2.61-.18-.76-.05-1.54-.1-2.32-.15-.78-.05-1.55-.1-2.33-.13-.85-.05-1.7-.09-2.56-.12-.38-.02-.75-.04-1.14-.05-.62-.04-1.25-.06-1.88-.08-1.63-.06-3.29-.11-4.99-.15-.61-.01-1.2-.04-1.82-.04-4.66-.1-9.69-.12-15.35-.07-.95.01-1.92.02-2.9.04h-.04c-1,.01-2.02.02-3.06.04-.29,0-.64.05-1.02.12-.26.04-.52.1-.8.17-.28.06-.56.13-.84.22-.15.04-.28.07-.43.12-.28.09-.56.17-.84.25-.41.12-.8.26-1.15.36-.36.11-.68.22-.95.29-1.7.49-2.08-4.61,9.81-5.08,27.43-1.07,46.35,1.06,73.06,4.82.36.05,1,.79,1.21,1.26.02.05.05.1.06.15.01.02.02.04.01.05.02.01.02.02.02.04Z"/>
      <path class="cls-1" d="M703.14,503.44c-2.77,8.21-14.8,16.44-22.26,21.22-10.56,6.79-20.8,13.56-30.4,21.62-7.05,5.91-12.8,12.37-17.41,20.26-.3.51-.67,1.89-.29,2.45l-5.95-1.76c.06-.64.18-1.27.38-1.89,5.51-17.57,32.71-35.95,48.15-45.09,7.38-4.37,14.1-9.03,20.11-15.1,1.93-1.94,3.23-5.34,2.5-7.83-1.57-5.43-11.17-7.11-16.36-8.68-5.09-1.53-9.99-3.16-14.91-5.04l-18.78-7.18c-8.86-3.39-15.44-9.53-19.66-17.92-.36-.73-.61-1.88-.42-2.48.18-.58,2.21-.7,2.6-.19,6.02,8.05,9.57,10.95,19.58,14.69l15.14,5.66c7.58,2.83,14.73,6.07,22.5,8.33,3.4.98,6.61,2.04,9.59,3.85,5.12,3.1,7.93,9.05,5.89,15.08Z"/>
    </g>
  </g>
</svg>