<?xml version="1.0" encoding="UTF-8"?>
<svg id="Layer_2" data-name="Layer 2" xmlns="http://www.w3.org/2000/svg" viewBox="101.2 88.9 797.7 822.2">
  <defs>
    <style>
      .cls-1 {
        fill: #fff;
      }
    </style>
  </defs>
  <g id="Layer_1-2" data-name="Layer 1-2">
    <g>
      <path d="M651.81,563.82c-5.34-14.36-12.97-26.8-20.67-39.55-2.73-4.52-6.06-6.76-11.67-6.69l-60.71.72-51.75.6-81.57.79c-1.6,21.79-.03,43.09,4.89,64.65l12.66,46.68c4.71,15.82,16.13,56.17,4.68,63.41-7.1,4.49-17.23-4.32-23.74-11.75-9.42-10.76-15.81-23.17-21.25-36.48-15.01-39.73-17.79-83.76-19.89-126.38l-216.86.14c-19.99,0-40.14,2.8-57.7-4.91l-5.07-4.38c4.66-18.01,17.72-34.39,32.3-45.48l19.62-14.92c-4.98-11.85-7.84-24.17-9.42-37.36-4.36-36.34.49-72.93,12.95-107.22l-11.79-7.03c-20.01-11.91-38.41-7.11-41.27-10.99-5.69-7.74,27.31-49.3,77.64-48.98l22.84,2.09,25.88,2.19,11.91,1.07,24.59.4c21.55-1.77,55.32-19.78,73.54-32.61l35.69-25.14,41.95-29.57c82.2-54.97,195.92-88.1,290.82-49.63,20.7,8.39,38.87,19.81,57.08,32.54,16.17,11.32,30.78,23.42,43.9,38.34,32.29,36.74,55.05,80.51,67.31,127.83,2.55,9.86,4.71,18.79,5.49,28.94,3.03,38.98.31,67.81-6.69,105.83l-11.38,76.87-8.76,55.86c-1.51,9.65-3.6,18.29-4.1,28.13-1.41,27.76-4.07,54.85-3.19,82.88,1.14,36.4,6.18,71.94,13.89,107.35l8.13,21.73c8.95,23.92,18.12,47.16,24.27,72.06,1.74,7.05-1.05,15.46-5.45,20.65-3.05,3.6-9.24,3.08-12.91.71-6.4-4.14-11.24-9.91-15.7-16.13l-14.3-25.28c-24.73-43.68-36.6-83.47-43.01-133.24-2.16-16.77-3.28-32.55-2.58-49.42l2.08-49.85,4.02-61.89,1.84-25.72c.79-11.17-12.23-20.84-22.95-19.17-5.81.91-11.36,3.16-16.37,6.47-23.55,15.56-38.2,33.32-49.38,59.25l-15.85,36.75c-15.24,32.32-34.99,61.89-58.12,89.04-6.15,7.21-12.44,13.44-19.88,18.97-8.2,6.09-20.31,10.61-27.56,4.6-7.82-6.48-4.27-20.79,2.08-30.09l21.57-31.65c16.79-24.63,28.33-51.69,34.49-81.01.47-12.27-2.2-23.28-6.55-35.08h.03ZM271.09,282.26c6.16-12.85,11.96-23.92,20.95-33.64l.52-1.9c.07-.28-.86-.75-1.09-.57l-1.09.91c-5.02,5.51-10.25,11.19-14.02,17.72-2.98,5.14-7.37,11.1-5.28,17.5h.01ZM286,277.54l22.85-21.43-1.6-1.76-16.66,14.09c-4.5,3.81-7.65,8.39-11.28,13.59l1.73,1.69,4.96-6.19h0ZM286.56,334.7c0-19.98-16.2-36.18-36.19-36.18s-36.19,16.2-36.19,36.18,16.2,36.18,36.19,36.18,36.19-16.2,36.19-36.18ZM626.58,510.72c-10.29-19.14-15.32-39.7-16.63-61.12-1.85-30.36,8.95-58.68,22.85-85.15,3.42-6.5,8.42-12.07,9.79-19.87-18.12,26.49-33.81,58.8-35.84,90.84-1.6,25.14,3.4,49.6,14.6,71.81,1.73,3.43,3.92,6.29,6.32,9.28,2.48-2.57.08-3.64-1.07-5.77v-.03ZM265.05,479.95c10.94-12.16,13.62-30.21,5.73-44.53-3.57-6.45-9.79-12.18-17.62-11.71,6.66,4.95,12.45,9.22,14.79,16.66,4.31,13.68,1.71,27.81-7.81,38.58-4.29,4.85-7.82,5.13-9.42,7.74-1.35,2.2,8.27,0,14.33-6.73ZM384.25,510.9l.49-7.85c.67-10.87,3.81-20.98,3.3-32.46-3.83,13.17-4.96,26.53-6.72,40.03l.72,2.16c.14.42,1.87.43,1.92,0l.29-1.88h-.01ZM428,509.47c.45-12.8,5.2-24.16,5.52-36.68-4.61,12.27-6.73,26.32-8.24,38.38-.06.47,1.99,1.31,2.12.88s.56-1.78.59-2.57h.01ZM316.59,512.5l-16.02-9.62-4.06-3.92c-.67.59-1.45,1.34-1.24,1.78,1.87,4.13,16.87,13.02,21.33,11.75h-.01ZM290.41,502.65c-1.16-1.44-1.69-2.61-3.9-2.06,2.44,4.67,5.52,9.22,11.1,10.97l-7.19-8.91h0Z"/>
      <path class="cls-1" d="M286.56,334.7c0,19.98-16.2,36.18-36.19,36.18s-36.19-16.2-36.19-36.18,16.2-36.18,36.19-36.18,36.19,16.2,36.19,36.18ZM277.79,334.4c0-15.1-12.24-27.34-27.34-27.34s-27.34,12.24-27.34,27.34,12.24,27.34,27.34,27.34,27.34-12.24,27.34-27.34Z"/>
      <path class="cls-1" d="M626.58,510.72c1.16,2.15,3.56,3.21,1.07,5.77-2.4-2.98-4.59-5.84-6.32-9.28-11.19-22.21-16.2-46.68-14.6-71.81,2.04-32.04,17.73-64.35,35.84-90.84-1.37,7.81-6.37,13.37-9.79,19.87-13.9,26.47-24.7,54.79-22.85,85.15,1.31,21.4,6.34,41.98,16.63,61.12v.03Z"/>
      <path class="cls-1" d="M265.05,479.95c-6.06,6.73-15.68,8.94-14.33,6.73,1.6-2.59,5.13-2.87,9.42-7.74,9.54-10.76,12.11-24.9,7.81-38.58-2.34-7.44-8.14-11.71-14.79-16.66,7.84-.47,14.05,5.26,17.62,11.71,7.89,14.32,5.21,32.37-5.73,44.53Z"/>
      <path class="cls-1" d="M271.09,282.26c-2.09-6.4,2.3-12.35,5.28-17.5,3.78-6.52,9.01-12.21,14.02-17.72l1.09-.91c.22-.18,1.16.29,1.09.57l-.52,1.9c-9.01,9.73-14.79,20.79-20.95,33.64h-.01Z"/>
      <path class="cls-1" d="M286,277.54l-4.96,6.19-1.73-1.69c3.64-5.19,6.78-9.77,11.28-13.59l16.66-14.09,1.6,1.76-22.85,21.43Z"/>
      <path class="cls-1" d="M384.25,510.9l-.29,1.88c-.07.43-1.78.42-1.92,0l-.72-2.16c1.76-13.5,2.89-26.84,6.72-40.03.5,11.46-2.63,21.58-3.3,32.46l-.49,7.85h.01Z"/>
      <path class="cls-1" d="M428,509.47c-.03.78-.46,2.16-.59,2.57s-2.19-.4-2.12-.88c1.49-12.05,3.61-26.11,8.24-38.38-.32,12.53-5.07,23.88-5.52,36.68h-.01Z"/>
      <path class="cls-1" d="M316.59,512.5c-4.45,1.25-19.46-7.63-21.33-11.75-.2-.45.57-1.2,1.24-1.78l4.06,3.92,16.02,9.62h.01Z"/>
      <path class="cls-1" d="M290.41,502.65l7.19,8.91c-5.58-1.74-8.66-6.3-11.1-10.97,2.22-.54,2.75.63,3.9,2.06h0Z"/>
      <circle cx="250.44" cy="334.4" r="27.34"/>
    </g>
  </g>
</svg>