<?xml version="1.0" encoding="UTF-8"?>
<svg id="Layer_2" data-name="Layer 2" xmlns="http://www.w3.org/2000/svg" viewBox="0 0 498.63 314.57">
  <defs>
    <style>
      .cls-1 {
        fill: #fff;
      }
    </style>
  </defs>
  <g id="Layer_1-2" data-name="Layer 1">
    <g>
      <path class="cls-1" d="M63.9,291.39l-35.83,15.8c-.7.31-2.28.24-2.58-.19-.36-.53.35-1.97,1-2.3,2.89-1.5,38.12-20.49,37.41-13.31Z"/>
      <path class="cls-1" d="M64.64,280.51c-.07.58-1.56.06-2.43-.08-14.11-2.24-36.67,7.62-51.76,9.37,5.32-3.39,55.75-21.12,54.19-9.29Z"/>
      <path class="cls-1" d="M169.18,241.27c0,27.26-22.11,49.36-49.38,49.36s-49.38-22.1-49.38-49.36,22.11-49.37,49.38-49.37,49.38,22.1,49.38,49.37Z"/>
      <path class="cls-1" d="M404.38,207.78c10.39,11.6,15.14,25.72,12.37,41.13-2.2,12.2-7.39,21.73-16.7,29.74-14.93,12.84-36.52,15.01-54.06,5.4-16.56-9.08-26.91-27.53-24.73-47.13,2.25-20.27,17.16-36.81,37.49-40.49,7.48-1.36,15.54-1.26,23.38-.6,8.66.73,16.84,5.9,22.25,11.95Z"/>
      <path class="cls-1" d="M478.79,264.88c-12.92,1.97-29.01,5.49-42.71,10.38-.85.3-2.78-.44-2.79-1.02-.14-7.22,53.25-15.25,47.53-10.56-.28.23-1.25,1.08-2.03,1.2Z"/>
      <path class="cls-1" d="M485.51,289.7c-.33.37-1.51,1.06-2.2.93-14.39-2.86-30.64-5.07-45.19-5.75-.74-.03-1.65-.63-1.95-.88-.39-.34.94-1.99,1.57-2.05,14.07-1.47,31.73,2.3,46.41,5.65.63.14,1.7,1.73,1.36,2.1Z"/>
      <g>
        <path d="M485.47,200.88c-3.52-9.97-7.96-19.03-13.02-28.06.22-.74.43-1.49.64-2.24,8-28.67,11.26-67.55,11.12-96.64-.07-15.27-1.81-29.9-3.51-44.98-.62-5.42-1.77-10.51-3.71-15.61-1.03-2.68-5.1-5.91-7.71-6.56-8.54-2.11-16.24-.06-24.35,1.78-16.04,3.64-29.86,10.28-43.63,18.99-28.59,18.07-49.17,30.99-72.51,56.35-3.17,3.45-8.99,2.8-12.96,1.22-20.78-2.43-40.86-4.19-61.85-4.29-27.95-.14-59.7,3.87-87.33,9.27-7.17-9.54-14.96-18.05-24.11-25.9-24.68-21.17-51.68-39.02-80.93-53.24C52.22,6.4,43.08,3.03,33.18.43c-8.63-2.26-13.43,4.79-15.54,11.87C5.42,53.32,2.19,105.09,10.4,147.05c1.62,8.3,3.68,15.89,6.77,23.53.25.61.5,1.22.76,1.83-.67,4.16-2.28,7.71-3.86,11.61-5.16,12.72-9.03,25.58-12.38,38.86-4.56,28.1.5,61.92,10.72,88.56.24.62.48,1.24.72,1.85l90.1.33,151.47.57,187.81.38,44.15-.54c.63-.84,1.24-1.71,1.81-2.59,18.93-29.02,7.53-80.67-3-110.56ZM485.51,289.7c-.33.37-1.51,1.06-2.2.93-14.39-2.86-30.64-5.07-45.19-5.75-.74-.03-1.65-.63-1.95-.88-.39-.34.94-1.99,1.57-2.05,14.07-1.47,31.73,2.3,46.41,5.65.63.14,1.7,1.73,1.36,2.1ZM480.82,263.68c-.28.23-1.25,1.08-2.03,1.2-12.92,1.97-29.01,5.49-42.71,10.38-.85.3-2.78-.44-2.79-1.02-.14-7.22,53.25-15.25,47.53-10.56ZM416.75,248.91c-2.2,12.2-7.39,21.73-16.7,29.74-14.93,12.84-36.52,15.01-54.06,5.4-16.56-9.08-26.91-27.53-24.73-47.13,2.25-20.27,17.16-36.81,37.49-40.49,7.48-1.36,15.54-1.26,23.38-.6,8.66.73,16.84,5.9,22.25,11.95,10.39,11.6,15.14,25.72,12.37,41.13ZM169.18,241.27c0,27.26-22.11,49.36-49.38,49.36s-49.38-22.1-49.38-49.36,22.11-49.37,49.38-49.37,49.38,22.1,49.38,49.37ZM10.45,289.8c5.32-3.39,55.75-21.12,54.19-9.29-.07.58-1.56.06-2.43-.08-14.11-2.24-36.67,7.62-51.76,9.37ZM63.9,291.39l-35.83,15.8c-.7.31-2.28.24-2.58-.19-.36-.53.35-1.97,1-2.3,2.89-1.5,38.12-20.49,37.41-13.31Z"/>
        <ellipse cx="119.79" cy="241.01" rx="36.96" ry="36.96"/>
        <path d="M381.28,275.75c-21.71,7.17-42.75-6.06-47.4-26.85-2.04-9.13-.37-20.96,6.16-28.49,10.79-12.45,30.57-17.08,45.8-10.76,13.74,5.69,20.47,20.77,19.53,34.69s-10.2,26.83-24.09,31.41Z"/>
      </g>
    </g>
  </g>
</svg>