<?xml version="1.0" encoding="UTF-8"?>
<svg id="Layer_2" data-name="Layer 2" xmlns="http://www.w3.org/2000/svg" viewBox="108.6 506.7 782.8 495.3">
  <defs>
    <style>
      .cls-1 {
        fill: #fff;
      }
    </style>
  </defs>
  <g id="Layer_1-2" data-name="Layer 1-2">
    <g>
      <path class="cls-1" d="M210.4,963.8l-55.96,24.68c-1.09.48-3.56.37-4.03-.3-.56-.83.55-3.08,1.56-3.59,4.51-2.34,59.54-32,58.43-20.79Z"/>
      <path class="cls-1" d="M211.55,946.8c-.11.91-2.44.09-3.8-.12-22.04-3.5-57.28,11.9-80.84,14.64,8.31-5.29,87.08-32.99,84.64-14.51Z"/>
      <path class="cls-1" d="M374.83,885.51c0,42.58-34.53,77.1-77.13,77.1s-77.13-34.52-77.13-77.1,34.53-77.11,77.13-77.11,77.13,34.52,77.13,77.11Z"/>
      <path class="cls-1" d="M742.19,833.2c16.23,18.12,23.65,40.17,19.32,64.24-3.44,19.06-11.54,33.94-26.08,46.45-23.32,20.05-57.04,23.44-84.44,8.43-25.87-14.18-42.03-43-38.63-73.61,3.51-31.66,26.8-57.49,58.56-63.24,11.68-2.12,24.27-1.97,36.52-.94,13.53,1.14,26.3,9.22,34.75,18.66h0Z"/>
      <path class="cls-1" d="M858.42,922.39c-20.18,3.08-45.31,8.57-66.71,16.21-1.33.47-4.34-.69-4.36-1.59-.22-11.28,83.17-23.82,74.24-16.49-.44.36-1.95,1.69-3.17,1.87h0Z"/>
      <path class="cls-1" d="M868.91,961.16c-.52.58-2.36,1.66-3.44,1.45-22.48-4.47-47.86-7.92-70.58-8.98-1.16-.05-2.58-.98-3.05-1.37-.61-.53,1.47-3.11,2.45-3.2,21.98-2.3,49.56,3.59,72.49,8.82.98.22,2.66,2.7,2.12,3.28h0Z"/>
      <g>
        <path d="M868.85,822.43c-5.5-15.57-12.43-29.72-20.34-43.83.34-1.16.67-2.33,1-3.5,12.5-44.78,17.59-105.51,17.37-150.94-.11-23.85-2.83-46.7-5.48-70.25-.97-8.47-2.76-16.42-5.79-24.38-1.61-4.19-7.97-9.23-12.04-10.25-13.34-3.3-25.37-.09-38.03,2.78-25.05,5.69-46.64,16.06-68.15,29.66-44.65,28.22-76.8,48.4-113.25,88.01-4.95,5.39-14.04,4.37-20.24,1.91-32.46-3.8-63.82-6.54-96.6-6.7-43.66-.22-93.25,6.04-136.4,14.48-11.2-14.9-23.37-28.19-37.66-40.45-38.55-33.07-80.72-60.95-126.4-83.16-14.67-7.14-28.94-12.4-44.4-16.46-13.48-3.53-20.98,7.48-24.27,18.54-19.09,64.07-24.13,144.93-11.31,210.47,2.53,12.96,5.75,24.82,10.57,36.75.39.95.78,1.91,1.19,2.86-1.05,6.5-3.56,12.04-6.03,18.13-8.06,19.87-14.1,39.95-19.34,60.7-7.12,43.89.78,96.71,16.74,138.32.37.97.75,1.94,1.75,4.89h141.03s235.96,0,235.96,0h361.52c.98-1.31,2.4-3.51,3.29-4.89,29.57-45.33,11.76-126-4.69-172.68ZM868.91,961.16c-.52.58-2.36,1.66-3.44,1.45-22.48-4.47-47.86-7.92-70.58-8.98-1.16-.05-2.58-.98-3.05-1.37-.61-.53,1.47-3.11,2.45-3.2,21.98-2.3,49.56,3.59,72.49,8.82.98.22,2.66,2.7,2.12,3.28h0ZM861.59,920.51c-.44.36-1.95,1.69-3.17,1.87-20.18,3.08-45.31,8.57-66.71,16.21-1.33.47-4.34-.69-4.36-1.59-.22-11.28,83.17-23.82,74.24-16.49h0ZM761.51,897.45c-3.44,19.06-11.54,33.94-26.08,46.45-23.32,20.05-57.04,23.44-84.44,8.43-25.87-14.18-42.03-43-38.63-73.61,3.51-31.66,26.8-57.49,58.56-63.24,11.68-2.12,24.27-1.97,36.52-.94,13.53,1.14,26.3,9.22,34.75,18.66,16.23,18.12,23.65,40.17,19.32,64.24h0ZM374.83,885.51c0,42.58-34.53,77.1-77.13,77.1s-77.13-34.52-77.13-77.1,34.53-77.11,77.13-77.11,77.13,34.52,77.13,77.11ZM126.91,961.31c8.31-5.29,87.08-32.99,84.64-14.51-.11.91-2.44.09-3.8-.12-22.04-3.5-57.28,11.9-80.84,14.64ZM210.4,963.8l-55.96,24.68c-1.09.48-3.56.37-4.03-.3-.56-.83.55-3.08,1.56-3.59,4.51-2.34,59.54-32,58.43-20.79Z"/>
        <circle cx="297.69" cy="885.11" r="57.73"/>
        <path d="M706.11,939.37c-33.91,11.2-66.77-9.47-74.03-41.94-3.19-14.26-.58-32.74,9.62-44.5,16.85-19.45,47.75-26.68,71.54-16.81,21.46,8.89,31.97,32.44,30.5,54.18-1.47,21.74-15.93,41.91-37.63,49.06Z"/>
      </g>
    </g>
  </g>
</svg>