<?xml version="1.0" encoding="UTF-8"?>
<svg id="Layer_1" data-name="Layer 1" xmlns="http://www.w3.org/2000/svg" viewBox="0 0 500 500">
  <path d="M480.27,389.14c-3.42-9.73-7.77-18.56-12.69-27.36,8.26-28.14,11.6-67.32,11.46-96.42-.06-14.89-1.76-29.16-3.42-43.87-.59-5.29-1.72-10.24-3.61-15.22-.99-2.61-4.97-5.75-7.52-6.38-8.33-2.07-15.84-.06-23.75,1.72-15.64,3.55-29.11,10.03-42.53,18.52-27.89,17.63-47.96,30.22-70.71,54.95-3.1,3.36-8.76,2.73-12.64,1.18-20.27-2.37-39.85-4.08-60.31-4.18-27.26-.13-58.21,3.78-85.15,9.05-6.99-9.3-14.59-17.61-23.52-25.27-24.06-20.64-50.39-38.04-78.9-51.91-9.17-4.46-18.07-7.74-27.72-10.27-8.42-2.2-13.09,4.67-15.16,11.57-11.91,40-15.06,90.48-7.05,131.39,1.7,8.74,3.9,16.67,7.34,24.73-.65,4.05-2.23,7.52-3.76,11.32-5.04,12.4-8.8,24.94-12.07,37.9-4.55,28.03.72,61.92,11.17,88.16l87.84.31,147.7.55,183.13.38,43.05-.53c20.91-27.72,9.42-80.3-1.16-110.33ZM59.37,306.67c-.49-1.6-.88-3.24-1.21-4.88-2.9-14.78-1.75-33,2.54-47.44.74-2.49,2.44-4.97,5.48-4.18,3.49.91,6.7,2.1,10.01,3.7,10.3,5.01,19.8,11.29,28.49,18.75,2.04,1.75,3.89,3.6,5.6,5.56,1.5,1.71.86,4.38-1.22,5.29-4.96,2.14-13.75,6.13-22.49,11-8.9,4.97-17.44,10.71-22.07,13.95-1.86,1.3-4.48.43-5.14-1.75ZM123.7,483.19c-30.29,0-54.93-24.64-54.93-54.92s24.64-54.93,54.93-54.93,54.92,24.64,54.92,54.93-24.64,54.92-54.92,54.92ZM421.02,432.78c-1.46,21.58-16.09,40.59-36.41,47.3-5.77,1.9-11.7,2.87-17.61,2.87-25.53,0-47.32-17.63-52.97-42.87-3.51-15.71.48-33.09,10.17-44.27,10.71-12.38,27.41-19.75,44.65-19.75,7.58,0,14.82,1.41,21.52,4.18,19.89,8.25,32.22,29.36,30.66,52.54ZM439.69,301.67c-.31,1.65-.72,3.29-1.21,4.89-.65,2.18-3.27,3.05-5.14,1.75-4.63-3.22-13.17-8.98-22.07-13.95-8.74-4.87-17.51-8.85-22.49-11-2.08-.89-2.72-3.58-1.22-5.29,1.71-1.96,3.56-3.81,5.6-5.56,8.7-7.44,18.19-13.72,28.49-18.73,3.31-1.61,6.52-2.8,10.01-3.7,3.03-.81,4.73,1.67,5.48,4.17,4.31,14.44,5.44,32.67,2.54,47.44Z"/>
  <ellipse cx="123.7" cy="428.27" rx="36.04" ry="36.03"/>
  <path d="M383.13,397.68c-14.86-6.16-34.14-1.65-44.66,10.49-6.36,7.34-8,18.88-6.01,27.78,4.53,20.28,25.05,33.18,46.22,26.18,13.54-4.47,22.57-16.95,23.49-30.63.91-13.57-5.65-28.28-19.04-33.83Z"/>
</svg>