<?xml version="1.0" encoding="UTF-8"?>
<svg id="Layer_1" data-name="Layer 1" xmlns="http://www.w3.org/2000/svg" viewBox="0 0 500 500">
  <path d="M479.78,360.12c-.59-5.29-1.71-10.24-3.61-15.21-.99-2.62-4.96-5.77-7.52-6.4-8.32-2.06-15.84-.06-23.75,1.72-15.64,3.55-29.11,10.03-42.53,18.52-27.89,17.63-47.96,30.22-70.71,54.94-3.08,3.36-8.76,2.73-12.64,1.18-20.26-2.37-39.84-4.08-60.31-4.18-27.26-.13-58.21,3.78-85.15,9.05-6.99-9.3-14.59-17.61-23.52-25.27-24.06-20.64-50.39-38.04-78.9-51.91-9.17-4.46-18.07-7.74-27.72-10.27-8.42-2.2-13.09,4.67-15.16,11.57-11.91,40-15.06,90.48-7.05,131.39,1.71,8.74,3.9,16.67,7.34,24.73h443.31c8.17-28.1,11.48-67.04,11.36-96.02-.08-14.89-1.78-29.16-3.44-43.87ZM113.23,422.09c-4.96,2.14-13.75,6.13-22.49,11-8.9,4.97-17.44,10.71-22.07,13.95-1.86,1.3-4.48.43-5.14-1.75-.48-1.6-.88-3.24-1.21-4.89-2.9-14.78-1.75-33,2.56-47.44.73-2.49,2.43-4.97,5.46-4.18,3.49.91,6.7,2.1,10.01,3.7,10.3,5.01,19.8,11.29,28.49,18.75,2.04,1.75,3.89,3.6,5.62,5.56,1.49,1.71.84,4.38-1.23,5.29ZM443.86,440.3c-.31,1.65-.72,3.29-1.21,4.88-.65,2.18-3.27,3.05-5.14,1.75-4.63-3.22-13.17-8.98-22.07-13.95-8.74-4.87-17.51-8.85-22.49-11-2.08-.89-2.72-3.58-1.22-5.28,1.72-1.98,3.56-3.83,5.6-5.58,8.7-7.44,18.19-13.72,28.49-18.73,3.31-1.61,6.52-2.8,10.01-3.7,3.05-.81,4.73,1.67,5.48,4.17,4.31,14.44,5.44,32.67,2.54,47.44Z"/>
</svg>