<?xml version="1.0" encoding="UTF-8"?>
<svg id="Layer_2" data-name="Layer 2" xmlns="http://www.w3.org/2000/svg" viewBox="50.4 264.1 899.2 469.0">
  <g>
    <path d="M268.46,380.82l.83-49.27-.83-52.57c0-1.05.52-1.58,1.5-1.58h50.32c22.12,0,38.7,6.9,38.7,26.7,0,12.15-5.7,18.6-16.65,22.8,13.5,3,20.7,12.3,20.7,25.65,0,20.7-21.45,29.85-41.55,29.85h-51.52c-.98,0-1.5-.53-1.5-1.58ZM317.89,317.6c6.15,0,9.6-3.15,9.6-8.7s-3.45-8.7-9.6-8.7h-15.98l-.52,17.4h16.5ZM317.89,359.6c8.4,0,11.7-3,11.7-10.5,0-7.05-3.3-9.9-11.7-9.9h-16.5l.52,20.4h15.98Z"/>
    <path d="M370.31,344.15v-23.85l-.38-41.32c0-1.05.6-1.58,1.58-1.58h31.2c1.05,0,1.58.53,1.58,1.58l-.53,40.42v24.45c0,11.85,4.8,16.05,13.65,16.05,10.5,0,15.75-4.2,15.75-16.05v-23.7l-.38-41.17c0-1.05.6-1.58,1.58-1.58h27.75c1.05,0,1.57.53,1.57,1.58l-.38,41.32v23.85c0,27-15.45,40.95-45.9,40.95s-47.1-13.95-47.1-40.95Z"/>
    <path d="M472.69,380.82l.6-50.02-.6-51.82c0-1.05.6-1.58,1.57-1.58h33.3c.83,0,1.5.3,1.88,1.05l31.5,56.25-.6-7.35v-48.37c0-1.05.6-1.58,1.58-1.58h26.4c1.05,0,1.57.53,1.57,1.58l-.6,51.82.75,50.02c0,1.05-.53,1.58-1.57,1.58h-34.35c-.82,0-1.42-.38-1.88-1.12l-30.45-55.57.6,8.7v46.42c0,1.05-.53,1.58-1.58,1.58h-26.55c-.97,0-1.57-.53-1.57-1.58Z"/>
    <path d="M579.11,380.82l.67-49.42-.67-52.42c0-1.05.52-1.58,1.5-1.58h40.57c30.9,0,59.7,13.95,59.7,54s-27.75,51-59.4,51h-40.87c-.98,0-1.5-.53-1.5-1.58ZM622.69,359c15.3,0,24-7.65,24-27.9,0-21.6-10.05-30.45-24.6-30.45h-9.3l-.6,30.15.6,28.2h9.9Z"/>
    <path d="M268.46,493.32l.68-49.42-.68-52.42c0-1.05.52-1.58,1.5-1.58h40.57c30.9,0,59.7,13.95,59.7,54s-27.75,51-59.4,51h-40.87c-.98,0-1.5-.53-1.5-1.58ZM312.04,471.5c15.3,0,24-7.65,24-27.9,0-21.6-10.05-30.45-24.6-30.45h-9.3l-.6,30.15.6,28.2h9.9Z"/>
    <path d="M377.96,493.32l.82-49.12-.82-52.72c0-1.05.52-1.58,1.5-1.58h77.7c1.05,0,1.58.6,1.58,1.58v20.1c0,.97-.6,1.57-1.58,1.57h-45.82l-.38,15.3h41.1c.98,0,1.58.6,1.58,1.58v20.1c0,.98-.6,1.58-1.58,1.58h-41.1l.38,19.8h47.02c.97,0,1.57.6,1.57,1.58v20.25c0,.98-.6,1.58-1.57,1.58h-78.9c-.98,0-1.5-.53-1.5-1.58Z"/>
    <path d="M467.14,493.32l.6-49.27-.6-52.57c0-1.05.6-1.58,1.58-1.58h48.22c29.55,0,45.75,11.85,45.75,35.25,0,14.25-7.5,25.12-21.45,30.67l24.37,37.2c.67,1.05.3,1.88-.98,1.88h-34.72c-.83,0-1.5-.38-1.88-1.12l-16.95-28.12-3.83-5.55h-6.97l.45,33.22c0,1.05-.53,1.58-1.58,1.58h-30.45c-.98,0-1.58-.53-1.58-1.58ZM518.44,437.3c5.4,0,12.3-3.15,12.3-11.4,0-9.3-4.65-13.2-13.2-13.2h-17.02l-.23,24.6h18.15Z"/>
    <path d="M268.46,605.82l.75-50.47-.6-51.37c0-1.05.53-1.58,1.5-1.58h28.8c1.05,0,1.58.53,1.58,1.58l-.3,33.37,22.57-33.97c.52-.67,1.05-.98,1.88-.98h33.67c1.35,0,1.8.9.97,1.95l-33.15,41.47,42.6,59.62c.75,1.05.3,1.95-.98,1.95h-35.62c-.82,0-1.35-.38-1.88-1.05l-14.02-20.7-10.05-14.77-5.92,7.57.23,27.37c0,1.05-.52,1.58-1.58,1.58h-28.95c-.98,0-1.5-.53-1.5-1.58Z"/>
    <path d="M370.39,605.6l34.42-101.92c.3-.9.83-1.28,1.72-1.28h42c.9,0,1.5.38,1.8,1.28l33,101.92c.38,1.05-.15,1.8-1.27,1.8h-30.75c-.9,0-1.5-.45-1.8-1.35l-6-20.25h-33.9l-5.55,20.25c-.23.9-.83,1.35-1.73,1.35h-30.67c-1.12,0-1.65-.67-1.27-1.8ZM436.16,560.6l-10.12-34.35-9.45,34.35h19.57Z"/>
    <path d="M498.94,605.82l.9-51.52-.45-28.65h-27.37c-.98,0-1.58-.6-1.58-1.57v-20.1c0-.97.6-1.58,1.58-1.58h88.2c1.05,0,1.57.6,1.57,1.58v20.1c0,.97-.6,1.57-1.57,1.57h-27.37l-.45,28.65.9,51.52c0,1.05-.53,1.58-1.58,1.58h-31.2c-.97,0-1.58-.53-1.58-1.58Z"/>
    <path d="M563.89,605.82v-23.02c0-.75.22-1.35.75-1.88l50.25-55.27h-45.37c-.98,0-1.58-.6-1.58-1.57v-20.1c0-.97.6-1.58,1.58-1.58h83.7c.98,0,1.58.6,1.58,1.58v23.85c0,.82-.23,1.35-.75,1.95l-48.75,54.22h47.32c.97,0,1.58.6,1.58,1.58v20.25c0,.98-.6,1.58-1.58,1.58h-87.15c-.97,0-1.57-.6-1.57-1.58Z"/>
    <path d="M662.81,605.82l.83-49.12-.83-52.72c0-1.05.52-1.58,1.5-1.58h77.7c1.05,0,1.58.6,1.58,1.58v20.1c0,.97-.6,1.57-1.58,1.57h-45.82l-.38,15.3h41.1c.98,0,1.58.6,1.58,1.58v20.1c0,.98-.6,1.58-1.58,1.58h-41.1l.38,19.8h47.02c.97,0,1.57.6,1.57,1.58v20.25c0,.98-.6,1.58-1.57,1.58h-78.9c-.98,0-1.5-.53-1.5-1.58Z"/>
    <path d="M751.98,605.82l.6-50.02-.6-51.82c0-1.05.6-1.58,1.58-1.58h33.3c.83,0,1.5.3,1.88,1.05l31.5,56.25-.6-7.35v-48.37c0-1.05.6-1.58,1.58-1.58h26.4c1.05,0,1.58.53,1.58,1.58l-.6,51.82.75,50.02c0,1.05-.52,1.58-1.57,1.58h-34.35c-.83,0-1.42-.38-1.88-1.12l-30.45-55.57.6,8.7v46.42c0,1.05-.53,1.58-1.58,1.58h-26.55c-.98,0-1.58-.53-1.58-1.58Z"/>
    <path d="M268.46,718.32l.83-51.07-.83-50.77c0-1.05.52-1.58,1.5-1.58h75.15c1.05,0,1.58.6,1.58,1.58v20.1c0,.97-.6,1.57-1.58,1.57h-43.2l-.45,19.95h41.85c1.05,0,1.57.6,1.57,1.58v20.1c0,.97-.6,1.57-1.57,1.57h-41.85l.45,36.97c0,1.05-.52,1.58-1.57,1.58h-30.37c-.98,0-1.5-.53-1.5-1.58Z"/>
    <path d="M353.74,718.32l.6-49.27-.6-52.57c0-1.05.6-1.58,1.57-1.58h48.22c29.55,0,45.75,11.85,45.75,35.25,0,14.25-7.5,25.12-21.45,30.67l24.38,37.2c.67,1.05.3,1.88-.97,1.88h-34.72c-.82,0-1.5-.38-1.88-1.12l-16.95-28.12-3.82-5.55h-6.97l.45,33.22c0,1.05-.53,1.58-1.57,1.58h-30.45c-.97,0-1.57-.53-1.57-1.58ZM405.04,662.3c5.4,0,12.3-3.15,12.3-11.4,0-9.3-4.65-13.2-13.2-13.2h-17.02l-.22,24.6h18.15Z"/>
    <path d="M457.76,718.32l.83-49.12-.83-52.72c0-1.05.53-1.58,1.5-1.58h77.7c1.05,0,1.57.6,1.57,1.58v20.1c0,.97-.6,1.57-1.57,1.57h-45.82l-.38,15.3h41.1c.97,0,1.57.6,1.57,1.58v20.1c0,.98-.6,1.58-1.57,1.58h-41.1l.38,19.8h47.02c.97,0,1.58.6,1.58,1.58v20.25c0,.98-.6,1.58-1.58,1.58h-78.9c-.97,0-1.5-.53-1.5-1.58Z"/>
    <path d="M547.31,681.65v-23.85l-.38-41.32c0-1.05.6-1.58,1.57-1.58h31.2c1.05,0,1.57.53,1.57,1.58l-.53,40.42v24.45c0,11.85,4.8,16.05,13.65,16.05,10.5,0,15.75-4.2,15.75-16.05v-23.7l-.38-41.17c0-1.05.6-1.58,1.58-1.58h27.75c1.05,0,1.58.53,1.58,1.58l-.38,41.32v23.85c0,27-15.45,40.95-45.9,40.95s-47.1-13.95-47.1-40.95Z"/>
    <path d="M649.68,718.32l.6-50.02-.6-51.82c0-1.05.6-1.58,1.58-1.58h33.3c.82,0,1.5.3,1.88,1.05l31.5,56.25-.6-7.35v-48.37c0-1.05.6-1.58,1.57-1.58h26.4c1.05,0,1.58.53,1.58,1.58l-.6,51.82.75,50.02c0,1.05-.52,1.58-1.58,1.58h-34.35c-.83,0-1.43-.38-1.88-1.12l-30.45-55.57.6,8.7v46.42c0,1.05-.52,1.58-1.57,1.58h-26.55c-.98,0-1.58-.53-1.58-1.58Z"/>
    <path d="M756.11,718.32l.68-49.42-.68-52.42c0-1.05.53-1.58,1.5-1.58h40.57c30.9,0,59.7,13.95,59.7,54s-27.75,51-59.4,51h-40.87c-.97,0-1.5-.53-1.5-1.58ZM799.68,696.5c15.3,0,24-7.65,24-27.9,0-21.6-10.05-30.45-24.6-30.45h-9.3l-.6,30.15.6,28.2h9.9Z"/>
    <path d="M865.61,718.32l.82-49.12-.82-52.72c0-1.05.52-1.58,1.5-1.58h77.7c1.05,0,1.58.6,1.58,1.58v20.1c0,.97-.6,1.57-1.58,1.57h-45.82l-.38,15.3h41.1c.98,0,1.58.6,1.58,1.58v20.1c0,.98-.6,1.58-1.58,1.58h-41.1l.38,19.8h47.02c.97,0,1.57.6,1.57,1.58v20.25c0,.98-.6,1.58-1.57,1.58h-78.9c-.98,0-1.5-.53-1.5-1.58Z"/>
  </g>
  <path d="M54.01,308.55c19.27,45.3,50.48,84.29,89.68,113.02-6.04,24.71-9.24,50.52-9.24,77.08,0,26.55,3.2,52.36,9.24,77.06-39.2,28.72-70.41,67.72-89.68,113.02-4.41,10.36.68,22.3,11.17,26.42,26.33,10.34,54.99,16.02,84.99,16.02,24.53,0,48.17-3.79,70.37-10.84.83-.26,1.4-1.04,1.4-1.91v-439.52c0-.87-.56-1.65-1.4-1.91-22.2-7.05-45.84-10.84-70.37-10.84-30,0-58.66,5.68-84.99,16.02-10.48,4.12-15.58,16.06-11.17,26.42ZM147.09,633.74c3.85,18.05,10.37,35.1,19.13,50.74,1.27,2.29-.13,5.14-2.72,5.52-4.56.66-9.22,1-13.96,1-14,0-27.31-3.01-39.31-8.41-1.79-.82-2.64-2.89-1.95-4.73,6.82-18.11,18.21-33.99,32.76-46.21,2.17-1.81,5.48-.68,6.06,2.09ZM163.5,312.52c2.6.38,3.99,3.23,2.72,5.52-8.75,15.64-15.27,32.7-19.13,50.74-.58,2.77-3.88,3.9-6.06,2.09-14.55-12.22-25.94-28.1-32.76-46.21-.69-1.83.16-3.91,1.95-4.71,12-5.42,25.31-8.43,39.31-8.43,4.74,0,9.4.34,13.96,1Z"/>
</svg>