<?xml version="1.0" encoding="UTF-8"?>
<svg id="Layer_2" data-name="Layer 2" xmlns="http://www.w3.org/2000/svg" viewBox="265.5 49.0 469.0 899.2">
  <g>
    <path d="M617.81,267.1l49.27.83,52.57-.83c1.05,0,1.58.52,1.58,1.5v50.32c0,22.12-6.9,38.7-26.7,38.7-12.15,0-18.6-5.7-22.8-16.65-3,13.5-12.3,20.7-25.65,20.7-20.7,0-29.85-21.45-29.85-41.55v-51.52c0-.98.53-1.5,1.58-1.5ZM681.03,316.52c0,6.15,3.15,9.6,8.7,9.6s8.7-3.45,8.7-9.6v-15.98l-17.4-.52v16.5ZM639.03,316.52c0,8.4,3,11.7,10.5,11.7,7.05,0,9.9-3.3,9.9-11.7v-16.5l-20.4.52v15.98Z"/>
    <path d="M654.48,368.94h23.85l41.32-.38c1.05,0,1.58.6,1.58,1.58v31.2c0,1.05-.53,1.58-1.58,1.58l-40.42-.53h-24.45c-11.85,0-16.05,4.8-16.05,13.65,0,10.5,4.2,15.75,16.05,15.75h23.7l41.17-.38c1.05,0,1.58.6,1.58,1.58v27.75c0,1.05-.53,1.57-1.58,1.57l-41.32-.38h-23.85c-27,0-40.95-15.45-40.95-45.9s13.95-47.1,40.95-47.1Z"/>
    <path d="M617.81,471.32l50.02.6,51.82-.6c1.05,0,1.58.6,1.58,1.57v33.3c0,.83-.3,1.5-1.05,1.88l-56.25,31.5,7.35-.6h48.37c1.05,0,1.58.6,1.58,1.58v26.4c0,1.05-.53,1.57-1.58,1.57l-51.82-.6-50.02.75c-1.05,0-1.58-.53-1.58-1.57v-34.35c0-.82.38-1.42,1.12-1.88l55.57-30.45-8.7.6h-46.42c-1.05,0-1.58-.53-1.58-1.58v-26.55c0-.97.53-1.57,1.58-1.57Z"/>
    <path d="M617.81,577.74l49.42.67,52.42-.67c1.05,0,1.58.52,1.58,1.5v40.57c0,30.9-13.95,59.7-54,59.7s-51-27.75-51-59.4v-40.87c0-.98.53-1.5,1.58-1.5ZM639.63,621.32c0,15.3,7.65,24,27.9,24,21.6,0,30.45-10.05,30.45-24.6v-9.3l-30.15-.6-28.2.6v9.9Z"/>
    <path d="M505.31,267.1l49.42.68,52.42-.68c1.05,0,1.58.52,1.58,1.5v40.57c0,30.9-13.95,59.7-54,59.7s-51-27.75-51-59.4v-40.87c0-.98.53-1.5,1.58-1.5ZM527.13,310.67c0,15.3,7.65,24,27.9,24,21.6,0,30.45-10.05,30.45-24.6v-9.3l-30.15-.6-28.2.6v9.9Z"/>
    <path d="M505.31,376.6l49.12.82,52.72-.82c1.05,0,1.58.52,1.58,1.5v77.7c0,1.05-.6,1.58-1.58,1.58h-20.1c-.97,0-1.57-.6-1.57-1.58v-45.82l-15.3-.38v41.1c0,.98-.6,1.58-1.58,1.58h-20.1c-.98,0-1.58-.6-1.58-1.58v-41.1l-19.8.38v47.02c0,.97-.6,1.57-1.58,1.57h-20.25c-.98,0-1.58-.6-1.58-1.57v-78.9c0-.98.53-1.5,1.58-1.5Z"/>
    <path d="M505.31,465.77l49.27.6,52.57-.6c1.05,0,1.58.6,1.58,1.58v48.22c0,29.55-11.85,45.75-35.25,45.75-14.25,0-25.12-7.5-30.67-21.45l-37.2,24.37c-1.05.67-1.88.3-1.88-.98v-34.72c0-.83.38-1.5,1.12-1.88l28.12-16.95,5.55-3.83v-6.97l-33.22.45c-1.05,0-1.58-.53-1.58-1.58v-30.45c0-.98.53-1.58,1.58-1.58ZM561.33,517.07c0,5.4,3.15,12.3,11.4,12.3,9.3,0,13.2-4.65,13.2-13.2v-17.02l-24.6-.23v18.15Z"/>
    <path d="M392.81,267.1l50.47.75,51.37-.6c1.05,0,1.58.53,1.58,1.5v28.8c0,1.05-.53,1.58-1.58,1.58l-33.37-.3,33.97,22.57c.67.52.98,1.05.98,1.88v33.67c0,1.35-.9,1.8-1.95.97l-41.47-33.15-59.62,42.6c-1.05.75-1.95.3-1.95-.98v-35.62c0-.82.38-1.35,1.05-1.88l20.7-14.02,14.77-10.05-7.57-5.92-27.37.23c-1.05,0-1.58-.52-1.58-1.58v-28.95c0-.98.53-1.5,1.58-1.5Z"/>
    <path d="M393.03,369.02l101.92,34.42c.9.3,1.28.83,1.28,1.72v42c0,.9-.38,1.5-1.28,1.8l-101.92,33c-1.05.38-1.8-.15-1.8-1.27v-30.75c0-.9.45-1.5,1.35-1.8l20.25-6v-33.9l-20.25-5.55c-.9-.23-1.35-.83-1.35-1.73v-30.67c0-1.12.67-1.65,1.8-1.27ZM438.03,434.79l34.35-10.12-34.35-9.45v19.57Z"/>
    <path d="M392.81,497.57l51.52.9,28.65-.45v-27.37c0-.98.6-1.58,1.57-1.58h20.1c.97,0,1.58.6,1.58,1.58v88.2c0,1.05-.6,1.57-1.58,1.57h-20.1c-.97,0-1.57-.6-1.57-1.57v-27.37l-28.65-.45-51.52.9c-1.05,0-1.58-.53-1.58-1.58v-31.2c0-.97.53-1.58,1.58-1.58Z"/>
    <path d="M392.81,562.52h23.02c.75,0,1.35.22,1.88.75l55.27,50.25v-45.37c0-.98.6-1.58,1.57-1.58h20.1c.97,0,1.58.6,1.58,1.58v83.7c0,.98-.6,1.58-1.58,1.58h-23.85c-.82,0-1.35-.23-1.95-.75l-54.22-48.75v47.32c0,.97-.6,1.58-1.58,1.58h-20.25c-.98,0-1.58-.6-1.58-1.58v-87.15c0-.97.6-1.57,1.58-1.57Z"/>
    <path d="M392.81,661.44l49.12.83,52.72-.83c1.05,0,1.58.52,1.58,1.5v77.7c0,1.05-.6,1.58-1.58,1.58h-20.1c-.97,0-1.57-.6-1.57-1.58v-45.82l-15.3-.38v41.1c0,.98-.6,1.58-1.58,1.58h-20.1c-.98,0-1.58-.6-1.58-1.58v-41.1l-19.8.38v47.02c0,.97-.6,1.57-1.58,1.57h-20.25c-.98,0-1.58-.6-1.58-1.57v-78.9c0-.98.53-1.5,1.58-1.5Z"/>
    <path d="M392.81,750.61l50.02.6,51.82-.6c1.05,0,1.58.6,1.58,1.58v33.3c0,.83-.3,1.5-1.05,1.88l-56.25,31.5,7.35-.6h48.37c1.05,0,1.58.6,1.58,1.58v26.4c0,1.05-.53,1.58-1.58,1.58l-51.82-.6-50.02.75c-1.05,0-1.58-.52-1.58-1.57v-34.35c0-.83.38-1.42,1.12-1.88l55.57-30.45-8.7.6h-46.42c-1.05,0-1.58-.53-1.58-1.58v-26.55c0-.98.53-1.58,1.58-1.58Z"/>
    <path d="M280.31,267.1l51.07.83,50.77-.83c1.05,0,1.58.52,1.58,1.5v75.15c0,1.05-.6,1.58-1.58,1.58h-20.1c-.97,0-1.57-.6-1.57-1.58v-43.2l-19.95-.45v41.85c0,1.05-.6,1.57-1.58,1.57h-20.1c-.97,0-1.57-.6-1.57-1.57v-41.85l-36.97.45c-1.05,0-1.58-.52-1.58-1.57v-30.37c0-.98.53-1.5,1.58-1.5Z"/>
    <path d="M280.31,352.37l49.27.6,52.57-.6c1.05,0,1.58.6,1.58,1.57v48.22c0,29.55-11.85,45.75-35.25,45.75-14.25,0-25.12-7.5-30.67-21.45l-37.2,24.38c-1.05.67-1.88.3-1.88-.97v-34.72c0-.82.38-1.5,1.12-1.88l28.12-16.95,5.55-3.82v-6.97l-33.22.45c-1.05,0-1.58-.53-1.58-1.57v-30.45c0-.97.53-1.57,1.58-1.57ZM336.33,403.67c0,5.4,3.15,12.3,11.4,12.3,9.3,0,13.2-4.65,13.2-13.2v-17.02l-24.6-.22v18.15Z"/>
    <path d="M280.31,456.39l49.12.83,52.72-.83c1.05,0,1.58.53,1.58,1.5v77.7c0,1.05-.6,1.57-1.58,1.57h-20.1c-.97,0-1.57-.6-1.57-1.57v-45.82l-15.3-.38v41.1c0,.97-.6,1.57-1.58,1.57h-20.1c-.98,0-1.58-.6-1.58-1.57v-41.1l-19.8.38v47.02c0,.97-.6,1.58-1.58,1.58h-20.25c-.98,0-1.58-.6-1.58-1.58v-78.9c0-.97.53-1.5,1.58-1.5Z"/>
    <path d="M316.98,545.94h23.85l41.32-.38c1.05,0,1.58.6,1.58,1.57v31.2c0,1.05-.53,1.57-1.58,1.57l-40.42-.53h-24.45c-11.85,0-16.05,4.8-16.05,13.65,0,10.5,4.2,15.75,16.05,15.75h23.7l41.17-.38c1.05,0,1.58.6,1.58,1.58v27.75c0,1.05-.53,1.58-1.58,1.58l-41.32-.38h-23.85c-27,0-40.95-15.45-40.95-45.9s13.95-47.1,40.95-47.1Z"/>
    <path d="M280.31,648.32l50.02.6,51.82-.6c1.05,0,1.58.6,1.58,1.58v33.3c0,.82-.3,1.5-1.05,1.88l-56.25,31.5,7.35-.6h48.37c1.05,0,1.58.6,1.58,1.57v26.4c0,1.05-.53,1.58-1.58,1.58l-51.82-.6-50.02.75c-1.05,0-1.58-.52-1.58-1.58v-34.35c0-.83.38-1.43,1.12-1.88l55.57-30.45-8.7.6h-46.42c-1.05,0-1.58-.52-1.58-1.57v-26.55c0-.98.53-1.58,1.58-1.58Z"/>
    <path d="M280.31,754.74l49.42.68,52.42-.68c1.05,0,1.58.53,1.58,1.5v40.57c0,30.9-13.95,59.7-54,59.7s-51-27.75-51-59.4v-40.87c0-.97.53-1.5,1.58-1.5ZM302.13,798.31c0,15.3,7.65,24,27.9,24,21.6,0,30.45-10.05,30.45-24.6v-9.3l-30.15-.6-28.2.6v9.9Z"/>
    <path d="M280.31,864.24l49.12.82,52.72-.82c1.05,0,1.58.52,1.58,1.5v77.7c0,1.05-.6,1.58-1.58,1.58h-20.1c-.97,0-1.57-.6-1.57-1.58v-45.82l-15.3-.38v41.1c0,.98-.6,1.58-1.58,1.58h-20.1c-.98,0-1.58-.6-1.58-1.58v-41.1l-19.8.38v47.02c0,.97-.6,1.57-1.58,1.57h-20.25c-.98,0-1.58-.6-1.58-1.57v-78.9c0-.98.53-1.5,1.58-1.5Z"/>
  </g>
  <path d="M690.08,52.64c-45.3,19.27-84.29,50.48-113.02,89.68-24.71-6.04-50.52-9.24-77.08-9.24-26.55,0-52.36,3.2-77.06,9.24-28.72-39.2-67.72-70.41-113.02-89.68-10.36-4.41-22.3.68-26.42,11.17-10.34,26.33-16.02,54.99-16.02,84.99,0,24.53,3.79,48.17,10.84,70.37.26.83,1.04,1.4,1.91,1.4h439.52c.87,0,1.65-.56,1.91-1.4,7.05-22.2,10.84-45.84,10.84-70.37,0-30-5.68-58.66-16.02-84.99-4.12-10.48-16.06-15.58-26.42-11.17ZM364.89,145.73c-18.05,3.85-35.1,10.37-50.74,19.13-2.29,1.27-5.14-.13-5.52-2.72-.66-4.56-1-9.22-1-13.96,0-14,3.01-27.31,8.41-39.31.82-1.79,2.89-2.64,4.73-1.95,18.11,6.82,33.99,18.21,46.21,32.76,1.81,2.17.68,5.48-2.09,6.06ZM686.11,162.13c-.38,2.6-3.23,3.99-5.52,2.72-15.64-8.75-32.7-15.27-50.74-19.13-2.77-.58-3.9-3.88-2.09-6.06,12.22-14.55,28.1-25.94,46.21-32.76,1.83-.69,3.91.16,4.71,1.95,5.42,12,8.43,25.31,8.43,39.31,0,4.74-.34,9.4-1,13.96Z"/>
</svg>