<?xml version="1.0" encoding="UTF-8"?>
<svg id="Layer_2" data-name="Layer 2" xmlns="http://www.w3.org/2000/svg" viewBox="0 0 255.43 479.6">
  <defs>
    <style>
      .cls-1 {
        fill: #171717;
      }
    </style>
  </defs>
  <g id="Layer_1-2" data-name="Layer 1">
    <g>
      <path class="cls-1" d="M253.56,15.37c-.32-2.88-.93-5.57-1.97-8.28-.54-1.43-2.7-3.14-4.09-3.48-4.53-1.12-8.62-.03-12.93.94-8.52,1.93-15.85,5.46-23.16,10.09-15.19,9.6-26.11,16.45-38.5,29.92-1.68,1.83-4.77,1.49-6.88.64-11.03-1.29-21.69-2.22-32.84-2.28-14.84-.07-31.69,2.06-46.37,4.93-3.81-5.07-7.95-9.59-12.81-13.76-13.1-11.24-27.44-20.71-42.97-28.27C26.05,3.4,21.2,1.61,15.94.23c-4.59-1.2-7.13,2.54-8.25,6.3C1.2,28.31-.51,55.79,3.85,78.08c.93,4.76,2.13,9.08,4,13.47,0,0,0,.01,0,.02l241.35.19c4.49-15.32,6.31-36.64,6.24-52.49-.04-8.11-.97-15.88-1.87-23.89ZM53.96,49.12c-2.7,1.17-7.49,3.34-12.24,5.99-4.85,2.71-9.5,5.83-12.02,7.6-1.01.71-2.44.23-2.8-.95-.26-.87-.48-1.76-.66-2.66-1.58-8.05-.95-17.97,1.39-25.83.4-1.36,1.32-2.71,2.98-2.28,1.9.49,3.65,1.15,5.45,2.02,5.61,2.73,10.78,6.15,15.51,10.21,1.11.95,2.12,1.96,3.06,3.03.81.93.46,2.39-.67,2.88ZM234,59.03c-.17.9-.39,1.79-.66,2.66-.36,1.19-1.78,1.66-2.8.95-2.52-1.76-7.17-4.89-12.02-7.6-4.76-2.65-9.54-4.82-12.24-5.99-1.13-.49-1.48-1.95-.67-2.87.94-1.08,1.94-2.08,3.05-3.04,4.74-4.05,9.91-7.47,15.51-10.2,1.8-.88,3.55-1.52,5.45-2.02,1.66-.44,2.58.91,2.98,2.27,2.34,7.86,2.96,17.79,1.38,25.83Z"/>
      <g>
        <path class="cls-1" d="M200.28,117.41l26.28.44,28.04-.44c.56,0,.84.28.84.8v26.84c0,11.8-3.68,20.64-14.24,20.64-6.48,0-9.92-3.04-12.16-8.88-1.6,7.2-6.56,11.04-13.68,11.04-11.04,0-15.92-11.44-15.92-22.16v-27.48c0-.52.28-.8.84-.8ZM233.99,143.77c0,3.28,1.68,5.12,4.64,5.12s4.64-1.84,4.64-5.12v-8.52l-9.28-.28v8.8ZM211.6,143.77c0,4.48,1.6,6.24,5.6,6.24,3.76,0,5.28-1.76,5.28-6.24v-8.8l-10.88.28v8.52Z"/>
        <path class="cls-1" d="M219.84,171.73h12.72l22.04-.2c.56,0,.84.32.84.84v16.64c0,.56-.28.84-.84.84l-21.55-.28h-13.04c-6.32,0-8.56,2.56-8.56,7.28,0,5.6,2.24,8.4,8.56,8.4h12.64l21.96-.2c.56,0,.84.32.84.84v14.8c0,.56-.28.84-.84.84l-22.04-.2h-12.72c-14.4,0-21.84-8.24-21.84-24.48s7.44-25.12,21.84-25.12Z"/>
        <path class="cls-1" d="M200.28,226.33l26.68.32,27.63-.32c.56,0,.84.32.84.84v17.76c0,.44-.16.8-.56,1l-30,16.8,3.92-.32h25.79c.56,0,.84.32.84.84v14.08c0,.56-.28.84-.84.84l-27.63-.32-26.68.4c-.56,0-.84-.28-.84-.84v-18.32c0-.44.2-.76.6-1l29.64-16.24-4.64.32h-24.76c-.56,0-.84-.28-.84-.84v-14.16c0-.52.28-.84.84-.84Z"/>
        <path class="cls-1" d="M200.28,283.09l26.36.36,27.96-.36c.56,0,.84.28.84.8v21.64c0,16.48-7.44,31.83-28.79,31.83s-27.2-14.8-27.2-31.67v-21.8c0-.52.28-.8.84-.8ZM211.92,306.33c0,8.16,4.08,12.8,14.88,12.8,11.52,0,16.24-5.36,16.24-13.12v-4.96l-16.08-.32-15.04.32v5.28Z"/>
        <path class="cls-1" d="M134.28,117.41l26.36.36,27.96-.36c.56,0,.84.28.84.8v21.64c0,16.48-7.44,31.83-28.79,31.83s-27.2-14.8-27.2-31.67v-21.8c0-.52.28-.8.84-.8ZM145.92,140.65c0,8.16,4.08,12.8,14.88,12.8,11.52,0,16.24-5.36,16.24-13.12v-4.96l-16.08-.32-15.04.32v5.28Z"/>
        <path class="cls-1" d="M134.28,175.81l26.2.44,28.12-.44c.56,0,.84.28.84.8v41.43c0,.56-.32.84-.84.84h-10.72c-.52,0-.84-.32-.84-.84v-24.44l-8.16-.2v21.92c0,.52-.32.84-.84.84h-10.72c-.52,0-.84-.32-.84-.84v-21.92l-10.56.2v25.08c0,.52-.32.84-.84.84h-10.8c-.52,0-.84-.32-.84-.84v-42.07c0-.52.28-.8.84-.8Z"/>
        <path class="cls-1" d="M134.28,223.37l26.28.32,28.04-.32c.56,0,.84.32.84.84v25.72c0,15.76-6.32,24.4-18.8,24.4-7.6,0-13.4-4-16.36-11.44l-19.84,13c-.56.36-1,.16-1-.52v-18.52c0-.44.2-.8.6-1l15-9.04,2.96-2.04v-3.72l-17.72.24c-.56,0-.84-.28-.84-.84v-16.24c0-.52.28-.84.84-.84ZM164.15,250.73c0,2.88,1.68,6.56,6.08,6.56,4.96,0,7.04-2.48,7.04-7.04v-9.08l-13.12-.12v9.68Z"/>
        <path class="cls-1" d="M68.28,117.41l26.92.4,27.39-.32c.56,0,.84.28.84.8v15.36c0,.56-.28.84-.84.84l-17.8-.16,18.12,12.04c.36.28.52.56.52,1v17.96c0,.72-.48.96-1.04.52l-22.12-17.68-31.79,22.72c-.56.4-1.04.16-1.04-.52v-19c0-.44.2-.72.56-1l11.04-7.48,7.88-5.36-4.04-3.16-14.6.12c-.56,0-.84-.28-.84-.84v-15.44c0-.52.28-.8.84-.8Z"/>
        <path class="cls-1" d="M68.4,171.77l54.35,18.36c.48.16.68.44.68.92v22.4c0,.48-.2.8-.68.96l-54.35,17.6c-.56.2-.96-.08-.96-.68v-16.4c0-.48.24-.8.72-.96l10.8-3.2v-18.08l-10.8-2.96c-.48-.12-.72-.44-.72-.92v-16.36c0-.6.36-.88.96-.68ZM92.4,206.85l18.32-5.4-18.32-5.04v10.44Z"/>
        <path class="cls-1" d="M68.28,240.33l27.48.48,15.28-.24v-14.6c0-.52.32-.84.84-.84h10.72c.52,0,.84.32.84.84v47.03c0,.56-.32.84-.84.84h-10.72c-.52,0-.84-.32-.84-.84v-14.6l-15.28-.24-27.48.48c-.56,0-.84-.28-.84-.84v-16.64c0-.52.28-.84.84-.84Z"/>
        <path class="cls-1" d="M68.28,274.97h12.28c.4,0,.72.12,1,.4l29.48,26.8v-24.2c0-.52.32-.84.84-.84h10.72c.52,0,.84.32.84.84v44.63c0,.52-.32.84-.84.84h-12.72c-.44,0-.72-.12-1.04-.4l-28.91-26v25.24c0,.52-.32.84-.84.84h-10.8c-.52,0-.84-.32-.84-.84v-46.47c0-.52.32-.84.84-.84Z"/>
        <path class="cls-1" d="M68.28,327.73l26.2.44,28.12-.44c.56,0,.84.28.84.8v41.43c0,.56-.32.84-.84.84h-10.72c-.52,0-.84-.32-.84-.84v-24.44l-8.16-.2v21.92c0,.52-.32.84-.84.84h-10.72c-.52,0-.84-.32-.84-.84v-21.92l-10.56.2v25.08c0,.52-.32.84-.84.84h-10.8c-.52,0-.84-.32-.84-.84v-42.07c0-.52.28-.8.84-.8Z"/>
        <path class="cls-1" d="M68.28,375.29l26.68.32,27.63-.32c.56,0,.84.32.84.84v17.76c0,.44-.16.8-.56,1l-30,16.8,3.92-.32h25.79c.56,0,.84.32.84.84v14.08c0,.56-.28.84-.84.84l-27.63-.32-26.68.4c-.56,0-.84-.28-.84-.84v-18.32c0-.44.2-.76.6-1l29.64-16.24-4.64.32h-24.76c-.56,0-.84-.28-.84-.84v-14.16c0-.52.28-.84.84-.84Z"/>
        <path class="cls-1" d="M2.28,117.41l27.24.44,27.07-.44c.56,0,.84.28.84.8v40.07c0,.56-.32.84-.84.84h-10.72c-.52,0-.84-.32-.84-.84v-23.04l-10.64-.24v22.32c0,.56-.32.84-.84.84h-10.72c-.52,0-.84-.32-.84-.84v-22.32l-19.72.24c-.56,0-.84-.28-.84-.84v-16.2c0-.52.28-.8.84-.8Z"/>
        <path class="cls-1" d="M2.28,162.89l26.28.32,28.04-.32c.56,0,.84.32.84.84v25.72c0,15.76-6.32,24.4-18.8,24.4-7.6,0-13.4-4-16.36-11.44l-19.84,13c-.56.36-1,.16-1-.52v-18.52c0-.44.2-.8.6-1l15-9.04,2.96-2.04v-3.72l-17.72.24c-.56,0-.84-.28-.84-.84v-16.24c0-.52.28-.84.84-.84ZM32.15,190.25c0,2.88,1.68,6.56,6.08,6.56,4.96,0,7.04-2.48,7.04-7.04v-9.08l-13.12-.12v9.68Z"/>
        <path class="cls-1" d="M2.28,218.37l26.2.44,28.12-.44c.56,0,.84.28.84.8v41.43c0,.56-.32.84-.84.84h-10.72c-.52,0-.84-.32-.84-.84v-24.44l-8.16-.2v21.92c0,.52-.32.84-.84.84h-10.72c-.52,0-.84-.32-.84-.84v-21.92l-10.56.2v25.08c0,.52-.32.84-.84.84H2.28c-.52,0-.84-.32-.84-.84v-42.07c0-.52.28-.8.84-.8Z"/>
        <path class="cls-1" d="M21.84,266.13h12.72l22.04-.2c.56,0,.84.32.84.84v16.64c0,.56-.28.84-.84.84l-21.55-.28h-13.04c-6.32,0-8.56,2.56-8.56,7.28,0,5.6,2.24,8.4,8.56,8.4h12.64l21.96-.2c.56,0,.84.32.84.84v14.8c0,.56-.28.84-.84.84l-22.04-.2h-12.72c-14.4,0-21.84-8.24-21.84-24.48s7.44-25.12,21.84-25.12Z"/>
        <path class="cls-1" d="M2.28,320.73l26.68.32,27.63-.32c.56,0,.84.32.84.84v17.76c0,.44-.16.8-.56,1l-30,16.8,3.92-.32h25.79c.56,0,.84.32.84.84v14.08c0,.56-.28.84-.84.84l-27.63-.32-26.68.4c-.56,0-.84-.28-.84-.84v-18.32c0-.44.2-.76.6-1l29.64-16.24-4.64.32H2.28c-.56,0-.84-.28-.84-.84v-14.16c0-.52.28-.84.84-.84Z"/>
        <path class="cls-1" d="M2.28,377.49l26.36.36,27.96-.36c.56,0,.84.28.84.8v21.64c0,16.48-7.44,31.83-28.79,31.83s-27.2-14.8-27.2-31.67v-21.8c0-.52.28-.8.84-.8ZM13.92,400.73c0,8.16,4.08,12.8,14.88,12.8,11.52,0,16.24-5.36,16.24-13.12v-4.96l-16.08-.32-15.04.32v5.28Z"/>
        <path class="cls-1" d="M2.28,435.89l26.2.44,28.12-.44c.56,0,.84.28.84.8v41.43c0,.56-.32.84-.84.84h-10.72c-.52,0-.84-.32-.84-.84v-24.44l-8.16-.2v21.92c0,.52-.32.84-.84.84h-10.72c-.52,0-.84-.32-.84-.84v-21.92l-10.56.2v25.08c0,.52-.32.84-.84.84H2.28c-.52,0-.84-.32-.84-.84v-42.07c0-.52.28-.8.84-.8Z"/>
      </g>
    </g>
  </g>
</svg>