<?xml version="1.0" encoding="UTF-8"?>
<svg id="Layer_2" data-name="Layer 2" xmlns="http://www.w3.org/2000/svg" viewBox="0 0 546.95 255.43">
  <defs>
    <style>
      .cls-1 {
        fill: #171717;
      }
    </style>
  </defs>
  <g id="Layer_1-2" data-name="Layer 1">
    <g>
      <path class="cls-1" d="M184.76,55.15l.44-26.28-.44-28.04C184.76.28,185.04,0,185.56,0h26.84C224.19,0,233.03,3.68,233.03,14.24c0,6.48-3.04,9.92-8.88,12.16,7.2,1.6,11.04,6.56,11.04,13.68,0,11.04-11.44,15.92-22.16,15.92h-27.48c-.52,0-.8-.28-.8-.84ZM211.11,21.44c3.28,0,5.12-1.68,5.12-4.64s-1.84-4.64-5.12-4.64h-8.52l-.28,9.28h8.8ZM211.11,43.83c4.48,0,6.24-1.6,6.24-5.6,0-3.76-1.76-5.28-6.24-5.28h-8.8l.28,10.88h8.52Z"/>
      <path class="cls-1" d="M239.08,35.59v-12.72l-.2-22.04C238.88.28,239.2,0,239.72,0h16.64c.56,0,.84.28.84.84l-.28,21.55v13.04c0,6.32,2.56,8.56,7.28,8.56,5.6,0,8.4-2.24,8.4-8.56v-12.64l-.2-21.96C272.39.28,272.71,0,273.23,0h14.8c.56,0,.84.28.84.84l-.2,22.04v12.72c0,14.4-8.24,21.84-24.48,21.84s-25.12-7.44-25.12-21.84Z"/>
      <path class="cls-1" d="M293.68,55.15l.32-26.68-.32-27.63C293.68.28,294,0,294.52,0h17.76c.44,0,.8.16,1,.56l16.8,30-.32-3.92V.84C329.75.28,330.07,0,330.59,0h14.08c.56,0,.84.28.84.84l-.32,27.63.4,26.68c0,.56-.28.84-.84.84h-18.32c-.44,0-.76-.2-1-.6l-16.24-29.64.32,4.64v24.76c0,.56-.28.84-.84.84h-14.16c-.52,0-.84-.28-.84-.84Z"/>
      <path class="cls-1" d="M350.44,55.15l.36-26.36-.36-27.96C350.44.28,350.72,0,351.24,0h21.64C389.35,0,404.71,7.44,404.71,28.79s-14.8,27.2-31.67,27.2h-21.8c-.52,0-.8-.28-.8-.84ZM373.67,43.51c8.16,0,12.8-4.08,12.8-14.88,0-11.52-5.36-16.24-13.12-16.24h-4.96l-.32,16.08.32,15.04h5.28Z"/>
      <path class="cls-1" d="M184.76,121.15l.36-26.36-.36-27.96c0-.56.28-.84.8-.84h21.64c16.48,0,31.83,7.44,31.83,28.79s-14.8,27.2-31.67,27.2h-21.8c-.52,0-.8-.28-.8-.84ZM207.99,109.51c8.16,0,12.8-4.08,12.8-14.88,0-11.52-5.36-16.24-13.12-16.24h-4.96l-.32,16.08.32,15.04h5.28Z"/>
      <path class="cls-1" d="M243.16,121.15l.44-26.2-.44-28.12c0-.56.28-.84.8-.84h41.43c.56,0,.84.32.84.84v10.72c0,.52-.32.84-.84.84h-24.44l-.2,8.16h21.92c.52,0,.84.32.84.84v10.72c0,.52-.32.84-.84.84h-21.92l.2,10.56h25.08c.52,0,.84.32.84.84v10.8c0,.52-.32.84-.84.84h-42.07c-.52,0-.8-.28-.8-.84Z"/>
      <path class="cls-1" d="M290.72,121.15l.32-26.28-.32-28.04c0-.56.32-.84.84-.84h25.72c15.76,0,24.4,6.32,24.4,18.8,0,7.6-4,13.4-11.44,16.36l13,19.84c.36.56.16,1-.52,1h-18.52c-.44,0-.8-.2-1-.6l-9.04-15-2.04-2.96h-3.72l.24,17.72c0,.56-.28.84-.84.84h-16.24c-.52,0-.84-.28-.84-.84ZM318.07,91.28c2.88,0,6.56-1.68,6.56-6.08,0-4.96-2.48-7.04-7.04-7.04h-9.08l-.12,13.12h9.68Z"/>
      <path class="cls-1" d="M184.76,187.15l.4-26.92-.32-27.39c0-.56.28-.84.8-.84h15.36c.56,0,.84.28.84.84l-.16,17.8,12.04-18.12c.28-.36.56-.52,1-.52h17.96c.72,0,.96.48.52,1.04l-17.68,22.12,22.72,31.79c.4.56.16,1.04-.52,1.04h-19c-.44,0-.72-.2-1-.56l-7.48-11.04-5.36-7.88-3.16,4.04.12,14.6c0,.56-.28.84-.84.84h-15.44c-.52,0-.8-.28-.8-.84Z"/>
      <path class="cls-1" d="M239.12,187.03l18.36-54.35c.16-.48.44-.68.92-.68h22.4c.48,0,.8.2.96.68l17.6,54.35c.2.56-.08.96-.68.96h-16.4c-.48,0-.8-.24-.96-.72l-3.2-10.8h-18.08l-2.96,10.8c-.12.48-.44.72-.92.72h-16.36c-.6,0-.88-.36-.68-.96ZM274.19,163.03l-5.4-18.32-5.04,18.32h10.44Z"/>
      <path class="cls-1" d="M307.67,187.15l.48-27.48-.24-15.28h-14.6c-.52,0-.84-.32-.84-.84v-10.72c0-.52.32-.84.84-.84h47.03c.56,0,.84.32.84.84v10.72c0,.52-.32.84-.84.84h-14.6l-.24,15.28.48,27.48c0,.56-.28.84-.84.84h-16.64c-.52,0-.84-.28-.84-.84Z"/>
      <path class="cls-1" d="M342.32,187.15v-12.28c0-.4.12-.72.4-1l26.8-29.48h-24.2c-.52,0-.84-.32-.84-.84v-10.72c0-.52.32-.84.84-.84h44.63c.52,0,.84.32.84.84v12.72c0,.44-.12.72-.4,1.04l-26,28.91h25.24c.52,0,.84.32.84.84v10.8c0,.52-.32.84-.84.84h-46.47c-.52,0-.84-.32-.84-.84Z"/>
      <path class="cls-1" d="M395.08,187.15l.44-26.2-.44-28.12c0-.56.28-.84.8-.84h41.43c.56,0,.84.32.84.84v10.72c0,.52-.32.84-.84.84h-24.44l-.2,8.16h21.92c.52,0,.84.32.84.84v10.72c0,.52-.32.84-.84.84h-21.92l.2,10.56h25.08c.52,0,.84.32.84.84v10.8c0,.52-.32.84-.84.84h-42.07c-.52,0-.8-.28-.8-.84Z"/>
      <path class="cls-1" d="M442.63,187.15l.32-26.68-.32-27.63c0-.56.32-.84.84-.84h17.76c.44,0,.8.16,1,.56l16.8,30-.32-3.92v-25.79c0-.56.32-.84.84-.84h14.08c.56,0,.84.28.84.84l-.32,27.63.4,26.68c0,.56-.28.84-.84.84h-18.32c-.44,0-.76-.2-1-.6l-16.24-29.64.32,4.64v24.76c0,.56-.28.84-.84.84h-14.16c-.52,0-.84-.28-.84-.84Z"/>
      <path class="cls-1" d="M184.76,253.15l.44-27.24-.44-27.07c0-.56.28-.84.8-.84h40.07c.56,0,.84.32.84.84v10.72c0,.52-.32.84-.84.84h-23.04l-.24,10.64h22.32c.56,0,.84.32.84.84v10.72c0,.52-.32.84-.84.84h-22.32l.24,19.72c0,.56-.28.84-.84.84h-16.2c-.52,0-.8-.28-.8-.84Z"/>
      <path class="cls-1" d="M230.24,253.15l.32-26.28-.32-28.04c0-.56.32-.84.84-.84h25.72c15.76,0,24.4,6.32,24.4,18.8,0,7.6-4,13.4-11.44,16.36l13,19.84c.36.56.16,1-.52,1h-18.52c-.44,0-.8-.2-1-.6l-9.04-15-2.04-2.96h-3.72l.24,17.72c0,.56-.28.84-.84.84h-16.24c-.52,0-.84-.28-.84-.84ZM257.59,223.28c2.88,0,6.56-1.68,6.56-6.08,0-4.96-2.48-7.04-7.04-7.04h-9.08l-.12,13.12h9.68Z"/>
      <path class="cls-1" d="M285.72,253.15l.44-26.2-.44-28.12c0-.56.28-.84.8-.84h41.43c.56,0,.84.32.84.84v10.72c0,.52-.32.84-.84.84h-24.44l-.2,8.16h21.92c.52,0,.84.32.84.84v10.72c0,.52-.32.84-.84.84h-21.92l.2,10.56h25.08c.52,0,.84.32.84.84v10.8c0,.52-.32.84-.84.84h-42.07c-.52,0-.8-.28-.8-.84Z"/>
      <path class="cls-1" d="M333.47,233.59v-12.72l-.2-22.04c0-.56.32-.84.84-.84h16.64c.56,0,.84.28.84.84l-.28,21.55v13.04c0,6.32,2.56,8.56,7.28,8.56,5.6,0,8.4-2.24,8.4-8.56v-12.64l-.2-21.96c0-.56.32-.84.84-.84h14.8c.56,0,.84.28.84.84l-.2,22.04v12.72c0,14.4-8.24,21.84-24.48,21.84s-25.12-7.44-25.12-21.84Z"/>
      <path class="cls-1" d="M388.07,253.15l.32-26.68-.32-27.63c0-.56.32-.84.84-.84h17.76c.44,0,.8.16,1,.56l16.8,30-.32-3.92v-25.79c0-.56.32-.84.84-.84h14.08c.56,0,.84.28.84.84l-.32,27.63.4,26.68c0,.56-.28.84-.84.84h-18.32c-.44,0-.76-.2-1-.6l-16.24-29.64.32,4.64v24.76c0,.56-.28.84-.84.84h-14.16c-.52,0-.84-.28-.84-.84Z"/>
      <path class="cls-1" d="M444.83,253.15l.36-26.36-.36-27.96c0-.56.28-.84.8-.84h21.64c16.48,0,31.83,7.44,31.83,28.79s-14.8,27.2-31.67,27.2h-21.8c-.52,0-.8-.28-.8-.84ZM468.07,241.51c8.16,0,12.8-4.08,12.8-14.88,0-11.52-5.36-16.24-13.12-16.24h-4.96l-.32,16.08.32,15.04h5.28Z"/>
      <path class="cls-1" d="M503.23,253.15l.44-26.2-.44-28.12c0-.56.28-.84.8-.84h41.43c.56,0,.84.32.84.84v10.72c0,.52-.32.84-.84.84h-24.44l-.2,8.16h21.92c.52,0,.84.32.84.84v10.72c0,.52-.32.84-.84.84h-21.92l.2,10.56h25.08c.52,0,.84.32.84.84v10.8c0,.52-.32.84-.84.84h-42.07c-.52,0-.8-.28-.8-.84Z"/>
    </g>
    <g>
      <path d="M102.9,6.74c-5.11,1.8-9.75,4.08-14.37,6.67-14.78-4.34-35.37-6.09-50.65-6.02-7.82.03-15.32.93-23.04,1.8-2.78.31-5.38.91-8,1.9-1.37.52-3.02,2.61-3.35,3.95-1.08,4.38-.03,8.32.91,12.47,1.87,8.22,5.27,15.29,9.73,22.34,9.26,14.65,15.87,25.19,28.87,37.15,1.77,1.63,1.44,4.6.62,6.64-1.24,10.65-2.14,20.93-2.2,31.68-.07,14.32,1.98,30.58,4.76,44.73-4.89,3.67-9.25,7.67-13.28,12.36-10.84,12.64-19.98,26.47-27.27,41.45-2.34,4.82-4.07,9.49-5.4,14.57-1.16,4.43,2.45,6.88,6.08,7.96,21.01,6.26,47.53,7.91,69.03,3.7,4.59-.89,8.76-2.05,12.99-3.86,2.13.34,3.95,1.17,5.95,1.98,6.52,2.65,13.1,4.62,19.91,6.34,14.72,2.39,32.53-.38,46.31-5.87l.17-46.15.29-77.59.2-96.21-.28-22.61c-14.57-10.99-42.19-4.95-57.96.61ZM59.58,227.86c-.84.26-1.7.46-2.57.63-7.77,1.52-17.34.92-24.92-1.34-1.31-.39-2.61-1.28-2.2-2.88.48-1.83,1.1-3.52,1.94-5.26,2.63-5.41,5.93-10.4,9.85-14.97.92-1.07,1.89-2.04,2.92-2.94.9-.79,2.3-.45,2.78.64,1.12,2.61,3.22,7.22,5.78,11.81,2.61,4.68,5.63,9.16,7.33,11.6.68.98.22,2.35-.92,2.7ZM152.31,194.06c0,15.91-12.94,28.86-28.85,28.86s-28.86-12.94-28.86-28.86,12.94-28.85,28.86-28.85,28.85,12.94,28.85,28.85ZM125.83,37.87c11.34.77,21.33,8.45,24.85,19.13,1,3.03,1.51,6.14,1.51,9.25,0,13.41-9.26,24.86-22.52,27.83-8.25,1.85-17.38-.25-23.26-5.34-6.5-5.63-10.38-14.4-10.38-23.45,0-3.98.74-7.79,2.2-11.3,4.33-10.45,15.42-16.93,27.6-16.11ZM56.95,28.06c.87.17,1.73.38,2.57.63,1.14.34,1.6,1.72.92,2.7-1.69,2.43-4.72,6.92-7.33,11.6-2.56,4.59-4.65,9.2-5.78,11.81-.47,1.09-1.88,1.43-2.78.64-1.03-.9-2-1.87-2.92-2.94-3.91-4.57-7.21-9.56-9.84-14.97-.85-1.74-1.47-3.43-1.94-5.26-.42-1.59.88-2.49,2.19-2.88,7.59-2.26,17.16-2.86,24.92-1.34Z"/>
      <circle cx="123.46" cy="194.07" r="18.93"/>
      <path d="M107.39,57.78c-3.23,7.81-.87,17.94,5.51,23.46,3.86,3.34,9.92,4.2,14.6,3.15,10.65-2.38,17.43-13.16,13.76-24.28-2.35-7.11-8.91-11.86-16.09-12.34-7.13-.48-14.86,2.97-17.77,10.01Z"/>
    </g>
  </g>
</svg>