<?xml version="1.0" encoding="UTF-8"?>
<svg id="Layer_2" data-name="Layer 2" xmlns="http://www.w3.org/2000/svg" viewBox="0 0 255.43 479.6">
  <defs>
    <style>
      .cls-1 {
        fill: #171717;
      }
    </style>
  </defs>
  <g id="Layer_1-2" data-name="Layer 1">
    <g>
      <path class="cls-1" d="M1.87,464.23c.32,2.88.93,5.57,1.97,8.28.54,1.43,2.7,3.14,4.09,3.48,4.53,1.12,8.62.03,12.93-.94,8.52-1.93,15.85-5.46,23.16-10.09,15.19-9.6,26.11-16.45,38.5-29.92,1.68-1.83,4.77-1.49,6.88-.64,11.03,1.29,21.69,2.22,32.84,2.28,14.84.07,31.69-2.06,46.37-4.93,3.81,5.07,7.95,9.59,12.81,13.76,13.1,11.24,27.44,20.71,42.97,28.27,4.99,2.43,9.84,4.22,15.1,5.59,4.59,1.2,7.13-2.54,8.25-6.3,6.49-21.78,8.2-49.27,3.84-71.55-.93-4.76-2.13-9.08-4-13.47,0,0,0-.01,0-.02l-241.35-.19C1.75,403.18-.07,424.5,0,440.34c.04,8.11.97,15.88,1.87,23.89ZM201.47,430.48c2.7-1.17,7.49-3.34,12.24-5.99,4.85-2.71,9.5-5.83,12.02-7.6,1.01-.71,2.44-.23,2.8.95.26.87.48,1.76.66,2.66,1.58,8.05.95,17.97-1.39,25.83-.4,1.36-1.32,2.71-2.98,2.28-1.9-.49-3.65-1.15-5.45-2.02-5.61-2.73-10.78-6.15-15.51-10.21-1.11-.95-2.12-1.96-3.06-3.03-.81-.93-.46-2.39.67-2.88ZM21.43,420.57c.17-.9.39-1.79.66-2.66.36-1.19,1.78-1.66,2.8-.95,2.52,1.76,7.17,4.89,12.02,7.6,4.76,2.65,9.54,4.82,12.24,5.99,1.13.49,1.48,1.95.67,2.87-.94,1.08-1.94,2.08-3.05,3.04-4.74,4.05-9.91,7.47-15.51,10.2-1.8.88-3.55,1.52-5.45,2.02-1.66.44-2.58-.91-2.98-2.27-2.34-7.86-2.96-17.79-1.38-25.83Z"/>
      <g>
        <path class="cls-1" d="M55.15,362.19l-26.28-.44-28.04.44c-.56,0-.84-.28-.84-.8v-26.84c0-11.8,3.68-20.64,14.24-20.64,6.48,0,9.92,3.04,12.16,8.88,1.6-7.2,6.56-11.04,13.68-11.04,11.04,0,15.92,11.44,15.92,22.16v27.48c0,.52-.28.8-.84.8ZM21.44,335.83c0-3.28-1.68-5.12-4.64-5.12s-4.64,1.84-4.64,5.12v8.52l9.28.28v-8.8ZM43.83,335.83c0-4.48-1.6-6.24-5.6-6.24-3.76,0-5.28,1.76-5.28,6.24v8.8l10.88-.28v-8.52Z"/>
        <path class="cls-1" d="M35.59,307.87h-12.72l-22.04.2c-.56,0-.84-.32-.84-.84v-16.64c0-.56.28-.84.84-.84l21.55.28h13.04c6.32,0,8.56-2.56,8.56-7.28,0-5.6-2.24-8.4-8.56-8.4h-12.64l-21.96.2c-.56,0-.84-.32-.84-.84v-14.8c0-.56.28-.84.84-.84l22.04.2h12.72c14.4,0,21.84,8.24,21.84,24.48s-7.44,25.12-21.84,25.12Z"/>
        <path class="cls-1" d="M55.15,253.27l-26.68-.32-27.63.32c-.56,0-.84-.32-.84-.84v-17.76c0-.44.16-.8.56-1l30-16.8-3.92.32H.84c-.56,0-.84-.32-.84-.84v-14.08c0-.56.28-.84.84-.84l27.63.32,26.68-.4c.56,0,.84.28.84.84v18.32c0,.44-.2.76-.6,1l-29.64,16.24,4.64-.32h24.76c.56,0,.84.28.84.84v14.16c0,.52-.28.84-.84.84Z"/>
        <path class="cls-1" d="M55.15,196.51l-26.36-.36-27.96.36c-.56,0-.84-.28-.84-.8v-21.64c0-16.48,7.44-31.83,28.79-31.83s27.2,14.8,27.2,31.67v21.8c0,.52-.28.8-.84.8ZM43.51,173.27c0-8.16-4.08-12.8-14.88-12.8-11.52,0-16.24,5.36-16.24,13.12v4.96l16.08.32,15.04-.32v-5.28Z"/>
        <path class="cls-1" d="M121.15,362.19l-26.36-.36-27.96.36c-.56,0-.84-.28-.84-.8v-21.64c0-16.48,7.44-31.83,28.79-31.83s27.2,14.8,27.2,31.67v21.8c0,.52-.28.8-.84.8ZM109.51,338.95c0-8.16-4.08-12.8-14.88-12.8-11.52,0-16.24,5.36-16.24,13.12v4.96l16.08.32,15.04-.32v-5.28Z"/>
        <path class="cls-1" d="M121.15,303.79l-26.2-.44-28.12.44c-.56,0-.84-.28-.84-.8v-41.43c0-.56.32-.84.84-.84h10.72c.52,0,.84.32.84.84v24.44l8.16.2v-21.92c0-.52.32-.84.84-.84h10.72c.52,0,.84.32.84.84v21.92l10.56-.2v-25.08c0-.52.32-.84.84-.84h10.8c.52,0,.84.32.84.84v42.07c0,.52-.28.8-.84.8Z"/>
        <path class="cls-1" d="M121.15,256.23l-26.28-.32-28.04.32c-.56,0-.84-.32-.84-.84v-25.72c0-15.76,6.32-24.4,18.8-24.4,7.6,0,13.4,4,16.36,11.44l19.84-13c.56-.36,1-.16,1,.52v18.52c0,.44-.2.8-.6,1l-15,9.04-2.96,2.04v3.72l17.72-.24c.56,0,.84.28.84.84v16.24c0,.52-.28.84-.84.84ZM91.28,228.88c0-2.88-1.68-6.56-6.08-6.56-4.96,0-7.04,2.48-7.04,7.04v9.08l13.12.12v-9.68Z"/>
        <path class="cls-1" d="M187.15,362.19l-26.92-.4-27.39.32c-.56,0-.84-.28-.84-.8v-15.36c0-.56.28-.84.84-.84l17.8.16-18.12-12.04c-.36-.28-.52-.56-.52-1v-17.96c0-.72.48-.96,1.04-.52l22.12,17.68,31.79-22.72c.56-.4,1.04-.16,1.04.52v19c0,.44-.2.72-.56,1l-11.04,7.48-7.88,5.36,4.04,3.16,14.6-.12c.56,0,.84.28.84.84v15.44c0,.52-.28.8-.84.8Z"/>
        <path class="cls-1" d="M187.03,307.83l-54.35-18.36c-.48-.16-.68-.44-.68-.92v-22.4c0-.48.2-.8.68-.96l54.35-17.6c.56-.2.96.08.96.68v16.4c0,.48-.24.8-.72.96l-10.8,3.2v18.08l10.8,2.96c.48.12.72.44.72.92v16.36c0,.6-.36.88-.96.68ZM163.03,272.75l-18.32,5.4,18.32,5.04v-10.44Z"/>
        <path class="cls-1" d="M187.15,239.27l-27.48-.48-15.28.24v14.6c0,.52-.32.84-.84.84h-10.72c-.52,0-.84-.32-.84-.84v-47.03c0-.56.32-.84.84-.84h10.72c.52,0,.84.32.84.84v14.6l15.28.24,27.48-.48c.56,0,.84.28.84.84v16.64c0,.52-.28.84-.84.84Z"/>
        <path class="cls-1" d="M187.15,204.63h-12.28c-.4,0-.72-.12-1-.4l-29.48-26.8v24.2c0,.52-.32.84-.84.84h-10.72c-.52,0-.84-.32-.84-.84v-44.63c0-.52.32-.84.84-.84h12.72c.44,0,.72.12,1.04.4l28.91,26v-25.24c0-.52.32-.84.84-.84h10.8c.52,0,.84.32.84.84v46.47c0,.52-.32.84-.84.84Z"/>
        <path class="cls-1" d="M187.15,151.87l-26.2-.44-28.12.44c-.56,0-.84-.28-.84-.8v-41.43c0-.56.32-.84.84-.84h10.72c.52,0,.84.32.84.84v24.44l8.16.2v-21.92c0-.52.32-.84.84-.84h10.72c.52,0,.84.32.84.84v21.92l10.56-.2v-25.08c0-.52.32-.84.84-.84h10.8c.52,0,.84.32.84.84v42.07c0,.52-.28.8-.84.8Z"/>
        <path class="cls-1" d="M187.15,104.31l-26.68-.32-27.63.32c-.56,0-.84-.32-.84-.84v-17.76c0-.44.16-.8.56-1l30-16.8-3.92.32h-25.79c-.56,0-.84-.32-.84-.84v-14.08c0-.56.28-.84.84-.84l27.63.32,26.68-.4c.56,0,.84.28.84.84v18.32c0,.44-.2.76-.6,1l-29.64,16.24,4.64-.32h24.76c.56,0,.84.28.84.84v14.16c0,.52-.28.84-.84.84Z"/>
        <path class="cls-1" d="M253.15,362.19l-27.24-.44-27.07.44c-.56,0-.84-.28-.84-.8v-40.07c0-.56.32-.84.84-.84h10.72c.52,0,.84.32.84.84v23.04l10.64.24v-22.32c0-.56.32-.84.84-.84h10.72c.52,0,.84.32.84.84v22.32l19.72-.24c.56,0,.84.28.84.84v16.2c0,.52-.28.8-.84.8Z"/>
        <path class="cls-1" d="M253.15,316.71l-26.28-.32-28.04.32c-.56,0-.84-.32-.84-.84v-25.72c0-15.76,6.32-24.4,18.8-24.4,7.6,0,13.4,4,16.36,11.44l19.84-13c.56-.36,1-.16,1,.52v18.52c0,.44-.2.8-.6,1l-15,9.04-2.96,2.04v3.72l17.72-.24c.56,0,.84.28.84.84v16.24c0,.52-.28.84-.84.84ZM223.28,289.35c0-2.88-1.68-6.56-6.08-6.56-4.96,0-7.04,2.48-7.04,7.04v9.08l13.12.12v-9.68Z"/>
        <path class="cls-1" d="M253.15,261.23l-26.2-.44-28.12.44c-.56,0-.84-.28-.84-.8v-41.43c0-.56.32-.84.84-.84h10.72c.52,0,.84.32.84.84v24.44l8.16.2v-21.92c0-.52.32-.84.84-.84h10.72c.52,0,.84.32.84.84v21.92l10.56-.2v-25.08c0-.52.32-.84.84-.84h10.8c.52,0,.84.32.84.84v42.07c0,.52-.28.8-.84.8Z"/>
        <path class="cls-1" d="M233.59,213.47h-12.72l-22.04.2c-.56,0-.84-.32-.84-.84v-16.64c0-.56.28-.84.84-.84l21.55.28h13.04c6.32,0,8.56-2.56,8.56-7.28,0-5.6-2.24-8.4-8.56-8.4h-12.64l-21.96.2c-.56,0-.84-.32-.84-.84v-14.8c0-.56.28-.84.84-.84l22.04.2h12.72c14.4,0,21.84,8.24,21.84,24.48s-7.44,25.12-21.84,25.12Z"/>
        <path class="cls-1" d="M253.15,158.87l-26.68-.32-27.63.32c-.56,0-.84-.32-.84-.84v-17.76c0-.44.16-.8.56-1l30-16.8-3.92.32h-25.79c-.56,0-.84-.32-.84-.84v-14.08c0-.56.28-.84.84-.84l27.63.32,26.68-.4c.56,0,.84.28.84.84v18.32c0,.44-.2.76-.6,1l-29.64,16.24,4.64-.32h24.76c.56,0,.84.28.84.84v14.16c0,.52-.28.84-.84.84Z"/>
        <path class="cls-1" d="M253.15,102.11l-26.36-.36-27.96.36c-.56,0-.84-.28-.84-.8v-21.64c0-16.48,7.44-31.83,28.79-31.83s27.2,14.8,27.2,31.67v21.8c0,.52-.28.8-.84.8ZM241.51,78.88c0-8.16-4.08-12.8-14.88-12.8-11.52,0-16.24,5.36-16.24,13.12v4.96l16.08.32,15.04-.32v-5.28Z"/>
        <path class="cls-1" d="M253.15,43.71l-26.2-.44-28.12.44c-.56,0-.84-.28-.84-.8V1.48c0-.56.32-.84.84-.84h10.72c.52,0,.84.32.84.84v24.44l8.16.2V4.2c0-.52.32-.84.84-.84h10.72c.52,0,.84.32.84.84v21.92l10.56-.2V.84c0-.52.32-.84.84-.84h10.8c.52,0,.84.32.84.84v42.07c0,.52-.28.8-.84.8Z"/>
      </g>
    </g>
  </g>
</svg>