<?xml version="1.0" encoding="UTF-8"?>
<svg id="Layer_2" data-name="Layer 2" xmlns="http://www.w3.org/2000/svg" viewBox="0 0 478.96 255.43">
  <defs>
    <style>
      .cls-1 {
        fill: #171717;
      }
    </style>
  </defs>
  <g id="Layer_1-2" data-name="Layer 1">
    <g>
      <path class="cls-1" d="M463.59,252.12c2.88-.32,5.57-.93,8.28-1.97,1.43-.54,3.14-2.7,3.48-4.09,1.12-4.53.03-8.62-.94-12.93-1.93-8.52-5.46-15.85-10.09-23.16-9.6-15.19-16.45-26.11-29.92-38.5-1.83-1.68-1.49-4.77-.64-6.88,1.29-11.03,2.22-21.69,2.28-32.84.07-14.84-2.06-31.69-4.93-46.37,5.07-3.81,9.59-7.95,13.76-12.81,11.24-13.1,20.71-27.44,28.27-42.97,2.43-4.99,4.22-9.84,5.59-15.1,1.2-4.59-2.54-7.13-6.3-8.25-21.78-6.49-49.27-8.2-71.55-3.84-4.76.93-9.08,2.13-13.47,4,0,0-.01,0-.02,0l-.19,241.35c15.32,4.49,36.64,6.31,52.49,6.24,8.11-.04,15.88-.97,23.89-1.87ZM429.85,52.52c-1.17-2.7-3.34-7.49-5.99-12.24-2.71-4.85-5.83-9.5-7.6-12.02-.71-1.01-.23-2.44.95-2.8.87-.26,1.76-.48,2.66-.66,8.05-1.58,17.97-.95,25.83,1.39,1.36.4,2.71,1.32,2.28,2.98-.49,1.9-1.15,3.65-2.02,5.45-2.73,5.61-6.15,10.78-10.21,15.51-.95,1.11-1.96,2.12-3.03,3.06-.93.81-2.39.46-2.88-.67ZM419.93,232.56c-.9-.17-1.79-.39-2.66-.66-1.19-.36-1.66-1.78-.95-2.8,1.76-2.52,4.89-7.17,7.6-12.02,2.65-4.76,4.82-9.54,5.99-12.24.49-1.13,1.95-1.48,2.87-.67,1.08.94,2.08,1.94,3.04,3.05,4.05,4.74,7.47,9.91,10.2,15.51.88,1.8,1.52,3.55,2.02,5.45.44,1.66-.91,2.58-2.27,2.98-7.86,2.34-17.79,2.96-25.83,1.38Z"/>
      <g>
        <path class="cls-1" d="M141.6,55.15l.44-26.28-.44-28.04c0-.56.28-.84.8-.84h26.84c11.8,0,20.64,3.68,20.64,14.24,0,6.48-3.04,9.92-8.88,12.16,7.2,1.6,11.04,6.56,11.04,13.68,0,11.04-11.44,15.92-22.16,15.92h-27.48c-.52,0-.8-.28-.8-.84ZM167.95,21.44c3.28,0,5.12-1.68,5.12-4.64s-1.84-4.64-5.12-4.64h-8.52l-.28,9.28h8.8ZM167.95,43.83c4.48,0,6.24-1.6,6.24-5.6,0-3.76-1.76-5.28-6.24-5.28h-8.8l.28,10.88h8.52Z"/>
        <path class="cls-1" d="M195.92,35.59v-12.72l-.2-22.04c0-.56.32-.84.84-.84h16.64c.56,0,.84.28.84.84l-.28,21.55v13.04c0,6.32,2.56,8.56,7.28,8.56,5.6,0,8.4-2.24,8.4-8.56v-12.64l-.2-21.96c0-.56.32-.84.84-.84h14.8c.56,0,.84.28.84.84l-.2,22.04v12.72c0,14.4-8.24,21.84-24.48,21.84s-25.12-7.44-25.12-21.84Z"/>
        <path class="cls-1" d="M250.52,55.15l.32-26.68-.32-27.63c0-.56.32-.84.84-.84h17.76c.44,0,.8.16,1,.56l16.8,30-.32-3.92V.84c0-.56.32-.84.84-.84h14.08c.56,0,.84.28.84.84l-.32,27.63.4,26.68c0,.56-.28.84-.84.84h-18.32c-.44,0-.76-.2-1-.6l-16.24-29.64.32,4.64v24.76c0,.56-.28.84-.84.84h-14.16c-.52,0-.84-.28-.84-.84Z"/>
        <path class="cls-1" d="M307.28,55.15l.36-26.36-.36-27.96c0-.56.28-.84.8-.84h21.64c16.48,0,31.83,7.44,31.83,28.79s-14.8,27.2-31.67,27.2h-21.8c-.52,0-.8-.28-.8-.84ZM330.51,43.51c8.16,0,12.8-4.08,12.8-14.88,0-11.52-5.36-16.24-13.12-16.24h-4.96l-.32,16.08.32,15.04h5.28Z"/>
        <path class="cls-1" d="M202.9,121.15l.36-26.36-.36-27.96c0-.56.28-.84.8-.84h21.64c16.48,0,31.83,7.44,31.83,28.79s-14.8,27.2-31.67,27.2h-21.8c-.52,0-.8-.28-.8-.84ZM226.14,109.51c8.16,0,12.8-4.08,12.8-14.88,0-11.52-5.36-16.24-13.12-16.24h-4.96l-.32,16.08.32,15.04h5.28Z"/>
        <path class="cls-1" d="M261.3,121.15l.44-26.2-.44-28.12c0-.56.28-.84.8-.84h41.43c.56,0,.84.32.84.84v10.72c0,.52-.32.84-.84.84h-24.44l-.2,8.16h21.92c.52,0,.84.32.84.84v10.72c0,.52-.32.84-.84.84h-21.92l.2,10.56h25.08c.52,0,.84.32.84.84v10.8c0,.52-.32.84-.84.84h-42.07c-.52,0-.8-.28-.8-.84Z"/>
        <path class="cls-1" d="M308.86,121.15l.32-26.28-.32-28.04c0-.56.32-.84.84-.84h25.72c15.76,0,24.4,6.32,24.4,18.8,0,7.6-4,13.4-11.44,16.36l13,19.84c.36.56.16,1-.52,1h-18.52c-.44,0-.8-.2-1-.6l-9.04-15-2.04-2.96h-3.72l.24,17.72c0,.56-.28.84-.84.84h-16.24c-.52,0-.84-.28-.84-.84ZM336.22,91.28c2.88,0,6.56-1.68,6.56-6.08,0-4.96-2.48-7.04-7.04-7.04h-9.08l-.12,13.12h9.68Z"/>
        <path class="cls-1" d="M51.76,187.15l.4-26.92-.32-27.39c0-.56.28-.84.8-.84h15.36c.56,0,.84.28.84.84l-.16,17.8,12.04-18.12c.28-.36.56-.52,1-.52h17.96c.72,0,.96.48.52,1.04l-17.68,22.12,22.72,31.79c.4.56.16,1.04-.52,1.04h-19c-.44,0-.72-.2-1-.56l-7.48-11.04-5.36-7.88-3.16,4.04.12,14.6c0,.56-.28.84-.84.84h-15.44c-.52,0-.8-.28-.8-.84Z"/>
        <path class="cls-1" d="M106.12,187.03l18.36-54.35c.16-.48.44-.68.92-.68h22.4c.48,0,.8.2.96.68l17.6,54.35c.2.56-.08.96-.68.96h-16.4c-.48,0-.8-.24-.96-.72l-3.2-10.8h-18.08l-2.96,10.8c-.12.48-.44.72-.92.72h-16.36c-.6,0-.88-.36-.68-.96ZM141.2,163.03l-5.4-18.32-5.04,18.32h10.44Z"/>
        <path class="cls-1" d="M174.68,187.15l.48-27.48-.24-15.28h-14.6c-.52,0-.84-.32-.84-.84v-10.72c0-.52.32-.84.84-.84h47.03c.56,0,.84.32.84.84v10.72c0,.52-.32.84-.84.84h-14.6l-.24,15.28.48,27.48c0,.56-.28.84-.84.84h-16.64c-.52,0-.84-.28-.84-.84Z"/>
        <path class="cls-1" d="M209.32,187.15v-12.28c0-.4.12-.72.4-1l26.8-29.48h-24.2c-.52,0-.84-.32-.84-.84v-10.72c0-.52.32-.84.84-.84h44.63c.52,0,.84.32.84.84v12.72c0,.44-.12.72-.4,1.04l-26,28.91h25.24c.52,0,.84.32.84.84v10.8c0,.52-.32.84-.84.84h-46.47c-.52,0-.84-.32-.84-.84Z"/>
        <path class="cls-1" d="M262.08,187.15l.44-26.2-.44-28.12c0-.56.28-.84.8-.84h41.43c.56,0,.84.32.84.84v10.72c0,.52-.32.84-.84.84h-24.44l-.2,8.16h21.92c.52,0,.84.32.84.84v10.72c0,.52-.32.84-.84.84h-21.92l.2,10.56h25.08c.52,0,.84.32.84.84v10.8c0,.52-.32.84-.84.84h-42.07c-.52,0-.8-.28-.8-.84Z"/>
        <path class="cls-1" d="M309.64,187.15l.32-26.68-.32-27.63c0-.56.32-.84.84-.84h17.76c.44,0,.8.16,1,.56l16.8,30-.32-3.92v-25.79c0-.56.32-.84.84-.84h14.08c.56,0,.84.28.84.84l-.32,27.63.4,26.68c0,.56-.28.84-.84.84h-18.32c-.44,0-.76-.2-1-.6l-16.24-29.64.32,4.64v24.76c0,.56-.28.84-.84.84h-14.16c-.52,0-.84-.28-.84-.84Z"/>
        <path class="cls-1" d="M0,253.15l.44-27.24-.44-27.07c0-.56.28-.84.8-.84h40.07c.56,0,.84.32.84.84v10.72c0,.52-.32.84-.84.84h-23.04l-.24,10.64h22.32c.56,0,.84.32.84.84v10.72c0,.52-.32.84-.84.84h-22.32l.24,19.72c0,.56-.28.84-.84.84H.8c-.52,0-.8-.28-.8-.84Z"/>
        <path class="cls-1" d="M45.48,253.15l.32-26.28-.32-28.04c0-.56.32-.84.84-.84h25.72c15.76,0,24.4,6.32,24.4,18.8,0,7.6-4,13.4-11.44,16.36l13,19.84c.36.56.16,1-.52,1h-18.52c-.44,0-.8-.2-1-.6l-9.04-15-2.04-2.96h-3.72l.24,17.72c0,.56-.28.84-.84.84h-16.24c-.52,0-.84-.28-.84-.84ZM72.83,223.28c2.88,0,6.56-1.68,6.56-6.08,0-4.96-2.48-7.04-7.04-7.04h-9.08l-.12,13.12h9.68Z"/>
        <path class="cls-1" d="M100.96,253.15l.44-26.2-.44-28.12c0-.56.28-.84.8-.84h41.43c.56,0,.84.32.84.84v10.72c0,.52-.32.84-.84.84h-24.44l-.2,8.16h21.92c.52,0,.84.32.84.84v10.72c0,.52-.32.84-.84.84h-21.92l.2,10.56h25.08c.52,0,.84.32.84.84v10.8c0,.52-.32.84-.84.84h-42.07c-.52,0-.8-.28-.8-.84Z"/>
        <path class="cls-1" d="M148.72,233.59v-12.72l-.2-22.04c0-.56.32-.84.84-.84h16.64c.56,0,.84.28.84.84l-.28,21.55v13.04c0,6.32,2.56,8.56,7.28,8.56,5.6,0,8.4-2.24,8.4-8.56v-12.64l-.2-21.96c0-.56.32-.84.84-.84h14.8c.56,0,.84.28.84.84l-.2,22.04v12.72c0,14.4-8.24,21.84-24.48,21.84s-25.12-7.44-25.12-21.84Z"/>
        <path class="cls-1" d="M203.32,253.15l.32-26.68-.32-27.63c0-.56.32-.84.84-.84h17.76c.44,0,.8.16,1,.56l16.8,30-.32-3.92v-25.79c0-.56.32-.84.84-.84h14.08c.56,0,.84.28.84.84l-.32,27.63.4,26.68c0,.56-.28.84-.84.84h-18.32c-.44,0-.76-.2-1-.6l-16.24-29.64.32,4.64v24.76c0,.56-.28.84-.84.84h-14.16c-.52,0-.84-.28-.84-.84Z"/>
        <path class="cls-1" d="M260.08,253.15l.36-26.36-.36-27.96c0-.56.28-.84.8-.84h21.64c16.48,0,31.83,7.44,31.83,28.79s-14.8,27.2-31.67,27.2h-21.8c-.52,0-.8-.28-.8-.84ZM283.31,241.51c8.16,0,12.8-4.08,12.8-14.88,0-11.52-5.36-16.24-13.12-16.24h-4.96l-.32,16.08.32,15.04h5.28Z"/>
        <path class="cls-1" d="M318.48,253.15l.44-26.2-.44-28.12c0-.56.28-.84.8-.84h41.43c.56,0,.84.32.84.84v10.72c0,.52-.32.84-.84.84h-24.44l-.2,8.16h21.92c.52,0,.84.32.84.84v10.72c0,.52-.32.84-.84.84h-21.92l.2,10.56h25.08c.52,0,.84.32.84.84v10.8c0,.52-.32.84-.84.84h-42.07c-.52,0-.8-.28-.8-.84Z"/>
      </g>
    </g>
  </g>
</svg>